SplineFontDB: 3.0
FontName: Chivo-Black
FullName: Chivo Black
FamilyName: Chivo
Weight: Black
Copyright: Copyright (c) 2011-2014 by Omnibus-Type (www.omnibus-type.com omnibus.type@gmail.com), with Reserved Font Name 'Chivo'
UComments: "Disclaimer+AAoA +AAoA-Omnibus-Type give no warranty in relation to this font, and you use this+AAoA-at your own risk.+AAoA +AAoA-Omnibus-Type shall not be liable for any direct, indirect, consequential, or incidental damages (including damages from loss of business profits, business interruption, loss of business information, and the like) arising out of the use of or inability to use the fonts.+AAoA +AAoA +AAoA-If you have further questions, please contact us:+AAoA-omnibus.type@gmail.com" 

StartChar: .notdef
Encoding: 65536 -1 0
Width: 500
Flags: MW
HStem: 0 50<80 420 80 500> 650 50<80 80 80 420>
VStem: 0 50<95 95 95 605> 450 50<95 605 605 605>
LayerCount: 2
Fore
SplineSet
500 0 m 1
 0 0 l 1
 0 700 l 1
 500 700 l 1
 500 0 l 1
80 650 m 1
 250 395 l 1
 420 650 l 1
 80 650 l 1
50 95 m 1
 220 350 l 1
 50 605 l 1
 50 95 l 1
280 350 m 1
 450 95 l 1
 450 605 l 1
 280 350 l 1
80 50 m 1
 420 50 l 1
 250 305 l 1
 80 50 l 1
EndSplineSet
EndChar

StartChar: A
Encoding: 65 65 1
Width: 709
GlyphClass: 2
Flags: MW
HStem: 122 145<285 407 285 455 237 407> 122 564<237 455 237 237> 475 211<344 344 344 349>
VStem: -5 719<0 0>
LayerCount: 2
Fore
SplineSet
714 0 m 1x50
 496 0 l 1
 455 122 l 1
 237 122 l 1
 197 0 l 1
 -5 0 l 1
 224 686 l 1
 485 686 l 1
 714 0 l 1x50
344 475 m 1xb0
 285 267 l 1
 407 267 l 1
 349 475 l 1
 344 475 l 1xb0
EndSplineSet
Substitution2: "Single Substitution lookup 5 subtable" ordfeminine
Substitution2: "'aalt' Access All Alternates lookup 0 subtable" ordfeminine
Position2: "'cpsp' Capital Spacing lookup 0 subtable" dx=5 dy=0 dh=10 dv=0
EndChar

StartChar: Aacute
Encoding: 193 193 2
Width: 709
GlyphClass: 2
Flags: MW
HStem: 122 145<285 407 285 455 237 407> 122 564<237 455 237 237> 475 211<344 344 344 349> 751 145<392 419 301 543>
VStem: -5 719<0 0>
LayerCount: 2
Fore
SplineSet
545 893 m 1x58
 419 751 l 1
 301 751 l 1
 392 896 l 1
 543 896 l 1
 545 893 l 1x58
714 0 m 1
 496 0 l 1
 455 122 l 1
 237 122 l 1
 197 0 l 1
 -5 0 l 1
 224 686 l 1
 485 686 l 1
 714 0 l 1
344 475 m 1xb8
 285 267 l 1
 407 267 l 1
 349 475 l 1
 344 475 l 1xb8
EndSplineSet
Position2: "'cpsp' Capital Spacing lookup 0 subtable" dx=5 dy=0 dh=10 dv=0
EndChar

StartChar: Abreve
Encoding: 258 258 3
Width: 709
GlyphClass: 2
Flags: MW
HStem: 122 145<285 407 285 455 237 407> 122 564<237 455 237 237> 475 211<344 344 344 349> 788 86<328.5 382 328.5 408.5>
VStem: -5 719<0 0> 163 96<906.5 912 906.5 912> 453 95<906.5 912>
LayerCount: 2
Fore
SplineSet
453 912 m 1x56
 548 912 l 1
 548 856 462 788 355 788 c 0
 248 788 163 856 163 912 c 1
 259 912 l 1
 259 901 302 874 355 874 c 0
 409 874 453 901 453 912 c 1x56
714 0 m 1
 496 0 l 1
 455 122 l 1
 237 122 l 1
 197 0 l 1
 -5 0 l 1
 224 686 l 1
 485 686 l 1
 714 0 l 1
344 475 m 1xb8
 285 267 l 1
 407 267 l 1
 349 475 l 1
 344 475 l 1xb8
EndSplineSet
EndChar

StartChar: Acircumflex
Encoding: 194 194 4
Width: 709
GlyphClass: 2
Flags: MW
HStem: 122 145<285 407 285 455 237 407> 122 564<237 455 237 237> 475 211<344 344 344 349> 751 145<146 413 146 413 285 552 285 422>
VStem: -5 719<0 0>
LayerCount: 2
Fore
SplineSet
552 751 m 1x58
 422 751 l 1
 348 828 l 1
 274 751 l 1
 146 751 l 1
 285 896 l 1
 413 896 l 1
 552 751 l 1x58
714 0 m 1
 496 0 l 1
 455 122 l 1
 237 122 l 1
 197 0 l 1
 -5 0 l 1
 224 686 l 1
 485 686 l 1
 714 0 l 1
344 475 m 1xb8
 285 267 l 1
 407 267 l 1
 349 475 l 1
 344 475 l 1xb8
EndSplineSet
Position2: "'cpsp' Capital Spacing lookup 0 subtable" dx=5 dy=0 dh=10 dv=0
EndChar

StartChar: Adieresis
Encoding: 196 196 5
Width: 709
GlyphClass: 2
Flags: MW
HStem: 122 145<285 407 285 455 237 407> 122 564<237 455 237 237> 475 211<344 344 344 349> 750 147<162 314 162 314 162 382 382 534>
VStem: 162 152<750 897 750 897> 382 152<750 897 750 897>
LayerCount: 2
Fore
SplineSet
314 750 m 1x5c
 162 750 l 1
 162 897 l 1
 314 897 l 1
 314 750 l 1x5c
534 750 m 1
 382 750 l 1
 382 897 l 1
 534 897 l 1
 534 750 l 1
714 0 m 1
 496 0 l 1
 455 122 l 1
 237 122 l 1
 197 0 l 1
 -5 0 l 1
 224 686 l 1
 485 686 l 1
 714 0 l 1
344 475 m 1xbc
 285 267 l 1
 407 267 l 1
 349 475 l 1
 344 475 l 1xbc
EndSplineSet
Position2: "'cpsp' Capital Spacing lookup 0 subtable" dx=5 dy=0 dh=10 dv=0
EndChar

StartChar: Agrave
Encoding: 192 192 6
Width: 709
GlyphClass: 2
Flags: MW
HStem: 122 145<285 407 285 455 237 407> 122 564<237 455 237 237> 475 211<344 344 344 349> 750 145<297 324 173 415 297 297>
VStem: -5 719<0 0>
LayerCount: 2
Fore
SplineSet
415 750 m 1x58
 297 750 l 1
 171 892 l 1
 173 895 l 1
 324 895 l 1
 415 750 l 1x58
714 0 m 1
 496 0 l 1
 455 122 l 1
 237 122 l 1
 197 0 l 1
 -5 0 l 1
 224 686 l 1
 485 686 l 1
 714 0 l 1
344 475 m 1xb8
 285 267 l 1
 407 267 l 1
 349 475 l 1
 344 475 l 1xb8
EndSplineSet
Position2: "'cpsp' Capital Spacing lookup 0 subtable" dx=5 dy=0 dh=10 dv=0
EndChar

StartChar: Amacron
Encoding: 256 256 7
Width: 709
GlyphClass: 2
Flags: MW
HStem: 122 145<285 407 285 455 237 407> 122 564<237 455 237 237> 475 211<344 344 344 349> 837 74<196 514 196 514>
VStem: 196 318<837 911 837 911>
LayerCount: 2
Fore
SplineSet
514 837 m 1x58
 196 837 l 1
 196 911 l 1
 514 911 l 1
 514 837 l 1x58
714 0 m 1
 496 0 l 1
 455 122 l 1
 237 122 l 1
 197 0 l 1
 -5 0 l 1
 224 686 l 1
 485 686 l 1
 714 0 l 1
344 475 m 1xb8
 285 267 l 1
 407 267 l 1
 349 475 l 1
 344 475 l 1xb8
EndSplineSet
EndChar

StartChar: Aogonek
Encoding: 260 260 8
Width: 709
GlyphClass: 2
Flags: MW
HStem: -143 53<625.5 630.5> 0 686<-5 485 -5 485 224 569 224 496 224 639 224 714> 122 145<285 407 285 455 237 407> 122 564<237 455 237 237> 475 211<344 349 344 344>
VStem: 515 77<-69.5 -55>
LayerCount: 2
Fore
SplineSet
703 -76 m 1x94
 716 -119 l 1
 684 -135 649 -143 612 -143 c 0
 566 -143 515 -126 515 -71 c 0
 515 -39 545 -16 569 0 c 1
 496 0 l 1
 455 122 l 1
 237 122 l 1
 197 0 l 1
 -5 0 l 1
 224 686 l 1
 485 686 l 1x94
 714 0 l 1
 639 0 l 1xc4
 620 -12 592 -29 592 -56 c 0
 592 -83 615 -90 636 -90 c 0
 659 -90 682 -84 703 -76 c 1x94
407 267 m 1xac
 349 475 l 1
 344 475 l 1
 285 267 l 1
 407 267 l 1xac
EndSplineSet
EndChar

StartChar: Aring
Encoding: 197 197 9
Width: 709
GlyphClass: 2
Flags: MW
HStem: 122 145<285 407 285 455 237 407> 122 564<237 455 237 237> 475 211<344 344 344 349> 736 65<344.5 364 344.5 382> 871 66<344 363.5>
VStem: 253 66<825.5 845 825.5 864> 389 66<827 846.5>
LayerCount: 2
Fore
SplineSet
354 937 m 0x5e
 409 937 455 892 455 836 c 0
 455 781 410 736 354 736 c 0
 299 736 253 779 253 836 c 0
 253 892 298 937 354 937 c 0x5e
354 871 m 0
 334 871 319 855 319 835 c 0
 319 816 335 801 354 801 c 0
 374 801 389 817 389 837 c 0
 389 856 373 871 354 871 c 0
714 0 m 1
 496 0 l 1
 455 122 l 1
 237 122 l 1
 197 0 l 1
 -5 0 l 1
 224 686 l 1
 485 686 l 1
 714 0 l 1
344 475 m 1xbe
 285 267 l 1
 407 267 l 1
 349 475 l 1
 344 475 l 1xbe
EndSplineSet
Position2: "'cpsp' Capital Spacing lookup 0 subtable" dx=5 dy=0 dh=10 dv=0
EndChar

StartChar: Atilde
Encoding: 195 195 10
Width: 709
GlyphClass: 2
Flags: MW
HStem: 122 145<285 407 285 455 237 407> 122 564<237 455 237 237> 475 211<344 344 344 349> 750 143<126 298 126 298 227.5 468.5>
VStem: -5 719<0 0>
LayerCount: 2
Fore
SplineSet
489 893 m 1x58
 570 893 l 1
 570 821 507 750 430 750 c 0
 397 750 369 760 339 770 c 2
 297 784 l 2
 284 788 270 790 257 790 c 0
 232 790 214 773 207 750 c 1
 126 750 l 1
 126 822 189 893 266 893 c 0
 330 893 386 853 439 853 c 0
 464 853 482 870 489 893 c 1x58
714 0 m 1
 496 0 l 1
 455 122 l 1
 237 122 l 1
 197 0 l 1
 -5 0 l 1
 224 686 l 1
 485 686 l 1
 714 0 l 1
344 475 m 1xb8
 285 267 l 1
 407 267 l 1
 349 475 l 1
 344 475 l 1xb8
EndSplineSet
Position2: "'cpsp' Capital Spacing lookup 0 subtable" dx=5 dy=0 dh=10 dv=0
EndChar

StartChar: AE
Encoding: 198 198 11
Width: 1011
GlyphClass: 2
Flags: MW
HStem: 0 164<674 963 674 983> 122 145<314 436 314 463 245 436> 275 153<652 952 652 652> 528 158<603 963 603 603>
VStem: -13 996<0 0>
LayerCount: 2
Fore
SplineSet
963 528 m 1xb8
 603 528 l 1
 622 428 l 1
 952 428 l 1
 952 275 l 1
 652 275 l 1
 674 164 l 1
 963 164 l 1
 983 0 l 1
 487 0 l 1xb8
 463 122 l 1
 245 122 l 1
 187 0 l 1
 -13 0 l 1x78
 312 686 l 1
 983 686 l 1
 963 528 l 1xb8
402 475 m 1
 314 267 l 1
 436 267 l 1x78
 407 475 l 1
 402 475 l 1
EndSplineSet
Position2: "'cpsp' Capital Spacing lookup 0 subtable" dx=5 dy=0 dh=10 dv=0
EndChar

StartChar: B
Encoding: 66 66 12
Width: 656
GlyphClass: 2
Flags: MW
HStem: 0 159<250 377 377 391 250 439> 277 146<250 365 250 365 365 377> 540 146<250 250 250 365>
VStem: 57 193<159 277 423 540> 415 198<473 490 490 504> 427 202<209 227 227 237.5 132.5 241>
LayerCount: 2
Fore
SplineSet
57 686 m 1xf8
 433 686 l 2
 533 686 613 611 613 518 c 0xf8
 613 417 559 377 498 358 c 1
 498 354 l 1
 569 338 629 292 629 183 c 0xf4
 629 82 544 0 439 0 c 2
 57 0 l 1
 57 686 l 1xf8
250 540 m 1
 250 423 l 1
 365 423 l 2
 393 423 415 445 415 473 c 2
 415 490 l 2
 415 518 393 540 365 540 c 2
 250 540 l 1
250 277 m 1
 250 159 l 1
 377 159 l 2
 405 159 427 181 427 209 c 2
 427 227 l 2
 427 255 405 277 377 277 c 2xf4
 250 277 l 1
EndSplineSet
Position2: "'cpsp' Capital Spacing lookup 0 subtable" dx=5 dy=0 dh=10 dv=0
EndChar

StartChar: C
Encoding: 67 67 13
Width: 683
GlyphClass: 2
Flags: MW
HStem: -10 157<261 371 357 371 371 377> 405 291<341 659 341 462> 540 156<341 357 357 362>
VStem: 31 226<290 396 396 440 219 486> 462 197<405 440 440 471.5>
AnchorPoint: "Bottom" 342 0 basechar 0
LayerCount: 2
Fore
SplineSet
341 696 m 2xb8
 369 696 l 2xb8
 532 696 659 600 659 405 c 1
 462 405 l 1xd8
 462 440 l 2
 462 503 418 540 362 540 c 2
 357 540 l 2
 301 540 257 496 257 440 c 2
 257 247 l 2
 257 191 301 147 357 147 c 2
 371 147 l 2
 427 147 471 183 471 247 c 2
 471 280 l 1
 659 280 l 1
 659 100 539 -10 377 -10 c 2
 349 -10 l 2
 173 -10 31 100 31 290 c 2
 31 396 l 2
 31 576 175 696 341 696 c 2xb8
EndSplineSet
Position2: "'cpsp' Capital Spacing lookup 0 subtable" dx=5 dy=0 dh=10 dv=0
EndChar

StartChar: Cacute
Encoding: 262 262 14
Width: 683
GlyphClass: 2
Flags: MW
HStem: -10 157<261 371 357 371 371 377> 405 291<341 659 341 462> 540 156<341 357 357 362> 750 145<361 388 270 512>
VStem: 31 226<290 396 396 440 219 486> 462 197<405 440 440 471.5>
AnchorPoint: "Bottom" 342 0 basechar 0
LayerCount: 2
Fore
SplineSet
514 892 m 1xbc
 388 750 l 1
 270 750 l 1
 361 895 l 1
 512 895 l 1
 514 892 l 1xbc
341 696 m 2
 369 696 l 2xbc
 532 696 659 600 659 405 c 1
 462 405 l 1xdc
 462 440 l 2
 462 503 418 540 362 540 c 2
 357 540 l 2
 301 540 257 496 257 440 c 2
 257 247 l 2
 257 191 301 147 357 147 c 2
 371 147 l 2
 427 147 471 183 471 247 c 2
 471 280 l 1
 659 280 l 1
 659 100 539 -10 377 -10 c 2
 349 -10 l 2
 173 -10 31 100 31 290 c 2
 31 396 l 2
 31 576 175 696 341 696 c 2
EndSplineSet
EndChar

StartChar: Ccaron
Encoding: 268 268 15
Width: 683
GlyphClass: 2
Flags: MW
HStem: -10 157<261 371 357 371 371 377> 405 291<341 659 341 462> 540 156<341 357 357 362> 750 145<139 406 139 278>
VStem: 31 226<290 396 396 440 219 486> 462 197<405 440 440 471.5>
AnchorPoint: "Bottom" 342 0 basechar 0
LayerCount: 2
Fore
SplineSet
406 750 m 1xbc
 278 750 l 1
 139 895 l 1
 269 895 l 1
 343 818 l 1
 417 895 l 1
 545 895 l 1
 406 750 l 1xbc
341 696 m 2
 369 696 l 2xbc
 532 696 659 600 659 405 c 1
 462 405 l 1xdc
 462 440 l 2
 462 503 418 540 362 540 c 2
 357 540 l 2
 301 540 257 496 257 440 c 2
 257 247 l 2
 257 191 301 147 357 147 c 2
 371 147 l 2
 427 147 471 183 471 247 c 2
 471 280 l 1
 659 280 l 1
 659 100 539 -10 377 -10 c 2
 349 -10 l 2
 173 -10 31 100 31 290 c 2
 31 396 l 2
 31 576 175 696 341 696 c 2
EndSplineSet
EndChar

StartChar: Ccedilla
Encoding: 199 199 16
Width: 683
GlyphClass: 2
Flags: MW
HStem: -197 58<329.5 356 322.5 375.5> -76 59<328 346 328 349> -10 157<261 371 357 371 371 377> 405 291<341 659 341 462> 540 156<341 357 357 362>
VStem: 31 226<290 396 396 440 219 486> 384 87<-119.5 -98> 462 197<405 440 440 471.5>
LayerCount: 2
Fore
SplineSet
341 696 m 2xcd
 369 696 l 2xcd
 532 696 659 600 659 405 c 1
 462 405 l 1xd5
 462 440 l 2
 462 503 418 540 362 540 c 2
 357 540 l 2
 301 540 257 496 257 440 c 2
 257 247 l 2
 257 191 301 147 357 147 c 2
 371 147 l 2
 427 147 471 183 471 247 c 2
 471 280 l 1
 659 280 l 1
 659 100 539 -10 377 -10 c 2
 349 -10 l 2xad
 173 -10 31 100 31 290 c 2
 31 396 l 2
 31 576 175 696 341 696 c 2xcd
328 -17 m 1xce
 349 -17 l 2
 408 -17 471 -34 471 -108 c 0
 471 -181 398 -197 353 -197 c 0
 306 -197 256 -185 227 -161 c 1
 259 -107 l 1
 275 -121 301 -139 344 -139 c 0
 368 -139 384 -131 384 -108 c 0
 384 -88 375 -76 346 -76 c 2
 328 -76 l 1
 328 -17 l 1xce
EndSplineSet
Position2: "'cpsp' Capital Spacing lookup 0 subtable" dx=5 dy=0 dh=10 dv=0
EndChar

StartChar: D
Encoding: 68 68 17
Width: 696
GlyphClass: 2
Flags: MW
HStem: 0 159<269 346 346 366> 530 156<269 269 269 346>
VStem: 57 212<159 530 159 686 159 686> 446 220<259 300 300 386 217 430 217 458>
LayerCount: 2
Fore
SplineSet
57 686 m 1
 366 686 l 2
 532 686 666 552 666 386 c 2
 666 300 l 2
 666 134 532 0 366 0 c 2
 57 0 l 1
 57 686 l 1
269 530 m 1
 269 159 l 1
 346 159 l 2
 402 159 446 203 446 259 c 2
 446 430 l 2
 446 486 402 530 346 530 c 2
 269 530 l 1
EndSplineSet
Position2: "'cpsp' Capital Spacing lookup 0 subtable" dx=5 dy=0 dh=10 dv=0
EndChar

StartChar: Eth
Encoding: 208 208 18
Width: 721
GlyphClass: 2
Flags: MW
HStem: 0 159<292 372 372 392> 297 94<7 83 7 83 292 371> 530 156<292 292 292 372>
VStem: 83 209<159 297 159 297 159 297 391 530> 472 218<259 300 300 386 217 430 217 458>
LayerCount: 2
Fore
SplineSet
83 686 m 1
 392 686 l 2
 558 686 690 552 690 386 c 2
 690 300 l 2
 690 134 558 0 392 0 c 2
 83 0 l 1
 83 297 l 1
 7 297 l 1
 7 391 l 1
 83 391 l 1
 83 686 l 1
292 530 m 1
 292 391 l 1
 371 391 l 1
 371 297 l 1
 292 297 l 1
 292 159 l 1
 372 159 l 2
 428 159 472 203 472 259 c 2
 472 430 l 2
 472 486 428 530 372 530 c 2
 292 530 l 1
EndSplineSet
Position2: "'cpsp' Capital Spacing lookup 0 subtable" dx=5 dy=0 dh=10 dv=0
EndChar

StartChar: Dcaron
Encoding: 270 270 19
Width: 696
GlyphClass: 2
Flags: MW
HStem: 0 159<269 346 346 366> 530 156<269 269 269 346> 750 145<145 412 145 284>
VStem: 57 212<159 530 159 686 159 686> 446 220<259 300 300 386 217 430 217 458>
LayerCount: 2
Fore
SplineSet
412 750 m 1
 284 750 l 1
 145 895 l 1
 275 895 l 1
 349 818 l 1
 423 895 l 1
 551 895 l 1
 412 750 l 1
57 686 m 1
 366 686 l 2
 532 686 666 552 666 386 c 2
 666 300 l 2
 666 134 532 0 366 0 c 2
 57 0 l 1
 57 686 l 1
269 530 m 1
 269 159 l 1
 346 159 l 2
 402 159 446 203 446 259 c 2
 446 430 l 2
 446 486 402 530 346 530 c 2
 269 530 l 1
EndSplineSet
EndChar

StartChar: Dcroat
Encoding: 272 272 20
Width: 721
GlyphClass: 2
Flags: MW
HStem: 0 159<292 372 372 392> 297 94<7 83 7 83 292 371> 530 156<292 292 292 372>
VStem: 83 209<159 297 159 297 159 297 391 530> 472 218<259 300 300 386 217 430 217 458>
LayerCount: 2
Fore
SplineSet
83 686 m 1
 392 686 l 2
 558 686 690 552 690 386 c 2
 690 300 l 2
 690 134 558 0 392 0 c 2
 83 0 l 1
 83 297 l 1
 7 297 l 1
 7 391 l 1
 83 391 l 1
 83 686 l 1
292 530 m 1
 292 391 l 1
 371 391 l 1
 371 297 l 1
 292 297 l 1
 292 159 l 1
 372 159 l 2
 428 159 472 203 472 259 c 2
 472 430 l 2
 472 486 428 530 372 530 c 2
 292 530 l 1
EndSplineSet
EndChar

StartChar: E
Encoding: 69 69 21
Width: 600
GlyphClass: 2
Flags: MW
HStem: 0 164<263 552 263 572> 275 153<263 541 263 541> 528 158<263 552 263 263>
VStem: 57 206<164 275 428 528>
AnchorPoint: "Bottom" 300 0 basechar 0
LayerCount: 2
Fore
SplineSet
552 528 m 1
 263 528 l 1
 263 428 l 1
 541 428 l 1
 541 275 l 1
 263 275 l 1
 263 164 l 1
 552 164 l 1
 572 0 l 1
 57 0 l 1
 57 686 l 1
 572 686 l 1
 552 528 l 1
EndSplineSet
Position2: "'cpsp' Capital Spacing lookup 0 subtable" dx=5 dy=0 dh=10 dv=0
EndChar

StartChar: Eacute
Encoding: 201 201 22
Width: 600
GlyphClass: 2
Flags: MW
HStem: 0 164<263 552 263 572> 275 153<263 541 263 541> 528 158<263 552 263 263> 750 145<341 368 250 492>
VStem: 57 206<164 275 428 528>
LayerCount: 2
Fore
SplineSet
494 892 m 1
 368 750 l 1
 250 750 l 1
 341 895 l 1
 492 895 l 1
 494 892 l 1
552 528 m 1
 263 528 l 1
 263 428 l 1
 541 428 l 1
 541 275 l 1
 263 275 l 1
 263 164 l 1
 552 164 l 1
 572 0 l 1
 57 0 l 1
 57 686 l 1
 572 686 l 1
 552 528 l 1
EndSplineSet
Position2: "'cpsp' Capital Spacing lookup 0 subtable" dx=5 dy=0 dh=10 dv=0
EndChar

StartChar: Ecaron
Encoding: 282 282 23
Width: 600
GlyphClass: 2
Flags: MW
HStem: 0 164<263 552 263 572> 275 153<263 541 263 541> 528 158<263 552 263 263> 750 145<97 364 97 236>
VStem: 57 206<164 275 428 528>
AnchorPoint: "Bottom" 300 0 basechar 0
LayerCount: 2
Fore
SplineSet
364 750 m 1
 236 750 l 1
 97 895 l 1
 227 895 l 1
 301 818 l 1
 375 895 l 1
 503 895 l 1
 364 750 l 1
552 528 m 1
 263 528 l 1
 263 428 l 1
 541 428 l 1
 541 275 l 1
 263 275 l 1
 263 164 l 1
 552 164 l 1
 572 0 l 1
 57 0 l 1
 57 686 l 1
 572 686 l 1
 552 528 l 1
EndSplineSet
EndChar

StartChar: Ecircumflex
Encoding: 202 202 24
Width: 600
GlyphClass: 2
Flags: MW
HStem: 0 164<263 552 263 572> 275 153<263 541 263 541> 528 158<263 552 263 263> 751 145<112 379 112 379 251 518 251 388>
VStem: 57 206<164 275 428 528>
LayerCount: 2
Fore
SplineSet
518 751 m 1
 388 751 l 1
 314 828 l 1
 240 751 l 1
 112 751 l 1
 251 896 l 1
 379 896 l 1
 518 751 l 1
552 528 m 1
 263 528 l 1
 263 428 l 1
 541 428 l 1
 541 275 l 1
 263 275 l 1
 263 164 l 1
 552 164 l 1
 572 0 l 1
 57 0 l 1
 57 686 l 1
 572 686 l 1
 552 528 l 1
EndSplineSet
Position2: "'cpsp' Capital Spacing lookup 0 subtable" dx=5 dy=0 dh=10 dv=0
EndChar

StartChar: Edieresis
Encoding: 203 203 25
Width: 600
GlyphClass: 2
Flags: MW
HStem: 0 164<263 552 263 572> 275 153<263 541 263 541> 528 158<263 552 263 263> 751 147<125 277 125 277 125 345 345 497>
VStem: 57 206<164 275 428 528> 125 152<751 898 751 898> 345 152<751 898 751 898>
LayerCount: 2
Fore
SplineSet
277 751 m 1xf6
 125 751 l 1
 125 898 l 1
 277 898 l 1
 277 751 l 1xf6
497 751 m 1
 345 751 l 1
 345 898 l 1
 497 898 l 1
 497 751 l 1
552 528 m 1
 263 528 l 1
 263 428 l 1
 541 428 l 1
 541 275 l 1
 263 275 l 1
 263 164 l 1
 552 164 l 1
 572 0 l 1
 57 0 l 1
 57 686 l 1xfa
 572 686 l 1
 552 528 l 1
EndSplineSet
Position2: "'cpsp' Capital Spacing lookup 0 subtable" dx=5 dy=0 dh=10 dv=0
EndChar

StartChar: Edotaccent
Encoding: 278 278 26
Width: 600
GlyphClass: 2
Flags: MW
HStem: 0 164<263 552 263 572> 275 153<263 541 263 541> 528 158<263 552 263 263> 779 132<281.5 317.5>
VStem: 57 206<164 275 428 528> 234 132<827 863 825.5 863.5>
AnchorPoint: "Bottom" 300 0 basechar 0
LayerCount: 2
Fore
SplineSet
300 911 m 0xf4
 337 911 366 881 366 845 c 0
 366 806 336 779 299 779 c 0
 264 779 234 809 234 845 c 0
 234 882 263 911 300 911 c 0xf4
552 528 m 1
 263 528 l 1
 263 428 l 1
 541 428 l 1
 541 275 l 1
 263 275 l 1
 263 164 l 1
 552 164 l 1
 572 0 l 1
 57 0 l 1
 57 686 l 1xe8
 572 686 l 1
 552 528 l 1
EndSplineSet
EndChar

StartChar: Egrave
Encoding: 200 200 27
Width: 600
GlyphClass: 2
Flags: MW
HStem: 0 164<263 552 263 572> 275 153<263 541 263 541> 528 158<263 552 263 263> 751 145<273 300 149 391 273 273>
VStem: 57 206<164 275 428 528>
LayerCount: 2
Fore
SplineSet
391 751 m 1
 273 751 l 1
 147 893 l 1
 149 896 l 1
 300 896 l 1
 391 751 l 1
552 528 m 1
 263 528 l 1
 263 428 l 1
 541 428 l 1
 541 275 l 1
 263 275 l 1
 263 164 l 1
 552 164 l 1
 572 0 l 1
 57 0 l 1
 57 686 l 1
 572 686 l 1
 552 528 l 1
EndSplineSet
Position2: "'cpsp' Capital Spacing lookup 0 subtable" dx=5 dy=0 dh=10 dv=0
EndChar

StartChar: Emacron
Encoding: 274 274 28
Width: 600
GlyphClass: 2
Flags: MW
HStem: 0 164<263 552 263 572> 275 153<263 541 263 541> 528 158<263 552 263 263> 837 74<141 459 141 459>
VStem: 57 206<164 275 428 528> 141 318<837 911 837 911>
AnchorPoint: "Bottom" 300 0 basechar 0
LayerCount: 2
Fore
SplineSet
459 837 m 1xf4
 141 837 l 1
 141 911 l 1
 459 911 l 1
 459 837 l 1xf4
552 528 m 1
 263 528 l 1
 263 428 l 1
 541 428 l 1
 541 275 l 1
 263 275 l 1
 263 164 l 1
 552 164 l 1
 572 0 l 1
 57 0 l 1
 57 686 l 1xf8
 572 686 l 1
 552 528 l 1
EndSplineSet
EndChar

StartChar: Eogonek
Encoding: 280 280 29
Width: 600
GlyphClass: 2
Flags: MW
HStem: -143 53<527.5 532.5> 0 164<263 471 541 541 541 552 263 572> 275 153<263 541 263 541> 528 158<263 552 263 263>
VStem: 57 206<164 275 428 528> 417 77<-69.5 -55>
AnchorPoint: "Bottom" 300 0 basechar 0
LayerCount: 2
Fore
SplineSet
605 -76 m 1
 618 -119 l 1
 586 -135 551 -143 514 -143 c 0
 468 -143 417 -126 417 -71 c 0
 417 -39 447 -16 471 0 c 1
 57 0 l 1
 57 686 l 1
 572 686 l 1
 552 528 l 1
 263 528 l 1
 263 428 l 1
 541 428 l 1
 541 275 l 1
 263 275 l 1
 263 164 l 1
 552 164 l 1
 572 0 l 1
 541 0 l 1
 522 -12 494 -29 494 -56 c 0
 494 -83 517 -90 538 -90 c 0
 561 -90 584 -84 605 -76 c 1
EndSplineSet
EndChar

StartChar: F
Encoding: 70 70 30
Width: 562
GlyphClass: 2
Flags: MW
HStem: 257 154<262 514 262 514> 523 163<262 533 262 262>
VStem: 57 205<0 257 411 523>
LayerCount: 2
Fore
SplineSet
533 523 m 1
 262 523 l 1
 262 411 l 1
 514 411 l 1
 514 257 l 1
 262 257 l 1
 262 0 l 1
 57 0 l 1
 57 686 l 1
 553 686 l 1
 533 523 l 1
EndSplineSet
Position2: "'cpsp' Capital Spacing lookup 0 subtable" dx=5 dy=0 dh=10 dv=0
EndChar

StartChar: G
Encoding: 71 71 31
Width: 699
GlyphClass: 2
Flags: MW
HStem: -10 157<234.5 375 317 375> 248 136<346 462 346 656> 439 257<350 656 350 462> 540 156<350 357 357 362>
VStem: 31 226<290 396 396 440 219 479> 462 194<216.5 248 439 446>
AnchorPoint: "Bottom" 350 0 basechar 0
LayerCount: 2
Fore
SplineSet
350 696 m 2xdc
 378 696 l 2xdc
 527 696 656 593 656 446 c 2
 656 439 l 1
 462 439 l 1xec
 462 510 417 540 362 540 c 2
 357 540 l 2
 301 540 257 496 257 440 c 2
 257 247 l 2
 257 191 301 147 357 147 c 2
 375 147 l 2
 431 147 462 185 462 248 c 1
 346 248 l 1
 346 384 l 1
 656 384 l 1
 656 144 l 2
 656 101 656 65 659 40 c 2
 663 0 l 1
 551 0 l 1
 523 73 l 1
 481 25 401 -10 327 -10 c 2
 317 -10 l 2
 152 -10 31 124 31 290 c 2
 31 396 l 2
 31 562 162 696 350 696 c 2xdc
EndSplineSet
Position2: "'cpsp' Capital Spacing lookup 0 subtable" dx=5 dy=0 dh=10 dv=0
EndChar

StartChar: Gbreve
Encoding: 286 286 32
Width: 699
GlyphClass: 2
Flags: MW
HStem: -10 157<234.5 375 317 375> 248 136<346 462 346 656> 439 257<350 656 350 462> 439 473<462 543 158 656 462 462> 540 156<350 357 357 362> 788 86<323.5 377 323.5 403.5>
VStem: 31 226<290 396 396 440 219 479> 158 96<906.5 912 906.5 912> 448 95<906.5 912> 462 194<216.5 248 439 446>
AnchorPoint: "Bottom" 350 0 basechar 0
LayerCount: 2
Fore
SplineSet
448 912 m 1xd280
 543 912 l 1
 543 856 457 788 350 788 c 0
 243 788 158 856 158 912 c 1
 254 912 l 1
 254 901 297 874 350 874 c 0xcd80
 404 874 448 901 448 912 c 1xd280
350 696 m 2
 378 696 l 2xce40
 527 696 656 593 656 446 c 2
 656 439 l 1
 462 439 l 1xe640
 462 510 417 540 362 540 c 2
 357 540 l 2
 301 540 257 496 257 440 c 2
 257 247 l 2
 257 191 301 147 357 147 c 2
 375 147 l 2
 431 147 462 185 462 248 c 1
 346 248 l 1
 346 384 l 1
 656 384 l 1
 656 144 l 2
 656 101 656 65 659 40 c 2
 663 0 l 1
 551 0 l 1
 523 73 l 1
 481 25 401 -10 327 -10 c 2
 317 -10 l 2
 152 -10 31 124 31 290 c 2
 31 396 l 2xce40
 31 562 162 696 350 696 c 2
EndSplineSet
EndChar

StartChar: Gcommaaccent
Encoding: 290 290 33
Width: 699
GlyphClass: 2
Flags: MW
HStem: -171 151<254 339 254 445> -10 157<234.5 375 317 375> 248 136<346 462 346 656> 439 257<350 656 350 462> 540 156<350 357 357 362>
VStem: 31 226<290 396 396 440 219 479> 254 191<-139 -139 -139 -20 -139 -20> 462 194<216.5 248 439 446>
AnchorPoint: "Bottom" 350 0 basechar 0
LayerCount: 2
Fore
SplineSet
350 696 m 2xad
 378 696 l 2xad
 527 696 656 593 656 446 c 2
 656 439 l 1
 462 439 l 1xb5
 462 510 417 540 362 540 c 2
 357 540 l 2
 301 540 257 496 257 440 c 2
 257 247 l 2
 257 191 301 147 357 147 c 2
 375 147 l 2
 431 147 462 185 462 248 c 1
 346 248 l 1
 346 384 l 1
 656 384 l 1
 656 144 l 2
 656 101 656 65 659 40 c 2
 663 0 l 1
 551 0 l 1
 523 73 l 1
 481 25 401 -10 327 -10 c 2
 317 -10 l 2xed
 152 -10 31 124 31 290 c 2
 31 396 l 2
 31 562 162 696 350 696 c 2xad
445 -139 m 1xab
 417 -250 l 1
 323 -250 l 1
 339 -171 l 1
 254 -171 l 1
 254 -20 l 1
 445 -20 l 1
 445 -139 l 1xab
EndSplineSet
EndChar

StartChar: H
Encoding: 72 72 34
Width: 697
GlyphClass: 2
Flags: MW
HStem: 267 166<268 429 267 430 268 268> 267 419<429 430 57 268>
VStem: 57 210<433 686 433 686 433 686> 430 210<0 267 267 267>
LayerCount: 2
Fore
SplineSet
640 0 m 1xb0
 430 0 l 1xb0
 430 267 l 1
 268 267 l 1x70
 268 0 l 1
 57 0 l 1xb0
 57 686 l 1
 267 686 l 1x70
 267 433 l 1
 429 433 l 1xb0
 429 686 l 1
 640 686 l 1x70
 640 0 l 1xb0
EndSplineSet
Position2: "'cpsp' Capital Spacing lookup 0 subtable" dx=5 dy=0 dh=10 dv=0
EndChar

StartChar: I
Encoding: 73 73 35
Width: 446
GlyphClass: 2
Flags: MW
HStem: 0 148<36 117 329 410 36 117> 539 147<36 117 36 410 329 410 329 329>
VStem: 117 212<148 539 148 539>
LayerCount: 2
Fore
SplineSet
410 539 m 1
 329 539 l 1
 329 148 l 1
 410 148 l 1
 410 0 l 1
 36 0 l 1
 36 148 l 1
 117 148 l 1
 117 539 l 1
 36 539 l 1
 36 686 l 1
 410 686 l 1
 410 539 l 1
EndSplineSet
Position2: "'cpsp' Capital Spacing lookup 0 subtable" dx=5 dy=0 dh=10 dv=0
EndChar

StartChar: Iacute
Encoding: 205 205 36
Width: 446
GlyphClass: 2
Flags: MW
HStem: 0 148<36 117 329 410 36 117> 539 147<36 117 36 410 329 410 329 329> 750 145<253 280 162 404>
VStem: 117 212<148 539 148 539>
LayerCount: 2
Fore
SplineSet
406 892 m 1
 280 750 l 1
 162 750 l 1
 253 895 l 1
 404 895 l 1
 406 892 l 1
410 539 m 1
 329 539 l 1
 329 148 l 1
 410 148 l 1
 410 0 l 1
 36 0 l 1
 36 148 l 1
 117 148 l 1
 117 539 l 1
 36 539 l 1
 36 686 l 1
 410 686 l 1
 410 539 l 1
EndSplineSet
Position2: "'cpsp' Capital Spacing lookup 0 subtable" dx=5 dy=0 dh=10 dv=0
EndChar

StartChar: Icircumflex
Encoding: 206 206 37
Width: 446
GlyphClass: 2
Flags: MW
HStem: 0 148<36 117 329 410 36 117> 539 147<36 117 36 410 329 410 329 329> 750 145<21 288 21 288 160 427 160 297>
VStem: 117 212<148 539 148 539>
LayerCount: 2
Fore
SplineSet
427 750 m 1
 297 750 l 1
 223 827 l 1
 149 750 l 1
 21 750 l 1
 160 895 l 1
 288 895 l 1
 427 750 l 1
410 539 m 1
 329 539 l 1
 329 148 l 1
 410 148 l 1
 410 0 l 1
 36 0 l 1
 36 148 l 1
 117 148 l 1
 117 539 l 1
 36 539 l 1
 36 686 l 1
 410 686 l 1
 410 539 l 1
EndSplineSet
Position2: "'cpsp' Capital Spacing lookup 0 subtable" dx=5 dy=0 dh=10 dv=0
EndChar

StartChar: Idieresis
Encoding: 207 207 38
Width: 446
GlyphClass: 2
Flags: MW
HStem: 0 148<36 117 329 410 36 117> 539 147<36 117 36 410 329 410 329 329> 750 147<37 189 37 189 37 257 257 409>
VStem: 37 152<750 897 750 897> 117 212<148 539 148 539> 257 152<750 897 750 897>
LayerCount: 2
Fore
SplineSet
189 750 m 1xf4
 37 750 l 1
 37 897 l 1
 189 897 l 1
 189 750 l 1xf4
409 750 m 1
 257 750 l 1
 257 897 l 1
 409 897 l 1
 409 750 l 1
410 539 m 1
 329 539 l 1
 329 148 l 1
 410 148 l 1
 410 0 l 1
 36 0 l 1
 36 148 l 1
 117 148 l 1
 117 539 l 1xe8
 36 539 l 1
 36 686 l 1
 410 686 l 1
 410 539 l 1
EndSplineSet
Position2: "'cpsp' Capital Spacing lookup 0 subtable" dx=5 dy=0 dh=10 dv=0
EndChar

StartChar: Idotaccent
Encoding: 304 304 39
Width: 446
GlyphClass: 2
Flags: MW
HStem: 0 148<36 117 329 410 36 117> 539 147<36 117 36 410 329 410 329 329> 779 132<204.5 240.5>
VStem: 117 212<148 539 148 539> 157 132<827 863 825.5 863.5>
LayerCount: 2
Fore
SplineSet
223 911 m 0xe8
 260 911 289 881 289 845 c 0
 289 806 259 779 222 779 c 0
 187 779 157 809 157 845 c 0
 157 882 186 911 223 911 c 0xe8
410 539 m 1
 329 539 l 1
 329 148 l 1
 410 148 l 1
 410 0 l 1
 36 0 l 1
 36 148 l 1
 117 148 l 1
 117 539 l 1
 36 539 l 1
 36 686 l 1xd0
 410 686 l 1
 410 539 l 1
EndSplineSet
EndChar

StartChar: Igrave
Encoding: 204 204 40
Width: 446
GlyphClass: 2
Flags: MW
HStem: 0 148<36 117 329 410 36 117> 539 147<36 117 36 410 329 410 329 329> 750 145<163 190 39 281 163 163>
VStem: 117 212<148 539 148 539>
LayerCount: 2
Fore
SplineSet
281 750 m 1
 163 750 l 1
 37 892 l 1
 39 895 l 1
 190 895 l 1
 281 750 l 1
410 539 m 1
 329 539 l 1
 329 148 l 1
 410 148 l 1
 410 0 l 1
 36 0 l 1
 36 148 l 1
 117 148 l 1
 117 539 l 1
 36 539 l 1
 36 686 l 1
 410 686 l 1
 410 539 l 1
EndSplineSet
Position2: "'cpsp' Capital Spacing lookup 0 subtable" dx=5 dy=0 dh=10 dv=0
EndChar

StartChar: Imacron
Encoding: 298 298 41
Width: 446
GlyphClass: 2
Flags: MW
HStem: 0 148<36 117 329 410 36 117> 539 147<36 117 36 410 329 410 329 329> 837 74<64 382 64 382>
VStem: 64 318<837 911 837 911> 117 212<148 539 148 539>
LayerCount: 2
Fore
SplineSet
382 837 m 1xf0
 64 837 l 1
 64 911 l 1
 382 911 l 1
 382 837 l 1xf0
410 539 m 1
 329 539 l 1
 329 148 l 1
 410 148 l 1
 410 0 l 1
 36 0 l 1
 36 148 l 1
 117 148 l 1
 117 539 l 1
 36 539 l 1
 36 686 l 1xe8
 410 686 l 1
 410 539 l 1
EndSplineSet
EndChar

StartChar: Iogonek
Encoding: 302 302 42
Width: 446
GlyphClass: 2
Flags: MW
HStem: -143 53<388.5 393.5> 0 148<36 117 329 332 36 117 402 402 402 410> 539 147<36 117 36 410 329 329 329 410>
VStem: 117 212<148 539 148 539> 278 77<-69.5 -55>
LayerCount: 2
Fore
SplineSet
466 -76 m 1xf0
 479 -119 l 1
 447 -135 412 -143 375 -143 c 0
 329 -143 278 -126 278 -71 c 0
 278 -39 308 -16 332 0 c 1xe8
 36 0 l 1
 36 148 l 1
 117 148 l 1
 117 539 l 1
 36 539 l 1
 36 686 l 1
 410 686 l 1
 410 539 l 1
 329 539 l 1
 329 148 l 1xf0
 410 148 l 1
 410 0 l 1
 402 0 l 1
 383 -12 355 -29 355 -56 c 0
 355 -83 378 -90 399 -90 c 0xe8
 422 -90 445 -84 466 -76 c 1xf0
EndSplineSet
EndChar

StartChar: J
Encoding: 74 74 43
Width: 545
GlyphClass: 2
Flags: MW
HStem: -10 258<163.5 204 11 231 11 262> 666 20G<287 492 492 492>
VStem: 11 193<180 186 186 248 172 248> 287 205<186 686>
LayerCount: 2
Fore
SplineSet
492 686 m 1
 492 180 l 2
 492 55 396 -10 262 -10 c 2
 231 -10 l 2
 96 -10 11 57 11 180 c 2
 11 248 l 1
 204 248 l 1
 204 186 l 2
 204 158 222 140 245 140 c 0
 268 140 287 158 287 186 c 2
 287 686 l 1
 492 686 l 1
EndSplineSet
Position2: "'cpsp' Capital Spacing lookup 0 subtable" dx=5 dy=0 dh=10 dv=0
EndChar

StartChar: K
Encoding: 75 75 44
Width: 685
GlyphClass: 2
Flags: MW
HStem: 0 686<57 261 57 261 460 689 57 695 460 460>
VStem: 57 204<0 152 415 686>
AnchorPoint: "Bottom" 343 0 basechar 0
LayerCount: 2
Fore
SplineSet
480 411 m 1
 695 0 l 1
 460 0 l 1
 341 248 l 1
 261 152 l 1
 261 0 l 1
 57 0 l 1
 57 686 l 1
 261 686 l 1
 261 415 l 1
 457 686 l 1
 689 686 l 1
 480 411 l 1
EndSplineSet
Position2: "'cpsp' Capital Spacing lookup 0 subtable" dx=5 dy=0 dh=10 dv=0
EndChar

StartChar: Kcommaaccent
Encoding: 310 310 45
Width: 685
GlyphClass: 2
Flags: MW
HStem: -171 151<247 332 247 438> 0 686<57 261 57 261 460 689 57 695 460 460>
VStem: 57 204<0 152 415 686> 247 14
AnchorPoint: "Bottom" 343 0 basechar 0
LayerCount: 2
Fore
SplineSet
480 411 m 1x50
 695 0 l 1
 460 0 l 1
 341 248 l 1
 261 152 l 1
 261 0 l 1x50
 57 0 l 1
 57 686 l 1
 261 686 l 1
 261 415 l 1x60
 457 686 l 1
 689 686 l 1
 480 411 l 1x50
438 -139 m 1
 410 -250 l 1
 316 -250 l 1
 332 -171 l 1
 247 -171 l 1
 247 -20 l 1
 438 -20 l 1xd0
 438 -139 l 1
EndSplineSet
EndChar

StartChar: L
Encoding: 76 76 46
Width: 544
GlyphClass: 2
Flags: MW
HStem: 0 168<269 518 269 538> 0 686<57 269 57 538 57 269>
VStem: 57 212<168 168 168 686>
AnchorPoint: "Bottom" 272 0 basechar 0
LayerCount: 2
Fore
SplineSet
269 168 m 1xa0
 518 168 l 1xa0
 538 0 l 1
 57 0 l 1
 57 686 l 1
 269 686 l 1x60
 269 168 l 1xa0
EndSplineSet
Position2: "'cpsp' Capital Spacing lookup 0 subtable" dx=5 dy=0 dh=10 dv=0
EndChar

StartChar: Lacute
Encoding: 313 313 47
Width: 544
GlyphClass: 2
Flags: MW
HStem: 0 168<269 518 269 538> 0 686<57 269 57 538 57 269> 750 145<291 318 200 442>
VStem: 57 212<168 168 168 686>
AnchorPoint: "Bottom" 272 0 basechar 0
LayerCount: 2
Fore
SplineSet
444 892 m 1x70
 318 750 l 1
 200 750 l 1
 291 895 l 1
 442 895 l 1
 444 892 l 1x70
269 168 m 1xb0
 518 168 l 1xb0
 538 0 l 1
 57 0 l 1
 57 686 l 1
 269 686 l 1x70
 269 168 l 1xb0
EndSplineSet
EndChar

StartChar: Lcaron
Encoding: 317 317 48
Width: 544
GlyphClass: 2
Flags: MW
HStem: 0 168<269 518 269 538> 338 348<394 488 394 394> 503 183<347 431 57 347>
VStem: 57 212<168 168 168 686> 347 191<525 686>
AnchorPoint: "Bottom" 272 0 basechar 0
LayerCount: 2
Fore
SplineSet
269 168 m 1xb8
 518 168 l 1
 538 0 l 1
 57 0 l 1
 57 686 l 1
 269 686 l 1
 269 168 l 1xb8
538 525 m 1
 488 338 l 1
 394 338 l 1xd8
 431 503 l 1
 347 503 l 1
 347 686 l 1
 538 686 l 1
 538 525 l 1
EndSplineSet
EndChar

StartChar: Lcommaaccent
Encoding: 315 315 49
Width: 544
GlyphClass: 2
Flags: MW
HStem: -171 151<176 261 176 367> 0 168<269 518 269 538> 0 686<57 269 57 538 57 269>
VStem: 57 212<168 168 168 686> 176 191<-139 -139 -139 -20 -139 -20>
AnchorPoint: "Bottom" 272 0 basechar 0
LayerCount: 2
Fore
SplineSet
269 168 m 1x50
 518 168 l 1x48
 538 0 l 1
 57 0 l 1
 57 686 l 1
 269 686 l 1x30
 269 168 l 1x50
367 -139 m 1
 339 -250 l 1
 245 -250 l 1
 261 -171 l 1
 176 -171 l 1
 176 -20 l 1
 367 -20 l 1xa8
 367 -139 l 1
EndSplineSet
EndChar

StartChar: Lslash
Encoding: 321 321 50
Width: 562
GlyphClass: 2
Flags: MW
HStem: 0 168<287 526 287 556> 0 686<75 287 75 556 75 287>
VStem: 75 212<168 288 288 288 393 394 499 686>
LayerCount: 2
Fore
SplineSet
287 499 m 1x60
 378 544 l 1
 378 439 l 1
 287 394 l 1
 287 168 l 1
 526 168 l 1xa0
 556 0 l 1
 75 0 l 1
 75 288 l 1
 9 255 l 1
 9 360 l 1
 75 393 l 1
 75 686 l 1
 287 686 l 1
 287 499 l 1x60
EndSplineSet
Position2: "'cpsp' Capital Spacing lookup 0 subtable" dx=5 dy=0 dh=10 dv=0
EndChar

StartChar: M
Encoding: 77 77 51
Width: 1004
GlyphClass: 2
Flags: MW
HStem: 0 320<57 504 500 504 500 613 372 504 500 947 500 737> 0 686<57 248 57 401 372 401 601 613 372 372 737 947 737 737> 440 246<248 253 248 248 733 737 733 733>
VStem: 57 191<0 440 0 686> 737 210<0 440 440 440>
LayerCount: 2
Fore
SplineSet
947 0 m 1x58
 737 0 l 1x58
 737 440 l 1
 733 440 l 1x38
 613 0 l 1
 372 0 l 1x58
 253 440 l 1
 248 440 l 1x38
 248 0 l 1
 57 0 l 1
 57 686 l 1
 401 686 l 1x58
 500 320 l 1
 504 320 l 1x98
 601 686 l 1
 947 686 l 1
 947 0 l 1x58
EndSplineSet
Position2: "'cpsp' Capital Spacing lookup 0 subtable" dx=5 dy=0 dh=10 dv=0
EndChar

StartChar: N
Encoding: 78 78 52
Width: 696
GlyphClass: 2
Flags: MW
HStem: 0 686<57 233 57 250 57 233 459 639 459 459>
VStem: 57 193<0 304 0 686> 445 194<375 686>
AnchorPoint: "Bottom" 348 0 basechar 0
LayerCount: 2
Fore
SplineSet
639 0 m 1
 459 0 l 1
 253 297 l 1
 250 304 l 1
 250 0 l 1
 57 0 l 1
 57 686 l 1
 233 686 l 1
 443 382 l 1
 445 375 l 1
 445 686 l 1
 639 686 l 1
 639 0 l 1
EndSplineSet
Position2: "'cpsp' Capital Spacing lookup 0 subtable" dx=5 dy=0 dh=10 dv=0
EndChar

StartChar: Nacute
Encoding: 323 323 53
Width: 696
GlyphClass: 2
Flags: MW
HStem: 0 686<57 233 57 250 57 233 459 639 459 459> 750 145<367 394 276 518>
VStem: 57 193<0 304 0 686> 445 194<375 686>
AnchorPoint: "Bottom" 348 0 basechar 0
LayerCount: 2
Fore
SplineSet
520 892 m 1
 394 750 l 1
 276 750 l 1
 367 895 l 1
 518 895 l 1
 520 892 l 1
639 0 m 1
 459 0 l 1
 253 297 l 1
 250 304 l 1
 250 0 l 1
 57 0 l 1
 57 686 l 1
 233 686 l 1
 443 382 l 1
 445 375 l 1
 445 686 l 1
 639 686 l 1
 639 0 l 1
EndSplineSet
EndChar

StartChar: Ncaron
Encoding: 327 327 54
Width: 696
GlyphClass: 2
Flags: MW
HStem: 0 686<57 233 57 250 57 233 459 639 459 459> 750 145<145 412 145 284>
VStem: 57 193<0 304 0 686> 445 194<375 686>
AnchorPoint: "Bottom" 348 0 basechar 0
LayerCount: 2
Fore
SplineSet
412 750 m 1
 284 750 l 1
 145 895 l 1
 275 895 l 1
 349 818 l 1
 423 895 l 1
 551 895 l 1
 412 750 l 1
639 0 m 1
 459 0 l 1
 253 297 l 1
 250 304 l 1
 250 0 l 1
 57 0 l 1
 57 686 l 1
 233 686 l 1
 443 382 l 1
 445 375 l 1
 445 686 l 1
 639 686 l 1
 639 0 l 1
EndSplineSet
EndChar

StartChar: Ncommaaccent
Encoding: 325 325 55
Width: 696
GlyphClass: 2
Flags: MW
HStem: -171 151<252 337 252 443> 0 686<57 233 57 250 57 233 459 639 459 459>
VStem: 57 193<0 304 0 686> 252 191<-139 -139 -139 -20 -139 -20> 445 194<375 686>
AnchorPoint: "Bottom" 348 0 basechar 0
LayerCount: 2
Fore
SplineSet
639 0 m 1
 459 0 l 1
 253 297 l 1
 250 304 l 1
 250 0 l 1
 57 0 l 1
 57 686 l 1
 233 686 l 1
 443 382 l 1
 445 375 l 1
 445 686 l 1
 639 686 l 1
 639 0 l 1
443 -139 m 1xd0
 415 -250 l 1
 321 -250 l 1
 337 -171 l 1
 252 -171 l 1
 252 -20 l 1
 443 -20 l 1
 443 -139 l 1xd0
EndSplineSet
EndChar

StartChar: Ntilde
Encoding: 209 209 56
Width: 696
GlyphClass: 2
Flags: MW
HStem: 0 686<57 233 57 250 57 233 459 639 459 459> 750 143<130 302 130 302 231.5 472.5>
VStem: 57 193<0 304 0 686> 445 194<375 686>
LayerCount: 2
Fore
SplineSet
493 893 m 1
 574 893 l 1
 574 821 511 750 434 750 c 0
 401 750 373 760 344 770 c 2
 302 784 l 2
 288 788 274 789 261 790 c 0
 236 790 218 773 211 750 c 1
 130 750 l 1
 130 822 193 893 270 893 c 0
 334 893 390 853 443 853 c 0
 468 853 486 870 493 893 c 1
639 0 m 1
 459 0 l 1
 253 297 l 1
 250 304 l 1
 250 0 l 1
 57 0 l 1
 57 686 l 1
 233 686 l 1
 443 382 l 1
 445 375 l 1
 445 686 l 1
 639 686 l 1
 639 0 l 1
EndSplineSet
Position2: "'cpsp' Capital Spacing lookup 0 subtable" dx=5 dy=0 dh=10 dv=0
EndChar

StartChar: O
Encoding: 79 79 57
Width: 718
GlyphClass: 2
Flags: MW
HStem: -10 157<248 362 357 362 362 387> 540 154<331 357 357 362>
VStem: 31 226<290 394 394 440 219 477> 462 225<247 290 290 394 207 440 207 468>
LayerCount: 2
Fore
SplineSet
331 694 m 2
 387 694 l 2
 553 694 687 560 687 394 c 2
 687 290 l 2
 687 124 553 -10 387 -10 c 2
 331 -10 l 2
 165 -10 31 124 31 290 c 2
 31 394 l 2
 31 560 165 694 331 694 c 2
362 540 m 2
 357 540 l 2
 301 540 257 496 257 440 c 2
 257 247 l 2
 257 191 301 147 357 147 c 2
 362 147 l 2
 418 147 462 191 462 247 c 2
 462 440 l 2
 462 496 418 540 362 540 c 2
EndSplineSet
Substitution2: "Single Substitution lookup 5 subtable" ordmasculine
Substitution2: "'aalt' Access All Alternates lookup 0 subtable" ordmasculine
Position2: "'cpsp' Capital Spacing lookup 0 subtable" dx=5 dy=0 dh=10 dv=0
EndChar

StartChar: Oacute
Encoding: 211 211 58
Width: 718
GlyphClass: 2
Flags: MW
HStem: -10 157<248 362 357 362 362 387> 540 154<331 357 357 362> 750 145<388 415 297 539>
VStem: 31 226<290 394 394 440 219 477> 462 225<247 290 290 394 207 440 207 468>
LayerCount: 2
Fore
SplineSet
541 892 m 1
 415 750 l 1
 297 750 l 1
 388 895 l 1
 539 895 l 1
 541 892 l 1
331 694 m 2
 387 694 l 2
 553 694 687 560 687 394 c 2
 687 290 l 2
 687 124 553 -10 387 -10 c 2
 331 -10 l 2
 165 -10 31 124 31 290 c 2
 31 394 l 2
 31 560 165 694 331 694 c 2
362 540 m 2
 357 540 l 2
 301 540 257 496 257 440 c 2
 257 247 l 2
 257 191 301 147 357 147 c 2
 362 147 l 2
 418 147 462 191 462 247 c 2
 462 440 l 2
 462 496 418 540 362 540 c 2
EndSplineSet
Position2: "'cpsp' Capital Spacing lookup 0 subtable" dx=5 dy=0 dh=10 dv=0
EndChar

StartChar: Ocircumflex
Encoding: 212 212 59
Width: 718
GlyphClass: 2
Flags: MW
HStem: -10 157<248 362 357 362 362 387> 540 154<331 357 357 362> 750 145<153 420 153 420 292 559 292 429>
VStem: 31 226<290 394 394 440 219 477> 462 225<247 290 290 394 207 440 207 468>
LayerCount: 2
Fore
SplineSet
559 750 m 1
 429 750 l 1
 355 827 l 1
 281 750 l 1
 153 750 l 1
 292 895 l 1
 420 895 l 1
 559 750 l 1
331 694 m 2
 387 694 l 2
 553 694 687 560 687 394 c 2
 687 290 l 2
 687 124 553 -10 387 -10 c 2
 331 -10 l 2
 165 -10 31 124 31 290 c 2
 31 394 l 2
 31 560 165 694 331 694 c 2
362 540 m 2
 357 540 l 2
 301 540 257 496 257 440 c 2
 257 247 l 2
 257 191 301 147 357 147 c 2
 362 147 l 2
 418 147 462 191 462 247 c 2
 462 440 l 2
 462 496 418 540 362 540 c 2
EndSplineSet
Position2: "'cpsp' Capital Spacing lookup 0 subtable" dx=5 dy=0 dh=10 dv=0
EndChar

StartChar: Odieresis
Encoding: 214 214 60
Width: 718
GlyphClass: 2
Flags: MW
HStem: -10 157<248 362 357 362 362 387> 540 154<331 357 357 362> 750 147<177 329 177 329 177 397 397 549>
VStem: 31 226<290 394 394 440 219 477> 177 152<750 897 750 897> 397 152<750 897 750 897> 462 225<247 290 290 394 207 440 207 468>
LayerCount: 2
Fore
SplineSet
329 750 m 1xec
 177 750 l 1
 177 897 l 1
 329 897 l 1
 329 750 l 1xec
549 750 m 1
 397 750 l 1
 397 897 l 1
 549 897 l 1
 549 750 l 1
331 694 m 2
 387 694 l 2
 553 694 687 560 687 394 c 2
 687 290 l 2
 687 124 553 -10 387 -10 c 2
 331 -10 l 2
 165 -10 31 124 31 290 c 2
 31 394 l 2xf2
 31 560 165 694 331 694 c 2
362 540 m 2
 357 540 l 2
 301 540 257 496 257 440 c 2
 257 247 l 2
 257 191 301 147 357 147 c 2
 362 147 l 2
 418 147 462 191 462 247 c 2
 462 440 l 2
 462 496 418 540 362 540 c 2
EndSplineSet
Position2: "'cpsp' Capital Spacing lookup 0 subtable" dx=5 dy=0 dh=10 dv=0
EndChar

StartChar: Ograve
Encoding: 210 210 61
Width: 718
GlyphClass: 2
Flags: MW
HStem: -10 157<248 362 357 362 362 387> 540 154<331 357 357 362> 750 145<307 334 183 425 307 307>
VStem: 31 226<290 394 394 440 219 477> 462 225<247 290 290 394 207 440 207 468>
LayerCount: 2
Fore
SplineSet
425 750 m 1
 307 750 l 1
 181 892 l 1
 183 895 l 1
 334 895 l 1
 425 750 l 1
331 694 m 2
 387 694 l 2
 553 694 687 560 687 394 c 2
 687 290 l 2
 687 124 553 -10 387 -10 c 2
 331 -10 l 2
 165 -10 31 124 31 290 c 2
 31 394 l 2
 31 560 165 694 331 694 c 2
362 540 m 2
 357 540 l 2
 301 540 257 496 257 440 c 2
 257 247 l 2
 257 191 301 147 357 147 c 2
 362 147 l 2
 418 147 462 191 462 247 c 2
 462 440 l 2
 462 496 418 540 362 540 c 2
EndSplineSet
Position2: "'cpsp' Capital Spacing lookup 0 subtable" dx=5 dy=0 dh=10 dv=0
EndChar

StartChar: Ohungarumlaut
Encoding: 336 336 62
Width: 718
GlyphClass: 2
Flags: MW
HStem: -10 157<248 362 357 362 362 387> 540 154<331 357 357 362> 750 145<244 271 153 395 380 380 380 395 471 498>
VStem: 31 226<290 394 394 440 219 477> 462 225<247 290 290 394 207 440 207 468>
LayerCount: 2
Fore
SplineSet
397 892 m 1
 271 750 l 1
 153 750 l 1
 244 895 l 1
 395 895 l 1
 397 892 l 1
624 892 m 1
 498 750 l 1
 380 750 l 1
 471 895 l 1
 622 895 l 1
 624 892 l 1
331 694 m 2
 387 694 l 2
 553 694 687 560 687 394 c 2
 687 290 l 2
 687 124 553 -10 387 -10 c 2
 331 -10 l 2
 165 -10 31 124 31 290 c 2
 31 394 l 2
 31 560 165 694 331 694 c 2
362 540 m 2
 357 540 l 2
 301 540 257 496 257 440 c 2
 257 247 l 2
 257 191 301 147 357 147 c 2
 362 147 l 2
 418 147 462 191 462 247 c 2
 462 440 l 2
 462 496 418 540 362 540 c 2
EndSplineSet
EndChar

StartChar: Omacron
Encoding: 332 332 63
Width: 718
GlyphClass: 2
Flags: MW
HStem: -10 157<248 362 357 362 362 387> 540 154<331 357 357 362> 837 74<200 518 200 518>
VStem: 31 226<290 394 394 440 219 477> 200 318<837 911 837 911> 462 225<247 290 290 394 207 440 207 468>
LayerCount: 2
Fore
SplineSet
518 837 m 1xe8
 200 837 l 1
 200 911 l 1
 518 911 l 1
 518 837 l 1xe8
331 694 m 2
 387 694 l 2
 553 694 687 560 687 394 c 2
 687 290 l 2
 687 124 553 -10 387 -10 c 2
 331 -10 l 2
 165 -10 31 124 31 290 c 2
 31 394 l 2xf4
 31 560 165 694 331 694 c 2
362 540 m 2
 357 540 l 2
 301 540 257 496 257 440 c 2
 257 247 l 2
 257 191 301 147 357 147 c 2
 362 147 l 2
 418 147 462 191 462 247 c 2
 462 440 l 2
 462 496 418 540 362 540 c 2
EndSplineSet
EndChar

StartChar: Oslash
Encoding: 216 216 64
Width: 718
GlyphClass: 2
Flags: MW
HStem: -10 157<310 362 357 362 362 387> 540 154<331 357 357 362>
VStem: 31 226<290 394 394 440 269 477> 462 225<247 290 290 394 207 428 207 428>
LayerCount: 2
Fore
SplineSet
661 754 m 1
 581 623 l 1
 646 567 687 486 687 394 c 2
 687 290 l 2
 687 124 553 -10 387 -10 c 2
 331 -10 l 2
 289 -10 249 -2 210 15 c 1
 161 -65 l 1
 53 -65 l 1
 132 65 l 1
 69 121 31 199 31 290 c 2
 31 394 l 2
 31 560 165 694 331 694 c 2
 387 694 l 2
 428 694 466 686 502 671 c 1
 553 754 l 1
 661 754 l 1
362 540 m 2
 357 540 l 2
 301 540 257 496 257 440 c 2
 257 269 l 1
 414 526 l 1
 397 535 380 540 362 540 c 2
462 428 m 1
 301 164 l 1
 318 153 336 147 357 147 c 2
 362 147 l 2
 418 147 462 191 462 247 c 2
 462 428 l 1
EndSplineSet
Position2: "'cpsp' Capital Spacing lookup 0 subtable" dx=5 dy=0 dh=10 dv=0
EndChar

StartChar: Otilde
Encoding: 213 213 65
Width: 718
GlyphClass: 2
Flags: MW
HStem: -10 157<248 362 357 362 362 387> 540 154<331 357 357 362> 750 143<135 307 135 307 236.5 477.5>
VStem: 31 226<290 394 394 440 219 477> 462 225<247 290 290 394 207 440 207 468>
LayerCount: 2
Fore
SplineSet
498 893 m 1
 579 893 l 1
 579 821 516 750 439 750 c 0
 406 750 378 760 348 770 c 2
 306 784 l 2
 293 788 279 790 266 790 c 0
 241 790 223 773 216 750 c 1
 135 750 l 1
 135 822 198 893 275 893 c 0
 339 893 395 853 448 853 c 0
 473 853 491 870 498 893 c 1
331 694 m 2
 387 694 l 2
 553 694 687 560 687 394 c 2
 687 290 l 2
 687 124 553 -10 387 -10 c 2
 331 -10 l 2
 165 -10 31 124 31 290 c 2
 31 394 l 2
 31 560 165 694 331 694 c 2
362 540 m 2
 357 540 l 2
 301 540 257 496 257 440 c 2
 257 247 l 2
 257 191 301 147 357 147 c 2
 362 147 l 2
 418 147 462 191 462 247 c 2
 462 440 l 2
 462 496 418 540 362 540 c 2
EndSplineSet
Position2: "'cpsp' Capital Spacing lookup 0 subtable" dx=5 dy=0 dh=10 dv=0
EndChar

StartChar: OE
Encoding: 338 338 66
Width: 991
GlyphClass: 2
Flags: MW
HStem: 0 157<672 947 672 977> 266 153<672 916 672 916> 528 158<672 927 672 672> 540 154<331 357 357 362>
VStem: 31 226<290 394 394 440 219 477> 462 210<0 266 247 266 419 440 440 468>
LayerCount: 2
Fore
SplineSet
331 694 m 2xdc
 387 694 l 2xdc
 412 694 438 691 463 686 c 1
 967 686 l 1
 927 528 l 1
 672 528 l 1xec
 672 419 l 1
 916 419 l 1
 916 266 l 1
 672 266 l 1
 672 157 l 1
 947 157 l 1
 977 0 l 1
 462 0 l 1
 438 -7 414 -10 387 -10 c 2
 331 -10 l 2
 165 -10 31 124 31 290 c 2
 31 394 l 2
 31 560 165 694 331 694 c 2xdc
362 540 m 2
 357 540 l 2
 301 540 257 496 257 440 c 2
 257 247 l 2
 257 191 301 147 357 147 c 2
 362 147 l 2
 418 147 462 191 462 247 c 2
 462 440 l 2
 462 496 418 540 362 540 c 2
EndSplineSet
Position2: "'cpsp' Capital Spacing lookup 0 subtable" dx=5 dy=0 dh=10 dv=0
EndChar

StartChar: P
Encoding: 80 80 67
Width: 645
GlyphClass: 2
Flags: MW
HStem: 244 153<267 359 359 379 267 422 267 359> 529 157<267 267 267 359>
VStem: 57 210<0 244 0 397 397 529> 419 213<457 469 469 476 396 483>
LayerCount: 2
Fore
SplineSet
57 686 m 1
 422 686 l 2
 538 686 632 592 632 476 c 2
 632 454 l 2
 632 338 538 244 422 244 c 2
 267 244 l 1
 267 0 l 1
 57 0 l 1
 57 686 l 1
267 529 m 1
 267 397 l 1
 359 397 l 2
 399 397 419 429 419 457 c 2
 419 469 l 2
 419 497 400 529 359 529 c 2
 267 529 l 1
EndSplineSet
Position2: "'cpsp' Capital Spacing lookup 0 subtable" dx=5 dy=0 dh=10 dv=0
EndChar

StartChar: Thorn
Encoding: 222 222 68
Width: 646
GlyphClass: 2
Flags: MW
HStem: 146 148<266 369 369 383 266 422 266 369> 427 156<266 422 266 369> 427 259<57 266 57 369>
VStem: 57 209<0 146 0 294 294 427 583 686> 419 213<344 356 356 373 298 377 298 391>
LayerCount: 2
Fore
SplineSet
266 583 m 1xd0
 422 583 l 2xd8
 538 583 632 489 632 373 c 2
 632 356 l 2
 632 240 538 146 422 146 c 2
 266 146 l 1
 266 0 l 1
 57 0 l 1
 57 686 l 1
 266 686 l 1xb8
 266 583 l 1xd0
266 427 m 1xb8
 266 294 l 1
 369 294 l 2
 397 294 419 316 419 344 c 2
 419 377 l 2
 419 405 397 427 369 427 c 2
 266 427 l 1xb8
EndSplineSet
Position2: "'cpsp' Capital Spacing lookup 0 subtable" dx=5 dy=0 dh=10 dv=0
EndChar

StartChar: Q
Encoding: 81 81 69
Width: 718
GlyphClass: 2
Flags: MW
HStem: -162 123<538 551> 540 154<331 357 357 362>
VStem: 31 226<290 394 394 440 219 477> 462 225<247 290 290 394 224 440 224 468>
LayerCount: 2
Fore
SplineSet
331 694 m 2
 387 694 l 2
 553 694 687 560 687 394 c 2
 687 290 l 2
 687 158 602 46 484 6 c 1
 495 -18 514 -39 562 -39 c 0
 597 -39 650 -27 675 -19 c 2
 688 -15 l 1
 688 -120 l 1
 652 -139 595 -162 507 -162 c 0
 355 -162 289 -72 273 -4 c 1
 135 22 31 144 31 290 c 2
 31 394 l 2
 31 560 165 694 331 694 c 2
362 540 m 2
 357 540 l 2
 301 540 257 496 257 440 c 2
 257 247 l 2
 257 191 301 147 357 147 c 2
 362 147 l 2
 418 147 462 191 462 247 c 2
 462 440 l 2
 462 496 418 540 362 540 c 2
EndSplineSet
Position2: "'cpsp' Capital Spacing lookup 0 subtable" dx=5 dy=0 dh=10 dv=0
EndChar

StartChar: R
Encoding: 82 82 70
Width: 682
GlyphClass: 2
Flags: MW
HStem: 266 153<262 320 262 368> 529 157<262 262 262 368>
VStem: 57 205<0 266 0 419 419 529> 409 210<71 214.5> 418 214<469 567.5 479.5 493>
AnchorPoint: "Bottom" 341 0 basechar 0
LayerCount: 2
Fore
SplineSet
57 686 m 1xf0
 442 686 l 2
 539 686 632 619 632 516 c 0xe8
 632 443 578 367 509 354 c 1
 509 349 l 1
 586 326 619 256 619 173 c 0
 619 132 620 63 670 50 c 1
 670 9 l 1
 634 -6 589 -10 550 -10 c 0
 459 -10 409 23 409 119 c 0
 409 183 405 266 320 266 c 2
 262 266 l 1
 262 0 l 1
 57 0 l 1
 57 686 l 1xf0
262 529 m 1
 262 419 l 1
 368 419 l 2
 396 419 418 441 418 469 c 2
 418 479 l 2
 418 507 396 529 368 529 c 2
 262 529 l 1
EndSplineSet
Position2: "'cpsp' Capital Spacing lookup 0 subtable" dx=5 dy=0 dh=10 dv=0
EndChar

StartChar: Racute
Encoding: 340 340 71
Width: 682
GlyphClass: 2
Flags: MW
HStem: 266 153<262 320 262 368> 529 157<262 262 262 368> 750 145<360 387 269 511>
VStem: 57 205<0 266 0 419 419 529> 409 210<71 214.5> 418 214<469 567.5 479.5 493>
AnchorPoint: "Bottom" 341 0 basechar 0
LayerCount: 2
Fore
SplineSet
513 892 m 1xf8
 387 750 l 1
 269 750 l 1
 360 895 l 1
 511 895 l 1
 513 892 l 1xf8
57 686 m 1
 442 686 l 2
 539 686 632 619 632 516 c 0xf4
 632 443 578 367 509 354 c 1
 509 349 l 1
 586 326 619 256 619 173 c 0
 619 132 620 63 670 50 c 1
 670 9 l 1
 634 -6 589 -10 550 -10 c 0
 459 -10 409 23 409 119 c 0
 409 183 405 266 320 266 c 2
 262 266 l 1
 262 0 l 1
 57 0 l 1
 57 686 l 1
262 529 m 1
 262 419 l 1
 368 419 l 2
 396 419 418 441 418 469 c 2
 418 479 l 2
 418 507 396 529 368 529 c 2
 262 529 l 1
EndSplineSet
EndChar

StartChar: Rcaron
Encoding: 344 344 72
Width: 682
GlyphClass: 2
Flags: MW
HStem: 266 153<262 320 262 368> 529 157<262 262 262 368> 750 145<138 405 138 277>
VStem: 57 205<0 266 0 419 419 529> 409 210<71 214.5> 418 214<469 567.5 479.5 493>
AnchorPoint: "Bottom" 341 0 basechar 0
LayerCount: 2
Fore
SplineSet
405 750 m 1xf8
 277 750 l 1
 138 895 l 1
 268 895 l 1
 342 818 l 1
 416 895 l 1
 544 895 l 1
 405 750 l 1xf8
57 686 m 1
 442 686 l 2
 539 686 632 619 632 516 c 0xf4
 632 443 578 367 509 354 c 1
 509 349 l 1
 586 326 619 256 619 173 c 0
 619 132 620 63 670 50 c 1
 670 9 l 1
 634 -6 589 -10 550 -10 c 0
 459 -10 409 23 409 119 c 0
 409 183 405 266 320 266 c 2
 262 266 l 1
 262 0 l 1
 57 0 l 1
 57 686 l 1
262 529 m 1
 262 419 l 1
 368 419 l 2
 396 419 418 441 418 469 c 2
 418 479 l 2
 418 507 396 529 368 529 c 2
 262 529 l 1
EndSplineSet
EndChar

StartChar: Rcommaaccent
Encoding: 342 342 73
Width: 682
GlyphClass: 2
Flags: MW
HStem: -171 151<245 330 245 436> 266 153<262 320 262 368> 529 157<262 262 262 368>
VStem: 245 17 409 210<71 214.5> 418 214<469 567.5 479.5 493>
AnchorPoint: "Bottom" 341 0 basechar 0
LayerCount: 2
Fore
SplineSet
57 686 m 1xf8
 442 686 l 2
 539 686 632 619 632 516 c 0xf4
 632 443 578 367 509 354 c 1
 509 349 l 1
 586 326 619 256 619 173 c 0
 619 132 620 63 670 50 c 1
 670 9 l 1
 634 -6 589 -10 550 -10 c 0
 459 -10 409 23 409 119 c 0
 409 183 405 266 320 266 c 2
 262 266 l 1
 262 0 l 1
 57 0 l 1
 57 686 l 1xf8
262 529 m 1
 262 419 l 1
 368 419 l 2
 396 419 418 441 418 469 c 2
 418 479 l 2
 418 507 396 529 368 529 c 2
 262 529 l 1
436 -139 m 1
 408 -250 l 1
 314 -250 l 1
 330 -171 l 1
 245 -171 l 1
 245 -20 l 1
 436 -20 l 1
 436 -139 l 1
EndSplineSet
EndChar

StartChar: S
Encoding: 83 83 74
Width: 651
GlyphClass: 2
Flags: MW
HStem: -10 161<276 352.5 276 409> 256.49 439.51 474 222<251 610 251 418> 544 152<306.5 365>
VStem: 25 194<210 222 222 224> 40 212<485.5 514.5 485.5 550.5> 407 216<183 242.5> 418 192<474 478 478 486 474 495.5>
AnchorPoint: "Bottom" 326 0 basechar 0
LayerCount: 2
Fore
SplineSet
331 696 m 0x95
 484 696 610 631 610 486 c 2
 610 474 l 1xa5
 418 474 l 1
 418 478 l 2
 418 513 395 544 335 544 c 0
 278 544 252 527 252 502 c 0
 252 469 293 454 348 442 c 2x95
 437 422 l 2
 530 401 623 352 623 229 c 0
 623 59 500 -10 318 -10 c 0
 166 -10 25 58 25 210 c 2
 25 222 l 2
 25 226 25 230 26 234 c 1
 220 234 l 2
 219 231 219 227 219 222 c 0x9a
 219 186 240 151 312 151 c 0
 393 151 407 172 407 194 c 0xc6
 407 291 40 209 40 478 c 0
 40 623 171 696 331 696 c 0x95
EndSplineSet
Position2: "'cpsp' Capital Spacing lookup 0 subtable" dx=5 dy=0 dh=10 dv=0
EndChar

StartChar: Sacute
Encoding: 346 346 75
Width: 651
GlyphClass: 2
Flags: MW
HStem: -10 161<276 352.5 276 409> 256.49 439.51 474 222<251 610 251 418> 544 152<306.5 365> 750 145<345 372 254 496>
VStem: 25 194<210 222 222 224> 40 212<485.5 514.5 485.5 550.5> 407 216<183 242.5> 418 192<474 478 478 486 474 495.5>
AnchorPoint: "Bottom" 326 0 basechar 0
LayerCount: 2
Fore
SplineSet
498 892 m 1x9b
 372 750 l 1
 254 750 l 1
 345 895 l 1
 496 895 l 1
 498 892 l 1x9b
331 696 m 0x9a80
 484 696 610 631 610 486 c 2
 610 474 l 1xaa80
 418 474 l 1
 418 478 l 2
 418 513 395 544 335 544 c 0
 278 544 252 527 252 502 c 0
 252 469 293 454 348 442 c 2x9a80
 437 422 l 2
 530 401 623 352 623 229 c 0
 623 59 500 -10 318 -10 c 0
 166 -10 25 58 25 210 c 2
 25 222 l 2
 25 226 25 230 26 234 c 1
 220 234 l 2
 219 231 219 227 219 222 c 0x9d
 219 186 240 151 312 151 c 0
 393 151 407 172 407 194 c 0xcb
 407 291 40 209 40 478 c 0
 40 623 171 696 331 696 c 0x9a80
EndSplineSet
EndChar

StartChar: Scaron
Encoding: 352 352 76
Width: 651
GlyphClass: 2
Flags: MW
HStem: -10 161<276 352.5 276 409> 256.49 439.51 474 222<251 610 251 418> 544 152<306.5 365> 750 145<125 392 125 264>
VStem: 25 194<210 222 222 224> 40 212<485.5 514.5 485.5 550.5> 407 216<183 242.5> 418 192<474 478 478 486 474 495.5>
LayerCount: 2
Fore
SplineSet
392 750 m 1x9b
 264 750 l 1
 125 895 l 1
 255 895 l 1
 329 818 l 1
 403 895 l 1
 531 895 l 1
 392 750 l 1x9b
331 696 m 0x9a80
 484 696 610 631 610 486 c 2
 610 474 l 1xaa80
 418 474 l 1
 418 478 l 2
 418 513 395 544 335 544 c 0
 278 544 252 527 252 502 c 0
 252 469 293 454 348 442 c 2x9a80
 437 422 l 2
 531 401 623 352 623 229 c 0
 623 59 500 -10 318 -10 c 0
 166 -10 25 58 25 210 c 2
 25 222 l 2
 25 226 25 230 26 234 c 1
 220 234 l 2
 219 231 219 227 219 222 c 0x9d
 219 186 240 151 312 151 c 0
 393 151 407 172 407 194 c 0xcb
 407 291 40 209 40 478 c 0
 40 623 171 696 331 696 c 0x9a80
EndSplineSet
Position2: "'cpsp' Capital Spacing lookup 0 subtable" dx=5 dy=0 dh=10 dv=0
EndChar

StartChar: Scedilla
Encoding: 350 350 77
Width: 651
GlyphClass: 2
Flags: MW
HStem: -197 58<306.5 333 299.5 352.5> -76 59<305 323 305 326> -10 161<276 352.5 276 409> 256.49 439.51 474 222<251 610 251 418> 544 152<306.5 365>
VStem: 25 194<210 222 222 224> 40 212<485.5 514.5 485.5 550.5> 361 87<-119.5 -98> 407 216<183 242.5> 418 192<474 478 478 486 474 495.5>
AnchorPoint: "Bottom" 326 0 basechar 0
LayerCount: 2
Fore
SplineSet
331 696 m 0xc520
 484 696 610 631 610 486 c 2
 610 474 l 1xc920
 418 474 l 1
 418 478 l 2
 418 513 395 544 335 544 c 0
 278 544 252 527 252 502 c 0
 252 469 293 454 348 442 c 2xc520
 437 422 l 2
 530 401 623 352 623 229 c 0
 623 59 500 -10 318 -10 c 0
 166 -10 25 58 25 210 c 2
 25 222 l 2
 25 226 25 230 26 234 c 1
 220 234 l 2
 219 231 219 227 219 222 c 0xa640
 219 186 240 151 312 151 c 0
 393 151 407 172 407 194 c 0xb140
 407 291 40 209 40 478 c 0
 40 623 171 696 331 696 c 0xc520
305 -17 m 1xc580
 326 -17 l 2
 385 -17 448 -34 448 -108 c 0
 448 -181 375 -197 330 -197 c 0
 283 -197 233 -185 204 -161 c 1
 236 -107 l 1
 252 -121 278 -139 321 -139 c 0
 345 -139 361 -131 361 -108 c 0
 361 -88 352 -76 323 -76 c 2
 305 -76 l 1
 305 -17 l 1xc580
EndSplineSet
EndChar

StartChar: Scommaaccent
Encoding: 536 536 78
Width: 651
GlyphClass: 2
Flags: MW
HStem: -171 151<230 315 230 421> -10 161<276 352.5 276 409> 256.49 439.51 474 222<251 610 251 418> 544 152<306.5 365>
VStem: 25 194<210 222 222 224> 40 212<485.5 514.5 485.5 550.5> 230 191<-139 -139 -139 -20 -139 -20> 407 216<183 242.5> 418 192<474 478 478 486 474 495.5>
AnchorPoint: "Bottom" 326 0 basechar 0
LayerCount: 2
Fore
SplineSet
331 696 m 0x8a40
 484 696 610 631 610 486 c 2
 610 474 l 1x9240
 418 474 l 1
 418 478 l 2
 418 513 395 544 335 544 c 0
 278 544 252 527 252 502 c 0
 252 469 293 454 348 442 c 2x8a40
 437 422 l 2
 530 401 623 352 623 229 c 0
 623 59 500 -10 318 -10 c 0
 166 -10 25 58 25 210 c 2
 25 222 l 2
 25 226 25 230 26 234 c 1
 220 234 l 2
 219 231 219 227 219 222 c 0xcc80
 219 186 240 151 312 151 c 0
 393 151 407 172 407 194 c 0xe280
 407 291 40 209 40 478 c 0
 40 623 171 696 331 696 c 0x8a40
421 -139 m 1x89
 393 -250 l 1
 299 -250 l 1
 315 -171 l 1
 230 -171 l 1
 230 -20 l 1
 421 -20 l 1
 421 -139 l 1x89
EndSplineSet
EndChar

StartChar: T
Encoding: 84 84 79
Width: 586
GlyphClass: 2
Flags: MW
HStem: 521 165<15 189 15 571 397 571 397 397>
VStem: 189 208<0 521 0 521>
AnchorPoint: "Bottom" 293 0 basechar 0
LayerCount: 2
Fore
SplineSet
571 521 m 1
 397 521 l 1
 397 0 l 1
 189 0 l 1
 189 521 l 1
 15 521 l 1
 15 686 l 1
 571 686 l 1
 571 521 l 1
EndSplineSet
Position2: "'cpsp' Capital Spacing lookup 0 subtable" dx=5 dy=0 dh=10 dv=0
EndChar

StartChar: Tcaron
Encoding: 356 356 80
Width: 586
GlyphClass: 2
Flags: MW
HStem: 521 165<15 189 15 571 397 571 397 397> 750 145<90 357 90 229>
VStem: 189 208<0 521 0 521>
AnchorPoint: "Bottom" 293 0 basechar 0
LayerCount: 2
Fore
SplineSet
357 750 m 1
 229 750 l 1
 90 895 l 1
 220 895 l 1
 294 818 l 1
 368 895 l 1
 496 895 l 1
 357 750 l 1
571 521 m 1
 397 521 l 1
 397 0 l 1
 189 0 l 1
 189 521 l 1
 15 521 l 1
 15 686 l 1
 571 686 l 1
 571 521 l 1
EndSplineSet
EndChar

StartChar: Tcedilla
Encoding: 354 354 81
Width: 586
GlyphClass: 2
Flags: MW
HStem: -197 58<273.5 300 266.5 319.5> -76 59<272 290 272 293> 521 165<15 189 15 571 397 571 397 397>
VStem: 189 208<0 521 0 521> 328 87<-119.5 -98>
AnchorPoint: "Bottom" 293 0 basechar 0
LayerCount: 2
Fore
SplineSet
571 521 m 1xf0
 397 521 l 1
 397 0 l 1
 189 0 l 1
 189 521 l 1
 15 521 l 1
 15 686 l 1
 571 686 l 1
 571 521 l 1xf0
272 -17 m 1
 293 -17 l 2
 352 -17 415 -34 415 -108 c 0
 415 -181 342 -197 297 -197 c 0
 250 -197 200 -185 171 -161 c 1
 203 -107 l 1
 219 -121 245 -139 288 -139 c 0
 312 -139 328 -131 328 -108 c 0
 328 -88 319 -76 290 -76 c 2xe8
 272 -76 l 1
 272 -17 l 1
EndSplineSet
EndChar

StartChar: Tcommaaccent
Encoding: 538 538 82
Width: 586
GlyphClass: 2
Flags: MW
HStem: -171 151<197 282 197 388> 521 165<15 189 15 571 397 571 397 397>
VStem: 189 208<0 521 0 521>
AnchorPoint: "Bottom" 293 0 basechar 0
LayerCount: 2
Fore
SplineSet
571 521 m 1
 397 521 l 1
 397 0 l 1
 189 0 l 1
 189 521 l 1
 15 521 l 1
 15 686 l 1
 571 686 l 1
 571 521 l 1
388 -139 m 1
 360 -250 l 1
 266 -250 l 1
 282 -171 l 1
 197 -171 l 1
 197 -20 l 1
 388 -20 l 1
 388 -139 l 1
EndSplineSet
EndChar

StartChar: U
Encoding: 85 85 83
Width: 687
GlyphClass: 2
Flags: MW
HStem: -10 156<321.5 322 322 365> -10 696<240.5 263 52 322 52 365>
VStem: 52 211<218 221 221 686> 425 210<221 686>
LayerCount: 2
Fore
SplineSet
635 686 m 1x70
 635 218 l 2
 635 79 528 -10 365 -10 c 2
 322 -10 l 2
 159 -10 52 79 52 218 c 2
 52 686 l 1
 263 686 l 1x70
 263 221 l 2
 263 177 299 146 344 146 c 0
 389 146 425 177 425 221 c 2xb0
 425 686 l 1
 635 686 l 1x70
EndSplineSet
Position2: "'cpsp' Capital Spacing lookup 0 subtable" dx=5 dy=0 dh=10 dv=0
EndChar

StartChar: Uacute
Encoding: 218 218 84
Width: 687
GlyphClass: 2
Flags: MW
HStem: -10 156<321.5 322 322 365> -10 696<240.5 263 52 322 52 365> 750 145<376 403 285 527>
VStem: 52 211<218 221 221 686> 425 210<221 686>
LayerCount: 2
Fore
SplineSet
529 892 m 1x78
 403 750 l 1
 285 750 l 1
 376 895 l 1
 527 895 l 1
 529 892 l 1x78
635 686 m 1
 635 218 l 2
 635 79 528 -10 365 -10 c 2
 322 -10 l 2
 159 -10 52 79 52 218 c 2
 52 686 l 1
 263 686 l 1x78
 263 221 l 2
 263 177 299 146 344 146 c 0
 389 146 425 177 425 221 c 2xb8
 425 686 l 1
 635 686 l 1
EndSplineSet
Position2: "'cpsp' Capital Spacing lookup 0 subtable" dx=5 dy=0 dh=10 dv=0
EndChar

StartChar: Ucircumflex
Encoding: 219 219 85
Width: 687
GlyphClass: 2
Flags: MW
HStem: -10 156<321.5 322 322 365> -10 696<240.5 263 52 322 52 365> 750 145<144 411 144 411 283 550 283 420>
VStem: 52 211<218 221 221 686> 425 210<221 686>
LayerCount: 2
Fore
SplineSet
550 750 m 1x78
 420 750 l 1
 346 827 l 1
 272 750 l 1
 144 750 l 1
 283 895 l 1
 411 895 l 1
 550 750 l 1x78
635 686 m 1
 635 218 l 2
 635 79 528 -10 365 -10 c 2
 322 -10 l 2
 159 -10 52 79 52 218 c 2
 52 686 l 1
 263 686 l 1x78
 263 221 l 2
 263 177 299 146 344 146 c 0
 389 146 425 177 425 221 c 2xb8
 425 686 l 1
 635 686 l 1
EndSplineSet
Position2: "'cpsp' Capital Spacing lookup 0 subtable" dx=5 dy=0 dh=10 dv=0
EndChar

StartChar: Udieresis
Encoding: 220 220 86
Width: 687
GlyphClass: 2
Flags: MW
HStem: -10 156<321.5 322 322 365> -10 696<240.5 263 52 322 52 365> 750 147<159 311 159 311 159 379 379 531>
VStem: 52 211<218 221 221 686> 159 152<750 897 750 897> 379 152<750 897 750 897> 425 210<221 686>
LayerCount: 2
Fore
SplineSet
311 750 m 1x6a
 159 750 l 1
 159 897 l 1x72
 311 897 l 1
 311 750 l 1x6a
531 750 m 1
 379 750 l 1
 379 897 l 1x74
 531 897 l 1
 531 750 l 1
635 686 m 1x72
 635 218 l 2
 635 79 528 -10 365 -10 c 2
 322 -10 l 2
 159 -10 52 79 52 218 c 2
 52 686 l 1
 263 686 l 1x72
 263 221 l 2
 263 177 299 146 344 146 c 0
 389 146 425 177 425 221 c 2xb2
 425 686 l 1
 635 686 l 1x72
EndSplineSet
Position2: "'cpsp' Capital Spacing lookup 0 subtable" dx=5 dy=0 dh=10 dv=0
EndChar

StartChar: Ugrave
Encoding: 217 217 87
Width: 687
GlyphClass: 2
Flags: MW
HStem: -10 156<321.5 322 322 365> -10 696<240.5 263 52 322 52 365> 750 145<287 314 163 405 287 287>
VStem: 52 211<218 221 221 686> 425 210<221 686>
LayerCount: 2
Fore
SplineSet
405 750 m 1x78
 287 750 l 1
 161 892 l 1
 163 895 l 1
 314 895 l 1
 405 750 l 1x78
635 686 m 1
 635 218 l 2
 635 79 528 -10 365 -10 c 2
 322 -10 l 2
 159 -10 52 79 52 218 c 2
 52 686 l 1
 263 686 l 1x78
 263 221 l 2
 263 177 299 146 344 146 c 0
 389 146 425 177 425 221 c 2xb8
 425 686 l 1
 635 686 l 1
EndSplineSet
Position2: "'cpsp' Capital Spacing lookup 0 subtable" dx=5 dy=0 dh=10 dv=0
EndChar

StartChar: Uhungarumlaut
Encoding: 368 368 88
Width: 687
GlyphClass: 2
Flags: MW
HStem: -10 156<321.5 322 322 365> -10 696<240.5 263 52 322 52 365> 750 145<229 256 138 380 365 365 365 380 456 483>
VStem: 52 211<218 221 221 686> 425 210<221 686>
LayerCount: 2
Fore
SplineSet
382 892 m 1x78
 256 750 l 1
 138 750 l 1
 229 895 l 1
 380 895 l 1
 382 892 l 1x78
609 892 m 1
 483 750 l 1
 365 750 l 1
 456 895 l 1
 607 895 l 1
 609 892 l 1
635 686 m 1
 635 218 l 2
 635 79 528 -10 365 -10 c 2
 322 -10 l 2
 159 -10 52 79 52 218 c 2
 52 686 l 1
 263 686 l 1x78
 263 221 l 2
 263 177 299 146 344 146 c 0
 389 146 425 177 425 221 c 2xb8
 425 686 l 1
 635 686 l 1
EndSplineSet
EndChar

StartChar: Umacron
Encoding: 362 362 89
Width: 687
GlyphClass: 2
Flags: MW
HStem: -10 156<321.5 322 322 365> -10 696<240.5 263 52 322 52 365> 837 74<185 503 185 503>
VStem: 52 211<218 221 221 686> 425 210<221 686>
LayerCount: 2
Fore
SplineSet
503 837 m 1x78
 185 837 l 1
 185 911 l 1
 503 911 l 1
 503 837 l 1x78
635 686 m 1
 635 218 l 2
 635 79 528 -10 365 -10 c 2
 322 -10 l 2
 159 -10 52 79 52 218 c 2
 52 686 l 1
 263 686 l 1x78
 263 221 l 2
 263 177 299 146 344 146 c 0
 389 146 425 177 425 221 c 2xb8
 425 686 l 1
 635 686 l 1
EndSplineSet
EndChar

StartChar: Uogonek
Encoding: 370 370 90
Width: 687
GlyphClass: 2
Flags: MW
HStem: -143 53<435.5 440.5> -10 156<321.5 322 322 365> -10 696<240.5 263 52 322 52 365> 666 20G<52 263 263 263 425 635 635 635>
VStem: 52 211<218 221 221 686> 325 77<-69.5 -58> 425 210<221 686>
LayerCount: 2
Fore
SplineSet
635 686 m 1xda
 635 218 l 2xaa
 635 104 563 23 446 -2 c 1
 427 -14 402 -30 402 -56 c 0
 402 -83 425 -90 446 -90 c 0
 469 -90 492 -84 513 -76 c 1
 526 -119 l 1
 494 -135 459 -143 422 -143 c 0
 376 -143 325 -126 325 -71 c 0
 325 -45 345 -25 365 -10 c 1
 322 -10 l 2xae
 159 -10 52 79 52 218 c 2
 52 686 l 1
 263 686 l 1
 263 221 l 2
 263 177 299 146 344 146 c 0
 389 146 425 177 425 221 c 2
 425 686 l 1
 635 686 l 1xda
EndSplineSet
EndChar

StartChar: Uring
Encoding: 366 366 91
Width: 687
GlyphClass: 2
Flags: MW
HStem: -10 156<321.5 322 322 365> -10 696<240.5 263 52 322 52 365> 720 65<334.5 354 334.5 372> 855 66<334 353.5>
VStem: 52 211<218 221 221 686> 243 66<809.5 829 809.5 848> 379 66<811 830.5> 425 210<221 686>
LayerCount: 2
Fore
SplineSet
344 921 m 0x76
 399 921 445 876 445 820 c 0
 445 765 400 720 344 720 c 0
 289 720 243 763 243 820 c 0
 243 876 288 921 344 921 c 0x76
344 855 m 0
 324 855 309 839 309 819 c 0
 309 800 325 785 344 785 c 0
 364 785 379 801 379 821 c 0
 379 840 363 855 344 855 c 0
635 686 m 1x79
 635 218 l 2
 635 79 528 -10 365 -10 c 2
 322 -10 l 2
 159 -10 52 79 52 218 c 2
 52 686 l 1
 263 686 l 1x79
 263 221 l 2
 263 177 299 146 344 146 c 0
 389 146 425 177 425 221 c 2xb9
 425 686 l 1
 635 686 l 1x79
EndSplineSet
EndChar

StartChar: V
Encoding: 86 86 92
Width: 656
GlyphClass: 2
Flags: MW
HStem: 0 260<335 339 335 452 202 339> 0 686<202 215 -3 452 202 202>
VStem: -3 663<686 686>
LayerCount: 2
Fore
SplineSet
452 0 m 1x60
 202 0 l 1
 -3 686 l 1
 215 686 l 1x60
 335 260 l 1
 339 260 l 1xa0
 458 686 l 1
 660 686 l 1
 452 0 l 1x60
EndSplineSet
Position2: "'cpsp' Capital Spacing lookup 0 subtable" dx=5 dy=0 dh=10 dv=0
EndChar

StartChar: W
Encoding: 87 87 93
Width: 1021
GlyphClass: 2
Flags: MW
HStem: 0 305<312 316 312 427 185 316 725 729 312 599> 0 686<185 215 414 427 185 185 599 629 826 837 599 599> 329 357<510 516 510 510>
VStem: -2 1025<686 686>
LayerCount: 2
Fore
SplineSet
837 0 m 1x50
 599 0 l 1x50
 516 329 l 1
 510 329 l 1x30
 427 0 l 1
 185 0 l 1
 -2 686 l 1
 215 686 l 1x50
 312 305 l 1
 316 305 l 1x90
 414 686 l 1
 629 686 l 1x50
 725 305 l 1
 729 305 l 1x90
 826 686 l 1
 1023 686 l 1
 837 0 l 1x50
EndSplineSet
Position2: "'cpsp' Capital Spacing lookup 0 subtable" dx=5 dy=0 dh=10 dv=0
EndChar

StartChar: X
Encoding: 88 88 94
Width: 675
GlyphClass: 2
Flags: MW
HStem: 0 686<7 211 -15 250 446 669 7 690 446 446> 491 20G<345 349 349 349>
VStem: -15 705<0 0>
LayerCount: 2
Fore
SplineSet
475 362 m 1xa0
 690 0 l 1
 446 0 l 1
 330 213 l 1
 326 213 l 1
 211 0 l 1
 -15 0 l 1
 200 363 l 1
 7 686 l 1
 250 686 l 1xa0
 345 511 l 1
 349 511 l 1x60
 444 686 l 1
 669 686 l 1
 475 362 l 1xa0
EndSplineSet
Position2: "'cpsp' Capital Spacing lookup 0 subtable" dx=5 dy=0 dh=10 dv=0
EndChar

StartChar: Y
Encoding: 89 89 95
Width: 646
GlyphClass: 2
Flags: MW
HStem: 0 686<219 227 -9 428 219 219>
VStem: 219 209<0 262 0 262>
LayerCount: 2
Fore
SplineSet
428 262 m 1
 428 0 l 1
 219 0 l 1
 219 262 l 1
 -9 686 l 1
 227 686 l 1
 330 461 l 1
 335 461 l 1
 440 686 l 1
 655 686 l 1
 428 262 l 1
EndSplineSet
Position2: "'cpsp' Capital Spacing lookup 0 subtable" dx=5 dy=0 dh=10 dv=0
EndChar

StartChar: Yacute
Encoding: 221 221 96
Width: 646
GlyphClass: 2
Flags: MW
HStem: 0 686<219 227 -9 428 219 219> 750 145<361 388 270 512>
VStem: 219 209<0 262 0 262>
LayerCount: 2
Fore
SplineSet
514 892 m 1
 388 750 l 1
 270 750 l 1
 361 895 l 1
 512 895 l 1
 514 892 l 1
428 262 m 1
 428 0 l 1
 219 0 l 1
 219 262 l 1
 -9 686 l 1
 227 686 l 1
 330 461 l 1
 335 461 l 1
 440 686 l 1
 655 686 l 1
 428 262 l 1
EndSplineSet
Position2: "'cpsp' Capital Spacing lookup 0 subtable" dx=5 dy=0 dh=10 dv=0
EndChar

StartChar: Ydieresis
Encoding: 376 376 97
Width: 646
GlyphClass: 2
Flags: MW
HStem: 0 686<219 227 -9 428 219 219> 750 147<149 301 149 301 149 369 369 521>
VStem: 149 152<750 897 750 897> 219 209<0 262 0 262> 369 152<750 897 750 897>
LayerCount: 2
Fore
SplineSet
301 750 m 1xe8
 149 750 l 1
 149 897 l 1
 301 897 l 1
 301 750 l 1xe8
521 750 m 1
 369 750 l 1
 369 897 l 1
 521 897 l 1
 521 750 l 1
428 262 m 1xd0
 428 0 l 1
 219 0 l 1
 219 262 l 1
 -9 686 l 1
 227 686 l 1
 330 461 l 1
 335 461 l 1
 440 686 l 1
 655 686 l 1
 428 262 l 1xd0
EndSplineSet
Position2: "'cpsp' Capital Spacing lookup 0 subtable" dx=5 dy=0 dh=10 dv=0
EndChar

StartChar: Z
Encoding: 90 90 98
Width: 608
GlyphClass: 2
Flags: MW
HStem: 0 161<314 585 314 585> 526 160<38 282 38 577>
VStem: 14 571<0 61 61 61>
LayerCount: 2
Fore
SplineSet
577 625 m 1
 314 161 l 1
 585 161 l 1
 585 0 l 1
 14 0 l 1
 14 61 l 1
 282 526 l 1
 38 526 l 1
 38 686 l 1
 577 686 l 1
 577 625 l 1
EndSplineSet
Position2: "'cpsp' Capital Spacing lookup 0 subtable" dx=5 dy=0 dh=10 dv=0
EndChar

StartChar: Zacute
Encoding: 377 377 99
Width: 608
GlyphClass: 2
Flags: MW
HStem: 0 161<314 585 314 585> 526 160<38 282 38 577> 750 145<323 350 232 474>
VStem: 14 571<0 61 61 61>
LayerCount: 2
Fore
SplineSet
476 892 m 1
 350 750 l 1
 232 750 l 1
 323 895 l 1
 474 895 l 1
 476 892 l 1
577 625 m 1
 314 161 l 1
 585 161 l 1
 585 0 l 1
 14 0 l 1
 14 61 l 1
 282 526 l 1
 38 526 l 1
 38 686 l 1
 577 686 l 1
 577 625 l 1
EndSplineSet
EndChar

StartChar: Zcaron
Encoding: 381 381 100
Width: 608
GlyphClass: 2
Flags: MW
HStem: 0 161<314 585 314 585> 526 160<38 282 38 577> 750 145<105 372 105 244>
VStem: 14 571<0 61 61 61>
LayerCount: 2
Fore
SplineSet
372 750 m 1
 244 750 l 1
 105 895 l 1
 235 895 l 1
 309 818 l 1
 383 895 l 1
 511 895 l 1
 372 750 l 1
577 625 m 1
 314 161 l 1
 585 161 l 1
 585 0 l 1
 14 0 l 1
 14 61 l 1
 282 526 l 1
 38 526 l 1
 38 686 l 1
 577 686 l 1
 577 625 l 1
EndSplineSet
Position2: "'cpsp' Capital Spacing lookup 0 subtable" dx=5 dy=0 dh=10 dv=0
EndChar

StartChar: Zdotaccent
Encoding: 379 379 101
Width: 608
GlyphClass: 2
Flags: MW
HStem: 0 161<314 585 314 585> 526 160<38 282 38 577> 779 132<285.5 321.5>
VStem: 238 132<827 863 825.5 863.5>
LayerCount: 2
Fore
SplineSet
304 911 m 0
 341 911 370 881 370 845 c 0
 370 806 340 779 303 779 c 0
 268 779 238 809 238 845 c 0
 238 882 267 911 304 911 c 0
577 625 m 1
 314 161 l 1
 585 161 l 1
 585 0 l 1
 14 0 l 1
 14 61 l 1
 282 526 l 1
 38 526 l 1
 38 686 l 1
 577 686 l 1
 577 625 l 1
EndSplineSet
EndChar

StartChar: a
Encoding: 97 97 102
Width: 624
GlyphClass: 2
Flags: MW
HStem: -10 121<162.5 309> 225 91<313 359> 354 167<40 312> 405 116<279.5 312>
VStem: 24 207<139.5 178.5 139.5 214> 39 191<354 410.5> 359 192<181 225 225 225 316 345 345 359>
LayerCount: 2
Fore
SplineSet
279 521 m 2xea
 312 521 l 2
 473 521 551 451 551 359 c 2
 551 148 l 2
 551 121 567 111 582 111 c 0
 594 111 606 114 617 120 c 1
 617 13 l 1
 599 0 568 -10 516 -10 c 0
 427 -10 380 23 369 71 c 1
 334 31 286 -10 204 -10 c 0
 121 -10 24 7 24 143 c 0xea
 24 285 151 316 359 316 c 1
 359 345 l 2
 359 384 330 405 294 405 c 0xd6
 265 405 230 386 230 358 c 2
 230 354 l 1
 40 354 l 2
 39 357 39 362 39 368 c 0xe6
 39 453 131 521 279 521 c 2xea
359 181 m 2
 359 225 l 1
 267 225 231 198 231 159 c 0
 231 120 260 111 291 111 c 0
 327 111 359 138 359 181 c 2
EndSplineSet
Substitution2: "Single Substitution lookup 5 subtable" ordfeminine
Substitution2: "'aalt' Access All Alternates lookup 0 subtable" ordfeminine
EndChar

StartChar: aacute
Encoding: 225 225 103
Width: 624
GlyphClass: 2
Flags: MW
HStem: -10 121<162.5 309> 225 91<313 359> 354 167<40 312> 405 116<279.5 312> 575 145<336 363 245 487>
VStem: 24 207<139.5 178.5 139.5 214> 39 191<354 410.5> 359 192<181 225 225 225 316 345 345 359>
LayerCount: 2
Fore
SplineSet
489 717 m 1xed
 363 575 l 1
 245 575 l 1
 336 720 l 1
 487 720 l 1
 489 717 l 1xed
279 521 m 2
 312 521 l 2
 473 521 551 451 551 359 c 2
 551 148 l 2
 551 121 567 111 582 111 c 0
 594 111 606 114 617 120 c 1
 617 13 l 1
 599 0 568 -10 516 -10 c 0
 427 -10 380 23 369 71 c 1
 334 31 286 -10 204 -10 c 0
 121 -10 24 7 24 143 c 0xed
 24 285 151 316 359 316 c 1
 359 345 l 2
 359 384 330 405 294 405 c 0xdb
 265 405 230 386 230 358 c 2
 230 354 l 1
 40 354 l 2
 39 357 39 362 39 368 c 0xeb
 39 453 131 521 279 521 c 2
359 181 m 2
 359 225 l 1
 267 225 231 198 231 159 c 0
 231 120 260 111 291 111 c 0
 327 111 359 138 359 181 c 2
EndSplineSet
EndChar

StartChar: abreve
Encoding: 259 259 104
Width: 624
GlyphClass: 2
Flags: MW
HStem: -10 121<162.5 309> 225 91<313 359> 354 167<40 312> 354 383<120 216 120 230 40 216> 405 116<279.5 312> 613 86<285.5 339 285.5 365.5>
VStem: 24 207<139.5 178.5 139.5 214> 39 191<354 410.5> 120 96<731.5 737 731.5 737> 359 192<181 225 225 225 316 345 345 359> 410 95<731.5 737>
LayerCount: 2
Fore
SplineSet
410 737 m 1xe620
 505 737 l 1
 505 681 419 613 312 613 c 0xe4a0
 205 613 120 681 120 737 c 1
 216 737 l 1xd0c0
 216 726 259 699 312 699 c 0
 366 699 410 726 410 737 c 1xe620
279 521 m 2
 312 521 l 2
 473 521 551 451 551 359 c 2
 551 148 l 2
 551 121 567 111 582 111 c 0
 594 111 606 114 617 120 c 1
 617 13 l 1
 599 0 568 -10 516 -10 c 0
 427 -10 380 23 369 71 c 1
 334 31 286 -10 204 -10 c 0
 121 -10 24 7 24 143 c 0xe640
 24 285 151 316 359 316 c 1
 359 345 l 2
 359 384 330 405 294 405 c 0xcd40
 265 405 230 386 230 358 c 2
 230 354 l 1
 40 354 l 2
 39 357 39 362 39 368 c 0xe540
 39 453 131 521 279 521 c 2
359 181 m 2
 359 225 l 1
 267 225 231 198 231 159 c 0
 231 120 260 111 291 111 c 0
 327 111 359 138 359 181 c 2
EndSplineSet
EndChar

StartChar: acircumflex
Encoding: 226 226 105
Width: 624
GlyphClass: 2
Flags: MW
HStem: -10 121<162.5 309> 225 91<313 359> 354 167<40 312> 405 116<279.5 312> 575 145<98 365 98 365 237 504 237 374> 652 68<300 300>
VStem: 24 207<139.5 178.5 139.5 214> 39 191<354 410.5> 359 192<181 225 225 225 316 345 345 359>
LayerCount: 2
Fore
SplineSet
504 575 m 1xea80
 374 575 l 1xe980
 300 652 l 1xe680
 226 575 l 1
 98 575 l 1
 237 720 l 1
 365 720 l 1
 504 575 l 1xea80
279 521 m 2
 312 521 l 2
 473 521 551 451 551 359 c 2
 551 148 l 2
 551 121 567 111 582 111 c 0
 594 111 606 114 617 120 c 1
 617 13 l 1
 599 0 568 -10 516 -10 c 0
 427 -10 380 23 369 71 c 1
 334 31 286 -10 204 -10 c 0
 121 -10 24 7 24 143 c 0xea80
 24 285 151 316 359 316 c 1
 359 345 l 2
 359 384 330 405 294 405 c 0xd980
 265 405 230 386 230 358 c 2
 230 354 l 1
 40 354 l 2
 39 357 39 362 39 368 c 0
 39 453 131 521 279 521 c 2
359 181 m 2
 359 225 l 1
 267 225 231 198 231 159 c 0
 231 120 260 111 291 111 c 0
 327 111 359 138 359 181 c 2
EndSplineSet
EndChar

StartChar: adieresis
Encoding: 228 228 106
Width: 624
GlyphClass: 2
Flags: MW
HStem: -10 121<162.5 309> 225 91<313 359> 354 167<40 312> 405 116<279.5 312> 573 147<111 263 111 263 111 331 331 483>
VStem: 24 207<139.5 178.5 139.5 214> 39 191<354 410.5> 111 152<573 720 573 720> 331 152<573 720 573 720> 359 192<181 225 225 225 316 345 345 359>
LayerCount: 2
Fore
SplineSet
263 573 m 1xe980
 111 573 l 1
 111 720 l 1
 263 720 l 1
 263 573 l 1xe980
483 573 m 1
 331 573 l 1
 331 720 l 1
 483 720 l 1
 483 573 l 1
279 521 m 2
 312 521 l 2
 473 521 551 451 551 359 c 2
 551 148 l 2
 551 121 567 111 582 111 c 0
 594 111 606 114 617 120 c 1
 617 13 l 1
 599 0 568 -10 516 -10 c 0
 427 -10 380 23 369 71 c 1
 334 31 286 -10 204 -10 c 0
 121 -10 24 7 24 143 c 0xec40
 24 285 151 316 359 316 c 1
 359 345 l 2
 359 384 330 405 294 405 c 0xda40
 265 405 230 386 230 358 c 2
 230 354 l 1
 40 354 l 2
 39 357 39 362 39 368 c 0xea80
 39 453 131 521 279 521 c 2
359 181 m 2
 359 225 l 1
 267 225 231 198 231 159 c 0
 231 120 260 111 291 111 c 0
 327 111 359 138 359 181 c 2
EndSplineSet
EndChar

StartChar: agrave
Encoding: 224 224 107
Width: 624
GlyphClass: 2
Flags: MW
HStem: -10 121<162.5 309> 225 91<313 359> 354 167<40 312> 405 116<279.5 312> 575 145<240 267 116 358 240 240>
VStem: 24 207<139.5 178.5 139.5 214> 39 191<354 410.5> 359 192<181 225 225 225 316 345 345 359>
LayerCount: 2
Fore
SplineSet
358 575 m 1xed
 240 575 l 1
 114 717 l 1
 116 720 l 1
 267 720 l 1
 358 575 l 1xed
279 521 m 2
 312 521 l 2
 473 521 551 451 551 359 c 2
 551 148 l 2
 551 121 567 111 582 111 c 0
 594 111 606 114 617 120 c 1
 617 13 l 1
 599 0 568 -10 516 -10 c 0
 427 -10 380 23 369 71 c 1
 334 31 286 -10 204 -10 c 0
 121 -10 24 7 24 143 c 0xed
 24 285 151 316 359 316 c 1
 359 345 l 2
 359 384 330 405 294 405 c 0xdb
 265 405 230 386 230 358 c 2
 230 354 l 1
 40 354 l 2
 39 357 39 362 39 368 c 0xeb
 39 453 131 521 279 521 c 2
359 181 m 2
 359 225 l 1
 267 225 231 198 231 159 c 0
 231 120 260 111 291 111 c 0
 327 111 359 138 359 181 c 2
EndSplineSet
EndChar

StartChar: amacron
Encoding: 257 257 108
Width: 624
GlyphClass: 2
Flags: MW
HStem: -10 121<162.5 309> 225 91<313 359> 354 167<40 312> 405 116<279.5 312> 662 74<153 471 153 471>
VStem: 24 207<139.5 178.5 139.5 214> 39 191<354 410.5> 153 318<662 736 662 736> 359 192<181 225 225 225 316 345 345 359>
LayerCount: 2
Fore
SplineSet
471 662 m 1xe9
 153 662 l 1
 153 736 l 1
 471 736 l 1
 471 662 l 1xe9
279 521 m 2
 312 521 l 2
 473 521 551 451 551 359 c 2
 551 148 l 2
 551 121 567 111 582 111 c 0
 594 111 606 114 617 120 c 1
 617 13 l 1
 599 0 568 -10 516 -10 c 0
 427 -10 380 23 369 71 c 1
 334 31 286 -10 204 -10 c 0
 121 -10 24 7 24 143 c 0xec80
 24 285 151 316 359 316 c 1
 359 345 l 2
 359 384 330 405 294 405 c 0xda80
 265 405 230 386 230 358 c 2
 230 354 l 1
 40 354 l 2
 39 357 39 362 39 368 c 0xea80
 39 453 131 521 279 521 c 2
359 181 m 2
 359 225 l 1
 267 225 231 198 231 159 c 0
 231 120 260 111 291 111 c 0
 327 111 359 138 359 181 c 2
EndSplineSet
EndChar

StartChar: aogonek
Encoding: 261 261 109
Width: 624
GlyphClass: 2
Flags: MW
HStem: -143 53<549.5 554.5> -10 121<162.5 309> 225 91<313 359> 354 167<40 312> 405 116<279.5 312>
VStem: 24 207<139.5 178.5 139.5 214> 39 191<354 410.5> 359 192<181 225 225 225 316 345 345 359> 439 77<-69.5 -57.5>
LayerCount: 2
Fore
SplineSet
627 -76 m 1xf5
 640 -119 l 1
 608 -135 573 -143 536 -143 c 0
 490 -143 439 -126 439 -71 c 0
 439 -44 460 -24 481 -8 c 1
 415 -1 378 30 369 71 c 1
 334 31 286 -10 204 -10 c 0
 121 -10 24 7 24 143 c 0xf480
 24 285 151 316 359 316 c 1
 359 345 l 2
 359 384 330 405 294 405 c 0xeb
 265 405 230 386 230 358 c 2
 230 354 l 1
 40 354 l 2
 39 357 39 362 39 368 c 0
 39 453 131 521 279 521 c 2
 312 521 l 2
 473 521 551 451 551 359 c 2
 551 148 l 2
 551 121 567 111 582 111 c 0xf3
 594 111 606 114 617 120 c 1
 617 13 l 1
 603 3 582 -5 550 -8 c 1
 533 -20 516 -35 516 -56 c 0
 516 -83 539 -90 560 -90 c 0xf480
 583 -90 606 -84 627 -76 c 1xf5
359 181 m 2xf5
 359 225 l 1
 267 225 231 198 231 159 c 0
 231 120 260 111 291 111 c 0
 327 111 359 138 359 181 c 2xf5
EndSplineSet
EndChar

StartChar: aring
Encoding: 229 229 110
Width: 624
GlyphClass: 2
Flags: MW
HStem: -10 121<162.5 309> 225 91<313 359> 354 167<40 312> 405 116<279.5 312> 559 65<286.5 306 286.5 324> 694 66<286 305.5>
VStem: 24 207<139.5 178.5 139.5 214> 39 191<354 410.5> 195 66<648.5 668 648.5 687> 331 66<650 669.5> 359 192<181 225 225 225 316 345 345 359>
LayerCount: 2
Fore
SplineSet
296 760 m 0xecc0
 351 760 397 715 397 659 c 0
 397 604 352 559 296 559 c 0
 241 559 195 602 195 659 c 0
 195 715 240 760 296 760 c 0xecc0
296 694 m 0
 276 694 261 678 261 658 c 0
 261 639 277 624 296 624 c 0
 316 624 331 640 331 660 c 0
 331 679 315 694 296 694 c 0
279 521 m 2
 312 521 l 2
 473 521 551 451 551 359 c 2
 551 148 l 2
 551 121 567 111 582 111 c 0
 594 111 606 114 617 120 c 1
 617 13 l 1
 599 0 568 -10 516 -10 c 0
 427 -10 380 23 369 71 c 1
 334 31 286 -10 204 -10 c 0
 121 -10 24 7 24 143 c 0xee20
 24 285 151 316 359 316 c 1
 359 345 l 2
 359 384 330 405 294 405 c 0xdd20
 265 405 230 386 230 358 c 2
 230 354 l 1
 40 354 l 2
 39 357 39 362 39 368 c 0xed20
 39 453 131 521 279 521 c 2
359 181 m 2
 359 225 l 1
 267 225 231 198 231 159 c 0
 231 120 260 111 291 111 c 0
 327 111 359 138 359 181 c 2
EndSplineSet
EndChar

StartChar: atilde
Encoding: 227 227 111
Width: 624
GlyphClass: 2
Flags: MW
HStem: -10 121<162.5 309> 225 91<313 359> 354 167<40 312> 405 116<279.5 312> 577 103<367 404.5 365.5 421.5> 577 143<79 251 79 251 180.5 421.5> 617 103<197.5 216.5>
VStem: 24 207<139.5 178.5 139.5 214> 39 191<354 410.5> 359 192<181 225 225 225 316 345 345 359>
LayerCount: 2
Fore
SplineSet
442 720 m 1xe540
 523 720 l 1xe4c0
 523 648 460 577 383 577 c 0
 351 577 320 586 292 596 c 2xe940
 250 610 l 2
 237 614 223 617 210 617 c 0xe340
 185 617 167 600 160 577 c 1
 79 577 l 1
 79 649 142 720 219 720 c 0xe540
 283 720 339 680 392 680 c 0xe940
 417 680 435 697 442 720 c 1xe540
279 521 m 2
 312 521 l 2
 473 521 551 451 551 359 c 2
 551 148 l 2
 551 121 567 111 582 111 c 0
 594 111 606 114 617 120 c 1
 617 13 l 1
 599 0 568 -10 516 -10 c 0
 427 -10 380 23 369 71 c 1
 334 31 286 -10 204 -10 c 0
 121 -10 24 7 24 143 c 0xe540
 24 285 151 316 359 316 c 1
 359 345 l 2
 359 384 330 405 294 405 c 0xd4c0
 265 405 230 386 230 358 c 2
 230 354 l 1
 40 354 l 2
 39 357 39 362 39 368 c 0
 39 453 131 521 279 521 c 2
359 181 m 2
 359 225 l 1
 267 225 231 198 231 159 c 0
 231 120 260 111 291 111 c 0
 327 111 359 138 359 181 c 2
EndSplineSet
EndChar

StartChar: ae
Encoding: 230 230 112
Width: 924
GlyphClass: 2
Flags: MW
HStem: -10 121<176 308 617.5 630 630 645> 229 87<562 700> 354 167<39 311> 400 121<623 648 648 650.5> 405 116<278.5 311>
VStem: 23 207<139.5 178.5 139.5 214> 38 191<354 410.5> 358 204<181 225 225 225 316 330 157.5 345 157.5 364.5> 700 195<229 330 229 349.5> 711 183<167.5 192>
LayerCount: 2
Fore
SplineSet
623 521 m 2xe580
 648 521 l 2
 805 521 895 424 895 291 c 2
 895 229 l 1
 562 229 l 1
 562 181 l 2
 562 134 596 111 639 111 c 0
 687 111 711 143 711 192 c 1xe580
 894 192 l 1
 894 79 803 -10 645 -10 c 2
 630 -10 l 2
 549 -10 478 14 427 58 c 1
 382 18 305 -10 217 -10 c 0
 135 -10 23 7 23 143 c 0xe540
 23 285 150 316 358 316 c 1
 358 345 l 2
 358 384 329 405 293 405 c 0xcb80
 264 405 229 386 229 358 c 2
 229 354 l 1
 39 354 l 2
 38 357 38 362 38 368 c 0xe380
 38 453 130 521 278 521 c 2
 311 521 l 2
 380 521 433 508 472 487 c 1
 515 510 566 521 623 521 c 2xe580
631 400 m 0xd580
 592 400 562 369 562 330 c 2
 562 316 l 1
 700 316 l 1
 700 330 l 2
 700 369 670 400 631 400 c 0xd580
358 181 m 2
 358 225 l 1
 266 225 230 198 230 159 c 0
 230 120 259 111 290 111 c 0
 326 111 358 138 358 181 c 2
EndSplineSet
EndChar

StartChar: b
Encoding: 98 98 113
Width: 601
GlyphClass: 2
Flags: MW
HStem: -10 121<320 327.5 292.5 416> 0 720<50 120 50 248> 396 125<292.5 433.5> 700 20G<50 248 248 248>
VStem: 50 198<161.5 181 181 326 458 720> 372 201<181 250 250 261 162.5 326 162.5 345.5>
LayerCount: 2
Fore
SplineSet
248 720 m 1xbc
 248 458 l 1
 267 482 312 521 380 521 c 0
 487 521 573 436 573 261 c 2
 573 250 l 2
 573 75 476 -10 356 -10 c 0
 284 -10 227 20 188 75 c 1xbc
 120 0 l 1
 50 0 l 1x4c
 50 720 l 1
 248 720 l 1xbc
310 396 m 0
 275 396 248 365 248 326 c 2
 248 181 l 2
 248 142 275 111 310 111 c 0
 345 111 372 142 372 181 c 2
 372 326 l 2
 372 365 345 396 310 396 c 0
EndSplineSet
EndChar

StartChar: c
Encoding: 99 99 114
Width: 569
GlyphClass: 2
Flags: MW
HStem: -10 121<210.5 320 278 320> 304 217<376 382 276 545 376 376> 400 121<287.5 306 306 326.5>
VStem: 26 212<235 276 276 330 161.5 343.5> 387 158<181 207 137.5 207>
AnchorPoint: "Bottom" 285 0 basechar 0
LayerCount: 2
Fore
SplineSet
276 521 m 2xb8
 306 521 l 2xb8
 458 521 545 428 545 304 c 1
 376 304 l 1xd8
 376 330 l 2
 376 369 346 400 307 400 c 0
 268 400 238 369 238 330 c 2
 238 181 l 2
 238 142 269 111 308 111 c 2
 320 111 l 2
 359 111 387 142 387 181 c 2
 387 207 l 1
 545 207 l 1
 545 68 451 -10 307 -10 c 2
 278 -10 l 2
 143 -10 26 100 26 235 c 2
 26 276 l 2
 26 411 141 521 276 521 c 2xb8
EndSplineSet
EndChar

StartChar: cacute
Encoding: 263 263 115
Width: 569
GlyphClass: 2
Flags: MW
HStem: -10 121<210.5 320 278 320> 304 217<376 382 276 545 376 376> 400 121<287.5 306 306 326.5> 575 145<304 331 213 455>
VStem: 26 212<235 276 276 330 161.5 343.5> 387 158<181 207 137.5 207>
AnchorPoint: "Bottom" 285 0 basechar 0
LayerCount: 2
Fore
SplineSet
457 717 m 1xbc
 331 575 l 1
 213 575 l 1
 304 720 l 1
 455 720 l 1
 457 717 l 1xbc
276 521 m 2
 306 521 l 2xbc
 458 521 545 428 545 304 c 1
 376 304 l 1xdc
 376 330 l 2
 376 369 346 400 307 400 c 0
 268 400 238 369 238 330 c 2
 238 181 l 2
 238 142 269 111 308 111 c 2
 320 111 l 2
 359 111 387 142 387 181 c 2
 387 207 l 1
 545 207 l 1
 545 68 451 -10 307 -10 c 2
 278 -10 l 2
 143 -10 26 100 26 235 c 2
 26 276 l 2
 26 411 141 521 276 521 c 2
EndSplineSet
EndChar

StartChar: ccaron
Encoding: 269 269 116
Width: 569
GlyphClass: 2
Flags: MW
HStem: -10 121<210.5 320 278 320> 304 217<376 382 276 545 376 376> 400 121<287.5 306 306 326.5> 575 145<82 349 82 221>
VStem: 26 212<235 276 276 330 161.5 343.5> 387 158<181 207 137.5 207>
AnchorPoint: "Bottom" 285 0 basechar 0
LayerCount: 2
Fore
SplineSet
349 575 m 1xbc
 221 575 l 1
 82 720 l 1
 212 720 l 1
 286 643 l 1
 360 720 l 1
 488 720 l 1
 349 575 l 1xbc
276 521 m 2
 306 521 l 2xbc
 458 521 545 428 545 304 c 1
 376 304 l 1xdc
 376 330 l 2
 376 369 346 400 307 400 c 0
 268 400 238 369 238 330 c 2
 238 181 l 2
 238 142 269 111 308 111 c 2
 320 111 l 2
 359 111 387 142 387 181 c 2
 387 207 l 1
 545 207 l 1
 545 68 451 -10 307 -10 c 2
 278 -10 l 2
 143 -10 26 100 26 235 c 2
 26 276 l 2
 26 411 141 521 276 521 c 2
EndSplineSet
EndChar

StartChar: ccedilla
Encoding: 231 231 117
Width: 569
GlyphClass: 2
Flags: MW
HStem: -197 58<279.5 306 272.5 325.5> -76 59<278 296 278 299> -10 121<210.5 320 278 320> 304 217<376 382 276 545 376 376> 400 121<287.5 306 306 326.5>
VStem: 26 212<235 276 276 330 161.5 343.5> 334 87<-119.5 -98> 387 158<181 207 137.5 207>
LayerCount: 2
Fore
SplineSet
276 521 m 2xae
 306 521 l 2xad
 458 521 545 428 545 304 c 1
 376 304 l 1xb5
 376 330 l 2
 376 369 346 400 307 400 c 0
 268 400 238 369 238 330 c 2
 238 181 l 2
 238 142 269 111 308 111 c 2
 320 111 l 2
 359 111 387 142 387 181 c 2
 387 207 l 1
 545 207 l 1xad
 545 68 451 -10 307 -10 c 2
 278 -10 l 2
 143 -10 26 100 26 235 c 2
 26 276 l 2
 26 411 141 521 276 521 c 2xae
278 -17 m 1xce
 299 -17 l 2
 358 -17 421 -34 421 -108 c 0
 421 -181 348 -197 303 -197 c 0
 256 -197 206 -185 177 -161 c 1
 209 -107 l 1
 225 -121 251 -139 294 -139 c 0
 318 -139 334 -131 334 -108 c 0
 334 -88 325 -76 296 -76 c 2
 278 -76 l 1
 278 -17 l 1xce
EndSplineSet
EndChar

StartChar: d
Encoding: 100 100 118
Width: 601
GlyphClass: 2
Flags: MW
HStem: -10 121<273.5 276.5> 396 125<167.5 308.5> 700 20G<353 551 551 551>
VStem: 28 201<250 261 261 326 161.5 348.5> 353 198<181 326 326 345.5 458 720>
LayerCount: 2
Fore
SplineSet
551 0 m 1
 393 0 l 1
 375 59 l 1
 347 24 307 -10 246 -10 c 0
 125 -10 28 75 28 250 c 2
 28 261 l 2
 28 436 114 521 221 521 c 0
 292 521 332 493 353 458 c 1
 353 720 l 1
 551 720 l 1
 551 0 l 1
291 396 m 0
 256 396 229 365 229 326 c 2
 229 181 l 2
 229 142 256 111 291 111 c 0
 326 111 353 142 353 181 c 2
 353 326 l 2
 353 365 326 396 291 396 c 0
EndSplineSet
EndChar

StartChar: eth
Encoding: 240 240 119
Width: 615
GlyphClass: 2
Flags: MW
HStem: -10 121<287.5 291 291 323> 490 20G 665 20G<94 94> 675 20G<303 303> 708 20G<374 374>
VStem: 26 212<245 266 266 330 161.5 335> 376 212<181 245 245 266 169 330 169 349.5>
LayerCount: 2
Fore
SplineSet
96 689 m 1xee
 209 739 l 1xee
 241 728 272 713 303 695 c 1
 374 728 l 1
 429 677 l 1
 370 649 l 1xde
 494 552 588 405 588 266 c 2
 588 245 l 2
 588 93 475 -10 323 -10 c 2
 291 -10 l 2
 139 -10 26 95 26 245 c 2
 26 266 l 2
 26 404 131 494 263 510 c 1
 260 525 247 552 226 580 c 1
 160 549 l 1
 101 600 l 1
 176 635 l 1
 153 656 125 674 94 685 c 1
 96 689 l 1xee
307 400 m 0
 268 400 238 369 238 330 c 2
 238 181 l 2
 238 142 268 111 307 111 c 0
 346 111 376 142 376 181 c 2
 376 330 l 2
 376 369 346 400 307 400 c 0
EndSplineSet
EndChar

StartChar: dcaron
Encoding: 271 271 120
Width: 601
GlyphClass: 2
Flags: MW
HStem: -10 121<273.5 276.5> 338 348<653 747 653 653> 396 125<167.5 308.5> 503 183<606 690 606 797> 503 217<353 690 353 606>
VStem: 28 201<250 261 261 326 161.5 348.5> 353 198<181 326 326 345.5 458 720> 606 191<525 525 525 686 525 686>
LayerCount: 2
Fore
SplineSet
551 0 m 1x97
 393 0 l 1
 375 59 l 1
 347 24 307 -10 246 -10 c 0
 125 -10 28 75 28 250 c 2
 28 261 l 2
 28 436 114 521 221 521 c 0
 292 521 332 493 353 458 c 1xa7
 353 720 l 1
 551 720 l 1x8f
 551 0 l 1x97
797 525 m 1
 747 338 l 1
 653 338 l 1xc7
 690 503 l 1
 606 503 l 1
 606 686 l 1
 797 686 l 1x97
 797 525 l 1
291 396 m 0xa7
 256 396 229 365 229 326 c 2
 229 181 l 2
 229 142 256 111 291 111 c 0
 326 111 353 142 353 181 c 2
 353 326 l 2
 353 365 326 396 291 396 c 0xa7
EndSplineSet
EndChar

StartChar: dcroat
Encoding: 273 273 121
Width: 601
GlyphClass: 2
Flags: MW
HStem: -10 121<273.5 276.5> 396 125<167.5 308.5> 602 74<219 353 219 353 551 601> 602 118<219 551 353 601 353 551>
VStem: 28 201<250 261 261 326 161.5 348.5> 353 198<181 326 326 345.5 458 602 0 602 676 720 0 720>
LayerCount: 2
Fore
SplineSet
601 602 m 1xdc
 551 602 l 1
 551 0 l 1
 393 0 l 1
 375 59 l 1
 347 24 307 -10 246 -10 c 0
 125 -10 28 75 28 250 c 2
 28 261 l 2
 28 436 114 521 221 521 c 0
 292 521 332 493 353 458 c 1
 353 602 l 1
 219 602 l 1xdc
 219 676 l 1
 353 676 l 1xec
 353 720 l 1
 551 720 l 1xdc
 551 676 l 1
 601 676 l 1xec
 601 602 l 1xdc
353 181 m 2
 353 326 l 2
 353 365 326 396 291 396 c 0
 256 396 229 365 229 326 c 2
 229 181 l 2
 229 142 256 111 291 111 c 0
 326 111 353 142 353 181 c 2
EndSplineSet
EndChar

StartChar: e
Encoding: 101 101 122
Width: 601
GlyphClass: 2
Flags: MW
HStem: -10 121<294.5 307 307 322> 229 87<239 377 239 572 239 377> 229 292<300 325 325 403.5 300 572 239 325> 400 121<300 325 325 327.5>
VStem: 27 212<157.5 271 157.5 316 316 330 157.5 351> 377 195<229 330 229 349.5> 388 183<167.5 192>
AnchorPoint: "Bottom" 301 0 basechar 0
LayerCount: 2
Fore
SplineSet
300 521 m 2xac
 325 521 l 2
 482 521 572 424 572 291 c 2
 572 229 l 1
 239 229 l 1
 239 181 l 2
 239 134 273 111 316 111 c 0
 364 111 388 143 388 192 c 1xac
 571 192 l 1xaa
 571 79 480 -10 322 -10 c 2
 307 -10 l 2
 148 -10 27 80 27 240 c 2
 27 271 l 2
 27 431 141 521 300 521 c 2xac
308 400 m 0xdc
 269 400 239 369 239 330 c 2
 239 316 l 1
 377 316 l 1
 377 330 l 2
 377 369 347 400 308 400 c 0xdc
EndSplineSet
EndChar

StartChar: eacute
Encoding: 233 233 123
Width: 601
GlyphClass: 2
Flags: MW
HStem: -10 121<294.5 307 307 322> 229 87<239 377 239 572 239 377> 229 292<300 325 325 403.5 300 572 239 325> 400 121<300 325 325 327.5> 575 145<336 363 245 487>
VStem: 27 212<157.5 271 157.5 316 316 330 157.5 351> 377 195<229 330 229 349.5> 388 183<167.5 192>
LayerCount: 2
Fore
SplineSet
489 717 m 1xae
 363 575 l 1
 245 575 l 1
 336 720 l 1
 487 720 l 1
 489 717 l 1xae
300 521 m 2
 325 521 l 2
 482 521 572 424 572 291 c 2
 572 229 l 1
 239 229 l 1
 239 181 l 2
 239 134 273 111 316 111 c 0
 364 111 388 143 388 192 c 1xae
 571 192 l 1xad
 571 79 480 -10 322 -10 c 2
 307 -10 l 2
 148 -10 27 80 27 240 c 2
 27 271 l 2
 27 431 141 521 300 521 c 2
308 400 m 0xde
 269 400 239 369 239 330 c 2
 239 316 l 1
 377 316 l 1
 377 330 l 2
 377 369 347 400 308 400 c 0xde
EndSplineSet
EndChar

StartChar: ecaron
Encoding: 283 283 124
Width: 601
GlyphClass: 2
Flags: MW
HStem: -10 121<294.5 307 307 322> 229 87<239 377 239 572 239 377> 229 292<300 325 325 403.5 300 572 239 325> 400 121<300 325 325 327.5> 575 145<98 365 98 237>
VStem: 27 212<157.5 271 157.5 316 316 330 157.5 351> 377 195<229 330 229 349.5> 388 183<167.5 192>
AnchorPoint: "Bottom" 301 0 basechar 0
LayerCount: 2
Fore
SplineSet
365 575 m 1xae
 237 575 l 1
 98 720 l 1
 228 720 l 1
 302 643 l 1
 376 720 l 1
 504 720 l 1
 365 575 l 1xae
300 521 m 2
 325 521 l 2
 482 521 572 424 572 291 c 2
 572 229 l 1
 239 229 l 1
 239 181 l 2
 239 134 273 111 316 111 c 0
 364 111 388 143 388 192 c 1xae
 571 192 l 1xad
 571 79 480 -10 322 -10 c 2
 307 -10 l 2
 148 -10 27 80 27 240 c 2
 27 271 l 2
 27 431 141 521 300 521 c 2
308 400 m 0xde
 269 400 239 369 239 330 c 2
 239 316 l 1
 377 316 l 1
 377 330 l 2
 377 369 347 400 308 400 c 0xde
EndSplineSet
EndChar

StartChar: ecircumflex
Encoding: 234 234 125
Width: 601
GlyphClass: 2
Flags: MW
HStem: -10 121<294.5 307 307 322> 229 87<239 377 239 572 239 377> 229 292<300 325 325 403.5 300 572 239 325> 400 121<300 325 325 327.5> 575 145<105 372 105 372 244 511 244 381> 652 68<307 307>
VStem: 27 212<157.5 271 157.5 316 316 330 157.5 351> 377 195<229 330 229 349.5> 388 183<167.5 192>
LayerCount: 2
Fore
SplineSet
511 575 m 1xab
 381 575 l 1xaa80
 307 652 l 1xa7
 233 575 l 1
 105 575 l 1
 244 720 l 1
 372 720 l 1
 511 575 l 1xab
300 521 m 2
 325 521 l 2
 482 521 572 424 572 291 c 2
 572 229 l 1
 239 229 l 1
 239 181 l 2
 239 134 273 111 316 111 c 0
 364 111 388 143 388 192 c 1xab
 571 192 l 1
 571 79 480 -10 322 -10 c 2
 307 -10 l 2
 148 -10 27 80 27 240 c 2
 27 271 l 2
 27 431 141 521 300 521 c 2
308 400 m 0xdb
 269 400 239 369 239 330 c 2
 239 316 l 1
 377 316 l 1
 377 330 l 2
 377 369 347 400 308 400 c 0xdb
EndSplineSet
EndChar

StartChar: edieresis
Encoding: 235 235 126
Width: 601
GlyphClass: 2
Flags: MW
HStem: -10 121<294.5 307 307 322> 229 87<239 377 239 572 239 377> 229 292<300 325 325 403.5 300 572 239 325> 400 121<300 325 325 327.5> 573 147<122 274 122 274 122 342 342 494>
VStem: 27 212<157.5 271 157.5 316 316 330 157.5 351> 122 152<573 720 573 720> 342 152<573 720 573 720> 377 195<229 330 229 349.5> 388 183<167.5 192>
LayerCount: 2
Fore
SplineSet
274 573 m 1xab
 122 573 l 1
 122 720 l 1
 274 720 l 1
 274 573 l 1xab
494 573 m 1
 342 573 l 1
 342 720 l 1
 494 720 l 1
 494 573 l 1
300 521 m 2
 325 521 l 2
 482 521 572 424 572 291 c 2
 572 229 l 1
 239 229 l 1
 239 181 l 2
 239 134 273 111 316 111 c 0
 364 111 388 143 388 192 c 1xac80
 571 192 l 1
 571 79 480 -10 322 -10 c 2
 307 -10 l 2
 148 -10 27 80 27 240 c 2
 27 271 l 2xac40
 27 431 141 521 300 521 c 2
308 400 m 0xdc80
 269 400 239 369 239 330 c 2
 239 316 l 1
 377 316 l 1
 377 330 l 2
 377 369 347 400 308 400 c 0xdc80
EndSplineSet
EndChar

StartChar: edotaccent
Encoding: 279 279 127
Width: 601
GlyphClass: 2
Flags: MW
HStem: -10 121<294.5 307 307 322> 229 87<239 377 239 572 239 377> 229 292<300 325 325 403.5 300 572 239 325> 400 121<300 325 325 327.5> 604 132<282.5 318.5>
VStem: 27 212<157.5 271 157.5 316 316 330 157.5 351> 235 132<652 688 650.5 688.5> 377 195<229 330 229 349.5> 388 183<167.5 192>
AnchorPoint: "Bottom" 301 0 basechar 0
LayerCount: 2
Fore
SplineSet
301 736 m 0xab
 338 736 367 706 367 670 c 0
 367 631 337 604 300 604 c 0
 265 604 235 634 235 670 c 0
 235 707 264 736 301 736 c 0xab
300 521 m 2
 325 521 l 2
 482 521 572 424 572 291 c 2
 572 229 l 1
 239 229 l 1
 239 181 l 2
 239 134 273 111 316 111 c 0
 364 111 388 143 388 192 c 1xad
 571 192 l 1
 571 79 480 -10 322 -10 c 2
 307 -10 l 2
 148 -10 27 80 27 240 c 2
 27 271 l 2xac80
 27 431 141 521 300 521 c 2
308 400 m 0xdd
 269 400 239 369 239 330 c 2
 239 316 l 1
 377 316 l 1
 377 330 l 2
 377 369 347 400 308 400 c 0xdd
EndSplineSet
EndChar

StartChar: egrave
Encoding: 232 232 128
Width: 601
GlyphClass: 2
Flags: MW
HStem: -10 121<294.5 307 307 322> 229 87<239 377 239 572 239 377> 229 292<300 325 325 403.5 300 572 239 325> 400 121<300 325 325 327.5> 575 145<247 274 123 365 247 247>
VStem: 27 212<157.5 271 157.5 316 316 330 157.5 351> 377 195<229 330 229 349.5> 388 183<167.5 192>
LayerCount: 2
Fore
SplineSet
365 575 m 1xae
 247 575 l 1
 121 717 l 1
 123 720 l 1
 274 720 l 1
 365 575 l 1xae
300 521 m 2
 325 521 l 2
 482 521 572 424 572 291 c 2
 572 229 l 1
 239 229 l 1
 239 181 l 2
 239 134 273 111 316 111 c 0
 364 111 388 143 388 192 c 1xae
 571 192 l 1xad
 571 79 480 -10 322 -10 c 2
 307 -10 l 2
 148 -10 27 80 27 240 c 2
 27 271 l 2
 27 431 141 521 300 521 c 2
308 400 m 0xde
 269 400 239 369 239 330 c 2
 239 316 l 1
 377 316 l 1
 377 330 l 2
 377 369 347 400 308 400 c 0xde
EndSplineSet
EndChar

StartChar: emacron
Encoding: 275 275 129
Width: 601
GlyphClass: 2
Flags: MW
HStem: -10 121<294.5 307 307 322> 229 87<239 377 239 572 239 377> 229 292<300 325 325 403.5 300 572 239 325> 400 121<300 325 325 327.5> 662 74<142 460 142 460>
VStem: 27 212<157.5 271 157.5 316 316 330 157.5 351> 142 318<662 736 662 736> 377 195<229 330 229 349.5> 388 183<167.5 192>
AnchorPoint: "Bottom" 301 0 basechar 0
LayerCount: 2
Fore
SplineSet
460 662 m 1xaa
 142 662 l 1
 142 736 l 1
 460 736 l 1
 460 662 l 1xaa
300 521 m 2
 325 521 l 2
 482 521 572 424 572 291 c 2
 572 229 l 1
 239 229 l 1
 239 181 l 2
 239 134 273 111 316 111 c 0
 364 111 388 143 388 192 c 1xad
 571 192 l 1
 571 79 480 -10 322 -10 c 2
 307 -10 l 2
 148 -10 27 80 27 240 c 2
 27 271 l 2xac80
 27 431 141 521 300 521 c 2
308 400 m 0xdd
 269 400 239 369 239 330 c 2
 239 316 l 1
 377 316 l 1
 377 330 l 2
 377 369 347 400 308 400 c 0xdd
EndSplineSet
EndChar

StartChar: eogonek
Encoding: 281 281 130
Width: 601
GlyphClass: 2
Flags: MW
HStem: -143 53<398.5 403.5> -20 20G<408 412 412 412> -10 121<294.5 307 307 322 322 328> 229 87<239 377 239 377 239 572> 229 292<239 325 300 325 325 403.5 300 572> 400 121<300 325 325 327.5>
VStem: 27 212<157.5 271 316 330 157.5 351> 288 77<-69.5 -58> 377 195<229 330 229 349.5> 388 183<167.5 192>
AnchorPoint: "Bottom" 301 0 basechar 0
LayerCount: 2
Fore
SplineSet
239 229 m 1xca80
 239 181 l 2
 239 134 273 111 316 111 c 0
 364 111 388 143 388 192 c 1xb680
 571 192 l 1xaa40
 571 101 513 26 408 0 c 1
 412 0 l 1xcb80
 393 -12 365 -29 365 -56 c 0
 365 -83 388 -90 409 -90 c 0
 432 -90 455 -84 476 -76 c 1
 489 -119 l 1
 457 -135 422 -143 385 -143 c 0
 339 -143 288 -126 288 -71 c 0
 288 -45 308 -25 328 -10 c 1
 322 -10 l 1
 307 -10 l 2xab80
 148 -10 27 80 27 240 c 2
 27 271 l 2
 27 431 141 521 300 521 c 2
 325 521 l 2
 482 521 572 424 572 291 c 2
 572 229 l 1
 239 229 l 1xca80
239 316 m 1
 377 316 l 1
 377 330 l 2
 377 369 347 400 308 400 c 0
 269 400 239 369 239 330 c 2
 239 316 l 1
EndSplineSet
EndChar

StartChar: f
Encoding: 102 102 131
Width: 419
GlyphClass: 2
Flags: MW
HStem: 369 142<25 89 25 89 287 407> 606 122<218 351.5>
VStem: 89 198<0 369 0 369 511 548 0 577>
LayerCount: 2
Fore
SplineSet
272 728 m 0
 306 728 373 720 406 706 c 1
 406 596 l 1
 391 601 359 606 344 606 c 0
 319 606 287 603 287 548 c 2
 287 511 l 1
 407 511 l 1
 407 369 l 1
 287 369 l 1
 287 0 l 1
 89 0 l 1
 89 369 l 1
 25 369 l 1
 25 511 l 1
 89 511 l 1
 89 577 l 2
 89 685 164 728 272 728 c 0
EndSplineSet
EndChar

StartChar: g
Encoding: 103 103 132
Width: 590
GlyphClass: 2
Flags: MW
HStem: -188 105<91 361 218 361 361 375 218 389> 0 139<204 429 266 361> 200 97<245.5 312.5 277.5 312.5 277.5 335> 423 98<277.5 305 305 312.5> 495 20G
VStem: 4 164<-68 -29.5 -52.5 -38.5> 47 187<342.5 377.5 342.5 404.5> 356 179<342.5 377.5> 411 178<-53.5 -30.5> 441 148<594.5 603>
LayerCount: 2
Fore
SplineSet
441 603 m 1xea40
 589 603 l 1xea40
 589 522 548 487 479 468 c 1
 514 440 535 402 535 361 c 0xeb
 535 272 444 200 335 200 c 2
 266 200 l 2
 225 200 209 186 209 170 c 0
 209 153 219 139 266 139 c 2
 429 139 l 2
 539 139 589 74 589 -17 c 0
 589 -108 498 -188 389 -188 c 2
 124 -188 l 2
 58 -188 4 -134 4 -68 c 2
 4 -63 l 2
 4 -14 40 27 80 46 c 1
 51 66 32 98 32 133 c 0xf480
 32 184 73 227 124 240 c 1
 81 269 47 311 47 360 c 0
 47 449 121 521 277 521 c 2
 305 521 l 2xf3
 329 521 351 519 371 515 c 1
 427 552 441 586 441 603 c 1xea40
295 423 m 0xf3
 260 423 234 395 234 360 c 0
 234 325 260 297 295 297 c 0
 330 297 356 325 356 360 c 0
 356 395 330 423 295 423 c 0xf3
361 0 m 2xf480
 218 0 l 2
 190 0 168 -18 168 -41 c 0
 168 -64 190 -83 218 -83 c 2
 361 -83 l 2
 389 -83 411 -65 411 -42 c 0
 411 -19 389 0 361 0 c 2xf480
EndSplineSet
EndChar

StartChar: gbreve
Encoding: 287 287 133
Width: 590
GlyphClass: 2
Flags: MW
HStem: -188 105<91 361 218 361 361 375 218 389> 0 139<204 429 266 361> 200 97<245.5 312.5 277.5 312.5 277.5 335> 423 98<277.5 305 305 312.5> 495 20G 613 86<268.5 322 268.5 348.5>
VStem: 4 164<-68 -29.5 -52.5 -38.5> 47 187<342.5 377.5 342.5 404.5> 103 96<731.5 737 731.5 737> 356 179<342.5 377.5> 393 95<731.5 737> 411 178<-53.5 -30.5>
LayerCount: 2
Fore
SplineSet
393 737 m 1xeca0
 488 737 l 1
 488 681 402 613 295 613 c 0
 188 613 103 681 103 737 c 1
 199 737 l 1
 199 726 242 699 295 699 c 0
 349 699 393 726 393 737 c 1xeca0
441 603 m 1
 589 603 l 1
 589 522 548 487 479 468 c 1
 514 440 535 402 535 361 c 0xed40
 535 272 444 200 335 200 c 2
 266 200 l 2
 225 200 209 186 209 170 c 0
 209 153 219 139 266 139 c 2
 429 139 l 2
 539 139 589 74 589 -17 c 0
 589 -108 498 -188 389 -188 c 2
 124 -188 l 2
 58 -188 4 -134 4 -68 c 2
 4 -63 l 2
 4 -14 40 27 80 46 c 1
 51 66 32 98 32 133 c 0xf610
 32 184 73 227 124 240 c 1
 81 269 47 311 47 360 c 0
 47 449 121 521 277 521 c 2
 305 521 l 2xf540
 329 521 351 519 371 515 c 1
 427 552 441 586 441 603 c 1
295 423 m 0xf540
 260 423 234 395 234 360 c 0
 234 325 260 297 295 297 c 0
 330 297 356 325 356 360 c 0
 356 395 330 423 295 423 c 0xf540
361 0 m 2xf610
 218 0 l 2
 190 0 168 -18 168 -41 c 0
 168 -64 190 -83 218 -83 c 2
 361 -83 l 2
 389 -83 411 -65 411 -42 c 0
 411 -19 389 0 361 0 c 2xf610
EndSplineSet
EndChar

StartChar: gcommaaccent
Encoding: 291 291 134
Width: 590
GlyphClass: 2
Flags: MW
HStem: -188 105<91 361 218 361 361 375 218 389> 0 139<204 429 266 361> 200 97<245.5 312.5 277.5 312.5 277.5 335> 423 98<277.5 305 305 312.5> 495 20G 601 151<296 381 296 381 190 381>
VStem: 4 164<-68 -29.5 -52.5 -38.5> 47 187<342.5 377.5 342.5 404.5> 190 191<601 720 720 720> 356 179<342.5 377.5> 411 178<-53.5 -30.5>
LayerCount: 2
Fore
SplineSet
190 720 m 1xf480
 218 831 l 1
 312 831 l 1
 296 752 l 1
 381 752 l 1
 381 601 l 1
 190 601 l 1
 190 720 l 1xf480
441 603 m 1xec80
 589 603 l 1
 589 522 548 487 479 468 c 1
 514 440 535 402 535 361 c 0xec40
 535 272 444 200 335 200 c 2
 266 200 l 2
 225 200 209 186 209 170 c 0
 209 153 219 139 266 139 c 2
 429 139 l 2
 539 139 589 74 589 -17 c 0
 589 -108 498 -188 389 -188 c 2
 124 -188 l 2
 58 -188 4 -134 4 -68 c 2
 4 -63 l 2
 4 -14 40 27 80 46 c 1
 51 66 32 98 32 133 c 0xf6a0
 32 184 73 227 124 240 c 1
 81 269 47 311 47 360 c 0
 47 449 121 521 277 521 c 2
 305 521 l 2xf5
 329 521 351 519 371 515 c 1
 427 552 441 586 441 603 c 1xec80
295 423 m 0xf540
 260 423 234 395 234 360 c 0
 234 325 260 297 295 297 c 0
 330 297 356 325 356 360 c 0
 356 395 330 423 295 423 c 0xf540
361 0 m 2xf6a0
 218 0 l 2
 190 0 168 -18 168 -41 c 0
 168 -64 190 -83 218 -83 c 2
 361 -83 l 2
 389 -83 411 -65 411 -42 c 0
 411 -19 389 0 361 0 c 2xf6a0
EndSplineSet
EndChar

StartChar: h
Encoding: 104 104 135
Width: 599
GlyphClass: 2
Flags: MW
HStem: 0 521<50 402 50 402 374 402 402 443.5 374 552 354 402> 0 720<50 248 50 248 50 552 50 354> 380 141<286.5 402>
VStem: 50 198<0 320 451 720> 354 198<0 320 320 336.5>
LayerCount: 2
Fore
SplineSet
248 720 m 1x58
 248 451 l 1
 267 479 305 521 374 521 c 2
 402 521 l 2
 485 521 552 454 552 371 c 2
 552 0 l 1
 354 0 l 1x98
 354 320 l 2
 354 353 330 380 301 380 c 0
 272 380 248 353 248 320 c 2x38
 248 0 l 1
 50 0 l 1x98
 50 720 l 1
 248 720 l 1x58
EndSplineSet
EndChar

StartChar: i
Encoding: 105 105 136
Width: 297
GlyphClass: 2
Flags: MW
HStem: 0 510<50 247 50 247> 577 143<50 247 50 247>
VStem: 50 197<0 510 577 720>
LayerCount: 2
Fore
SplineSet
247 577 m 1
 50 577 l 1
 50 720 l 1
 247 720 l 1
 247 577 l 1
247 0 m 1
 50 0 l 1
 50 510 l 1
 247 510 l 1
 247 0 l 1
EndSplineSet
EndChar

StartChar: dotlessi
Encoding: 305 305 137
Width: 297
GlyphClass: 2
Flags: MW
HStem: 0 510<50 247 50 247>
VStem: 50 197<0 510>
LayerCount: 2
Fore
SplineSet
247 0 m 1
 50 0 l 1
 50 510 l 1
 247 510 l 1
 247 0 l 1
EndSplineSet
EndChar

StartChar: iacute
Encoding: 237 237 138
Width: 297
GlyphClass: 2
Flags: MW
HStem: 0 510<50 247 50 247> 575 145<174 201 83 325>
VStem: 50 197<0 510>
LayerCount: 2
Fore
SplineSet
327 717 m 1
 201 575 l 1
 83 575 l 1
 174 720 l 1
 325 720 l 1
 327 717 l 1
247 0 m 1
 50 0 l 1
 50 510 l 1
 247 510 l 1
 247 0 l 1
EndSplineSet
EndChar

StartChar: icircumflex
Encoding: 238 238 139
Width: 297
GlyphClass: 2
Flags: MW
HStem: 0 510<50 247 50 247> 575 145<-54 213 -54 213 85 352 85 222> 652 68<148 148>
VStem: 50 197<0 510>
LayerCount: 2
Fore
SplineSet
352 575 m 1xd0
 222 575 l 1xd0
 148 652 l 1xb0
 74 575 l 1
 -54 575 l 1
 85 720 l 1
 213 720 l 1
 352 575 l 1xd0
247 0 m 1
 50 0 l 1
 50 510 l 1
 247 510 l 1
 247 0 l 1
EndSplineSet
EndChar

StartChar: idieresis
Encoding: 239 239 140
Width: 297
GlyphClass: 2
Flags: MW
HStem: 0 510<50 247 50 247> 573 147<-37 115 -37 115 -37 183 183 335>
VStem: -37 152<573 720 573 720> 50 197<0 510> 183 152<573 720 573 720>
LayerCount: 2
Fore
SplineSet
115 573 m 1xd0
 -37 573 l 1
 -37 720 l 1xe8
 115 720 l 1
 115 573 l 1xd0
335 573 m 1
 183 573 l 1
 183 720 l 1xd0
 335 720 l 1
 335 573 l 1
247 0 m 1
 50 0 l 1
 50 510 l 1
 247 510 l 1
 247 0 l 1
EndSplineSet
EndChar

StartChar: igrave
Encoding: 236 236 141
Width: 297
GlyphClass: 2
Flags: MW
HStem: 0 510<50 247 50 247> 575 145<92 119 -32 210 92 92>
VStem: 50 197<0 510>
LayerCount: 2
Fore
SplineSet
210 575 m 1
 92 575 l 1
 -34 717 l 1
 -32 720 l 1
 119 720 l 1
 210 575 l 1
247 0 m 1
 50 0 l 1
 50 510 l 1
 247 510 l 1
 247 0 l 1
EndSplineSet
EndChar

StartChar: imacron
Encoding: 299 299 142
Width: 297
GlyphClass: 2
Flags: MW
HStem: 0 510<50 247 50 247> 662 74<-10 308 -10 308>
VStem: 50 197<0 510>
LayerCount: 2
Fore
SplineSet
308 662 m 1
 -10 662 l 1
 -10 736 l 1
 308 736 l 1
 308 662 l 1
247 0 m 1
 50 0 l 1
 50 510 l 1
 247 510 l 1
 247 0 l 1
EndSplineSet
EndChar

StartChar: iogonek
Encoding: 303 303 143
Width: 297
GlyphClass: 2
Flags: MW
HStem: -143 53<224.5 229.5> 0 510<50 168 50 247 238 238 238 247> 577 143<50 247 50 247>
VStem: 50 197<0 510 0 510 577 720>
LayerCount: 2
Fore
SplineSet
247 577 m 1
 50 577 l 1
 50 720 l 1
 247 720 l 1
 247 577 l 1
302 -76 m 1
 315 -119 l 1
 283 -135 248 -143 211 -143 c 0
 165 -143 114 -126 114 -71 c 0
 114 -39 144 -16 168 0 c 1
 50 0 l 1
 50 510 l 1
 247 510 l 1
 247 0 l 1
 238 0 l 1
 219 -12 191 -29 191 -56 c 0
 191 -83 214 -90 235 -90 c 0
 258 -90 281 -84 302 -76 c 1
EndSplineSet
EndChar

StartChar: j
Encoding: 106 106 144
Width: 299
GlyphClass: 2
Flags: MW
HStem: -187 122<-13.5 120.5> 490 20G<50 249 249 249> 577 143<50 249 50 249>
VStem: 50 199<4 510 577 720>
LayerCount: 2
Fore
SplineSet
249 577 m 1
 50 577 l 1
 50 720 l 1
 249 720 l 1
 249 577 l 1
249 510 m 1
 249 -26 l 2
 249 -134 175 -187 66 -187 c 0
 32 -187 -36 -178 -68 -165 c 1
 -68 -53 l 1
 -53 -60 -21 -65 -6 -65 c 0
 22 -65 50 -55 50 4 c 2
 50 510 l 1
 249 510 l 1
EndSplineSet
EndChar

StartChar: k
Encoding: 107 107 145
Width: 603
GlyphClass: 2
Flags: MW
HStem: 0 511<50 604 50 604 378 604 378 607 374 604> 0 720<50 248 50 248 50 607 50 374>
VStem: 50 198<0 114 321 720>
AnchorPoint: "Bottom" 302 0 basechar 0
LayerCount: 2
Fore
SplineSet
248 321 m 1xa0
 378 511 l 1
 604 511 l 1
 425 280 l 1
 607 0 l 1
 374 0 l 1
 284 145 l 1
 248 114 l 1
 248 0 l 1
 50 0 l 1xa0
 50 720 l 1
 248 720 l 1x60
 248 321 l 1xa0
EndSplineSet
EndChar

StartChar: kcommaaccent
Encoding: 311 311 146
Width: 603
GlyphClass: 2
Flags: MW
HStem: -171 151<206 291 206 397> 0 511<50 604 50 604 378 604 378 607 374 604> 0 720<50 248 50 248 50 607 50 374>
VStem: 50 198<0 114 321 720> 206 191<-139 -139 -139 -20 -139 -20>
AnchorPoint: "Bottom" 302 0 basechar 0
LayerCount: 2
Fore
SplineSet
248 321 m 1x50
 378 511 l 1
 604 511 l 1
 425 280 l 1
 607 0 l 1
 374 0 l 1
 284 145 l 1
 248 114 l 1
 248 0 l 1
 50 0 l 1x50
 50 720 l 1
 248 720 l 1x30
 248 321 l 1x50
397 -139 m 1xc8
 369 -250 l 1x48
 275 -250 l 1
 291 -171 l 1
 206 -171 l 1
 206 -20 l 1xd0
 397 -20 l 1
 397 -139 l 1xc8
EndSplineSet
EndChar

StartChar: l
Encoding: 108 108 147
Width: 298
GlyphClass: 2
Flags: MW
HStem: 0 720<50 248 50 248>
VStem: 50 198<0 720>
AnchorPoint: "Bottom" 149 0 basechar 0
LayerCount: 2
Fore
SplineSet
248 0 m 1
 50 0 l 1
 50 720 l 1
 248 720 l 1
 248 0 l 1
EndSplineSet
EndChar

StartChar: lacute
Encoding: 314 314 148
Width: 298
GlyphClass: 2
Flags: MW
HStem: 0 720<50 248 50 248> 700 20G<50 248 248 248> 750 145<168 195 77 319>
VStem: 50 198<0 720>
AnchorPoint: "Bottom" 149 0 basechar 0
LayerCount: 2
Fore
SplineSet
321 892 m 1x70
 195 750 l 1
 77 750 l 1
 168 895 l 1
 319 895 l 1
 321 892 l 1x70
248 0 m 1x90
 50 0 l 1
 50 720 l 1
 248 720 l 1
 248 0 l 1x90
EndSplineSet
EndChar

StartChar: lcaron
Encoding: 318 318 149
Width: 298
GlyphClass: 2
Flags: MW
HStem: 338 348<328 422 328 328> 503 183<281 365 281 472> 503 217<50 365 50 281>
VStem: 50 198<0 720> 281 191<525 525 525 686 525 686>
AnchorPoint: "Bottom" 149 0 basechar 0
LayerCount: 2
Fore
SplineSet
248 0 m 1x58
 50 0 l 1
 50 720 l 1
 248 720 l 1x38
 248 0 l 1x58
472 525 m 1
 422 338 l 1
 328 338 l 1x98
 365 503 l 1
 281 503 l 1
 281 686 l 1
 472 686 l 1x58
 472 525 l 1
EndSplineSet
EndChar

StartChar: lcommaaccent
Encoding: 316 316 150
Width: 298
GlyphClass: 2
Flags: MW
HStem: -171 151<53 138 53 244> 0 720<50 248 50 248> 700 20G<50 248 248 248>
VStem: 50 198<0 720>
AnchorPoint: "Bottom" 149 0 basechar 0
LayerCount: 2
Fore
SplineSet
248 0 m 1xd0
 50 0 l 1
 50 720 l 1
 248 720 l 1
 248 0 l 1xd0
244 -139 m 1
 216 -250 l 1
 122 -250 l 1
 138 -171 l 1
 53 -171 l 1
 53 -20 l 1
 244 -20 l 1xb0
 244 -139 l 1
EndSplineSet
EndChar

StartChar: lslash
Encoding: 322 322 151
Width: 349
GlyphClass: 2
Flags: MW
HStem: 0 720<76 274 76 274> 499 20G<335 335> 700 20G<76 274 274 274>
VStem: 76 198<0 285 285 285 488 720>
LayerCount: 2
Fore
SplineSet
274 488 m 1x70
 335 519 l 1x70
 335 414 l 1
 274 384 l 1
 274 0 l 1
 76 0 l 1x90
 76 285 l 1
 17 255 l 1
 17 360 l 1
 76 389 l 1
 76 720 l 1
 274 720 l 1
 274 488 l 1x70
EndSplineSet
EndChar

StartChar: m
Encoding: 109 109 152
Width: 871
GlyphClass: 2
Flags: MW
HStem: 0 511<50 198 50 244 50 198 50 534 50 340 50 824 50 630> 0 521<50 384 50 384 357 384 384 412.5 357 534 340 384 647 674 674 715.5 357 824 357 630> 379 142<278.5 384>
VStem: 50 194<0 324 0 511 0 511> 340 194<0 324 0 340.5> 630 194<0 324 324 340.5>
LayerCount: 2
Fore
SplineSet
647 521 m 2x5c
 674 521 l 2
 757 521 824 454 824 371 c 2
 824 0 l 1
 630 0 l 1x5c
 630 324 l 2
 630 357 609 379 582 379 c 0
 555 379 534 357 534 324 c 2x3c
 534 0 l 1
 340 0 l 1x5c
 340 324 l 2
 340 357 319 379 292 379 c 0
 265 379 244 357 244 324 c 2x3c
 244 0 l 1
 50 0 l 1x5c
 50 511 l 1
 198 511 l 1x9c
 219 437 l 1
 236 459 284 521 357 521 c 2
 384 521 l 2
 441 521 490 490 515 443 c 1
 542 490 590 521 647 521 c 2x5c
EndSplineSet
EndChar

StartChar: n
Encoding: 110 110 153
Width: 599
GlyphClass: 2
Flags: MW
HStem: 0 511<50 199 50 248 50 199 50 552 50 354> 380 141<286.5 402>
VStem: 50 198<0 320 0 511 0 511> 354 198<0 320 320 336.5>
AnchorPoint: "Bottom" 300 0 basechar 0
LayerCount: 2
Fore
SplineSet
374 521 m 2x70
 402 521 l 2x70
 485 521 552 454 552 371 c 2
 552 0 l 1
 354 0 l 1xb0
 354 320 l 2
 354 353 330 380 301 380 c 0
 272 380 248 353 248 320 c 2x70
 248 0 l 1
 50 0 l 1
 50 511 l 1
 199 511 l 1xb0
 219 437 l 1
 234 460 278 521 374 521 c 2x70
EndSplineSet
EndChar

StartChar: nacute
Encoding: 324 324 154
Width: 599
GlyphClass: 2
Flags: MW
HStem: 0 511<50 199 50 248 50 199 50 552 50 354> 380 141<286.5 402> 575 145<319 346 228 470>
VStem: 50 198<0 320 0 511 0 511> 354 198<0 320 320 336.5>
AnchorPoint: "Bottom" 300 0 basechar 0
LayerCount: 2
Fore
SplineSet
472 717 m 1xb8
 346 575 l 1
 228 575 l 1
 319 720 l 1
 470 720 l 1
 472 717 l 1xb8
374 521 m 2x78
 402 521 l 2x78
 485 521 552 454 552 371 c 2
 552 0 l 1
 354 0 l 1xb8
 354 320 l 2
 354 353 330 380 301 380 c 0
 272 380 248 353 248 320 c 2x78
 248 0 l 1
 50 0 l 1
 50 511 l 1
 199 511 l 1xb8
 219 437 l 1
 234 460 278 521 374 521 c 2x78
EndSplineSet
EndChar

StartChar: ncaron
Encoding: 328 328 155
Width: 599
GlyphClass: 2
Flags: MW
HStem: 0 511<50 199 50 248 50 199 50 552 50 354> 380 141<286.5 402> 575 145<97 364 97 236>
VStem: 50 198<0 320 0 511 0 511> 354 198<0 320 320 336.5>
AnchorPoint: "Bottom" 300 0 basechar 0
LayerCount: 2
Fore
SplineSet
364 575 m 1xb8
 236 575 l 1
 97 720 l 1
 227 720 l 1
 301 643 l 1
 375 720 l 1
 503 720 l 1
 364 575 l 1xb8
374 521 m 2x78
 402 521 l 2x78
 485 521 552 454 552 371 c 2
 552 0 l 1
 354 0 l 1xb8
 354 320 l 2
 354 353 330 380 301 380 c 0
 272 380 248 353 248 320 c 2x78
 248 0 l 1
 50 0 l 1
 50 511 l 1
 199 511 l 1xb8
 219 437 l 1
 234 460 278 521 374 521 c 2x78
EndSplineSet
EndChar

StartChar: ncommaaccent
Encoding: 326 326 156
Width: 599
GlyphClass: 2
Flags: MW
HStem: -171 151<204 289 204 395> 0 511<50 199 50 248 50 199 50 552 50 354> 380 141<286.5 402>
VStem: 50 198<0 320 0 511 0 511> 354 198<0 320 320 336.5>
AnchorPoint: "Bottom" 300 0 basechar 0
LayerCount: 2
Fore
SplineSet
374 521 m 2x38
 402 521 l 2xb8
 485 521 552 454 552 371 c 2
 552 0 l 1
 354 0 l 1x58
 354 320 l 2
 354 353 330 380 301 380 c 0
 272 380 248 353 248 320 c 2x38
 248 0 l 1
 50 0 l 1
 50 511 l 1
 199 511 l 1x58
 219 437 l 1
 234 460 278 521 374 521 c 2x38
395 -139 m 1
 367 -250 l 1
 273 -250 l 1
 289 -171 l 1
 204 -171 l 1
 204 -20 l 1
 395 -20 l 1
 395 -139 l 1
EndSplineSet
EndChar

StartChar: ntilde
Encoding: 241 241 157
Width: 599
GlyphClass: 2
Flags: MW
HStem: 0 511<50 199 50 248 50 199 50 552 50 354> 380 141<286.5 402> 577 103<379 416.5 377.5 433.5> 577 143<91 263 91 263 192.5 433.5> 617 103<209.5 228.5>
VStem: 50 198<0 320 0 511 0 511> 354 198<0 320 320 336.5>
LayerCount: 2
Fore
SplineSet
454 720 m 1x96
 535 720 l 1x56
 535 648 472 577 395 577 c 0
 363 577 332 586 304 596 c 2xa6
 262 610 l 2
 249 614 235 617 222 617 c 0x8e
 197 617 179 600 172 577 c 1
 91 577 l 1
 91 649 154 720 231 720 c 0x96
 295 720 351 680 404 680 c 0xa6
 429 680 447 697 454 720 c 1x96
374 521 m 2
 402 521 l 2x56
 485 521 552 454 552 371 c 2
 552 0 l 1
 354 0 l 1x96
 354 320 l 2
 354 353 330 380 301 380 c 0
 272 380 248 353 248 320 c 2x56
 248 0 l 1
 50 0 l 1
 50 511 l 1
 199 511 l 1x96
 219 437 l 1
 234 460 278 521 374 521 c 2
EndSplineSet
EndChar

StartChar: o
Encoding: 111 111 158
Width: 614
GlyphClass: 2
Flags: MW
HStem: -10 121<287.5 291 291 323> 400 121<291 323 323 326.5>
VStem: 26 212<245 266 266 330 161.5 341.5> 376 212<181 245 245 266 169 330 169 349.5>
LayerCount: 2
Fore
SplineSet
291 521 m 2
 323 521 l 2
 475 521 588 417 588 266 c 2
 588 245 l 2
 588 93 475 -10 323 -10 c 2
 291 -10 l 2
 139 -10 26 95 26 245 c 2
 26 266 l 2
 26 417 139 521 291 521 c 2
307 400 m 0
 268 400 238 369 238 330 c 2
 238 181 l 2
 238 142 268 111 307 111 c 0
 346 111 376 142 376 181 c 2
 376 330 l 2
 376 369 346 400 307 400 c 0
EndSplineSet
Substitution2: "Single Substitution lookup 5 subtable" ordmasculine
Substitution2: "'aalt' Access All Alternates lookup 0 subtable" ordmasculine
EndChar

StartChar: oacute
Encoding: 243 243 159
Width: 614
GlyphClass: 2
Flags: MW
HStem: -10 121<287.5 291 291 323> 400 121<291 323 323 326.5> 575 145<340 367 249 491>
VStem: 26 212<245 266 266 330 161.5 341.5> 376 212<181 245 245 266 169 330 169 349.5>
LayerCount: 2
Fore
SplineSet
493 717 m 1
 367 575 l 1
 249 575 l 1
 340 720 l 1
 491 720 l 1
 493 717 l 1
291 521 m 2
 323 521 l 2
 475 521 588 417 588 266 c 2
 588 245 l 2
 588 93 475 -10 323 -10 c 2
 291 -10 l 2
 139 -10 26 95 26 245 c 2
 26 266 l 2
 26 417 139 521 291 521 c 2
307 400 m 0
 268 400 238 369 238 330 c 2
 238 181 l 2
 238 142 268 111 307 111 c 0
 346 111 376 142 376 181 c 2
 376 330 l 2
 376 369 346 400 307 400 c 0
EndSplineSet
EndChar

StartChar: ocircumflex
Encoding: 244 244 160
Width: 614
GlyphClass: 2
Flags: MW
HStem: -10 121<287.5 291 291 323> 400 121<291 323 323 326.5> 575 145<103 370 103 370 242 509 242 379> 652 68<305 305>
VStem: 26 212<245 266 266 330 161.5 341.5> 376 212<181 245 245 266 169 330 169 349.5>
LayerCount: 2
Fore
SplineSet
509 575 m 1xec
 379 575 l 1xec
 305 652 l 1xdc
 231 575 l 1
 103 575 l 1
 242 720 l 1
 370 720 l 1
 509 575 l 1xec
291 521 m 2
 323 521 l 2
 475 521 588 417 588 266 c 2
 588 245 l 2
 588 93 475 -10 323 -10 c 2
 291 -10 l 2
 139 -10 26 95 26 245 c 2
 26 266 l 2
 26 417 139 521 291 521 c 2
307 400 m 0
 268 400 238 369 238 330 c 2
 238 181 l 2
 238 142 268 111 307 111 c 0
 346 111 376 142 376 181 c 2
 376 330 l 2
 376 369 346 400 307 400 c 0
EndSplineSet
EndChar

StartChar: odieresis
Encoding: 246 246 161
Width: 614
GlyphClass: 2
Flags: MW
HStem: -10 121<287.5 291 291 323> 400 121<291 323 323 326.5> 573 147<120 272 120 272 120 340 340 492>
VStem: 26 212<245 266 266 330 161.5 341.5> 120 152<573 720 573 720> 340 152<573 720 573 720> 376 212<181 245 245 266 169 330 169 349.5>
LayerCount: 2
Fore
SplineSet
272 573 m 1xec
 120 573 l 1
 120 720 l 1
 272 720 l 1
 272 573 l 1xec
492 573 m 1
 340 573 l 1
 340 720 l 1
 492 720 l 1
 492 573 l 1
291 521 m 2
 323 521 l 2
 475 521 588 417 588 266 c 2
 588 245 l 2
 588 93 475 -10 323 -10 c 2
 291 -10 l 2
 139 -10 26 95 26 245 c 2
 26 266 l 2xf2
 26 417 139 521 291 521 c 2
307 400 m 0
 268 400 238 369 238 330 c 2
 238 181 l 2
 238 142 268 111 307 111 c 0
 346 111 376 142 376 181 c 2
 376 330 l 2
 376 369 346 400 307 400 c 0
EndSplineSet
EndChar

StartChar: ograve
Encoding: 242 242 162
Width: 614
GlyphClass: 2
Flags: MW
HStem: -10 121<287.5 291 291 323> 400 121<291 323 323 326.5> 575 145<246 273 122 364 246 246>
VStem: 26 212<245 266 266 330 161.5 341.5> 376 212<181 245 245 266 169 330 169 349.5>
LayerCount: 2
Fore
SplineSet
364 575 m 1
 246 575 l 1
 120 717 l 1
 122 720 l 1
 273 720 l 1
 364 575 l 1
291 521 m 2
 323 521 l 2
 475 521 588 417 588 266 c 2
 588 245 l 2
 588 93 475 -10 323 -10 c 2
 291 -10 l 2
 139 -10 26 95 26 245 c 2
 26 266 l 2
 26 417 139 521 291 521 c 2
307 400 m 0
 268 400 238 369 238 330 c 2
 238 181 l 2
 238 142 268 111 307 111 c 0
 346 111 376 142 376 181 c 2
 376 330 l 2
 376 369 346 400 307 400 c 0
EndSplineSet
EndChar

StartChar: ohungarumlaut
Encoding: 337 337 163
Width: 614
GlyphClass: 2
Flags: MW
HStem: -10 121<287.5 291 291 323> 400 121<291 323 323 326.5> 575 145<192 219 101 343 328 328 328 343 419 446>
VStem: 26 212<245 266 266 330 161.5 341.5> 376 212<181 245 245 266 169 330 169 349.5>
LayerCount: 2
Fore
SplineSet
345 717 m 1
 219 575 l 1
 101 575 l 1
 192 720 l 1
 343 720 l 1
 345 717 l 1
572 717 m 1
 446 575 l 1
 328 575 l 1
 419 720 l 1
 570 720 l 1
 572 717 l 1
291 521 m 2
 323 521 l 2
 475 521 588 417 588 266 c 2
 588 245 l 2
 588 93 475 -10 323 -10 c 2
 291 -10 l 2
 139 -10 26 95 26 245 c 2
 26 266 l 2
 26 417 139 521 291 521 c 2
307 400 m 0
 268 400 238 369 238 330 c 2
 238 181 l 2
 238 142 268 111 307 111 c 0
 346 111 376 142 376 181 c 2
 376 330 l 2
 376 369 346 400 307 400 c 0
EndSplineSet
EndChar

StartChar: omacron
Encoding: 333 333 164
Width: 614
GlyphClass: 2
Flags: MW
HStem: -10 121<287.5 291 291 323> 400 121<291 323 323 326.5> 662 74<148 466 148 466>
VStem: 26 212<245 266 266 330 161.5 341.5> 148 318<662 736 662 736> 376 212<181 245 245 266 169 330 169 349.5>
LayerCount: 2
Fore
SplineSet
466 662 m 1xe8
 148 662 l 1
 148 736 l 1
 466 736 l 1
 466 662 l 1xe8
291 521 m 2
 323 521 l 2
 475 521 588 417 588 266 c 2
 588 245 l 2
 588 93 475 -10 323 -10 c 2
 291 -10 l 2
 139 -10 26 95 26 245 c 2
 26 266 l 2xf4
 26 417 139 521 291 521 c 2
307 400 m 0
 268 400 238 369 238 330 c 2
 238 181 l 2
 238 142 268 111 307 111 c 0
 346 111 376 142 376 181 c 2
 376 330 l 2
 376 369 346 400 307 400 c 0
EndSplineSet
EndChar

StartChar: oslash
Encoding: 248 248 165
Width: 614
GlyphClass: 2
Flags: MW
HStem: -10 121<272.5 326.5 299.5 323> 400 121<291 314>
VStem: 26 212<245 266 266 330 220 341.5> 376 212<181 245 245 266 169 292 169 292>
LayerCount: 2
Fore
SplineSet
552 569 m 1
 489 470 l 1
 550 425 588 354 588 266 c 2
 588 245 l 2
 588 93 475 -10 323 -10 c 2
 291 -10 l 2
 254 -10 222 -5 194 6 c 1
 155 -55 l 1
 63 -55 l 1
 125 42 l 1
 64 87 26 157 26 245 c 2
 26 266 l 2
 26 417 139 521 291 521 c 2
 323 521 l 2
 358 521 391 516 420 505 c 1
 460 569 l 1
 552 569 l 1
307 400 m 0
 268 400 238 369 238 330 c 2
 238 220 l 1
 345 388 l 1
 334 396 321 400 307 400 c 0
376 292 m 1
 268 123 l 1
 279 115 292 111 307 111 c 0
 346 111 376 142 376 181 c 2
 376 292 l 1
EndSplineSet
EndChar

StartChar: otilde
Encoding: 245 245 166
Width: 614
GlyphClass: 2
Flags: MW
HStem: -10 121<287.5 291 291 323> 400 121<291 323 323 326.5> 577 103<374 411.5 372.5 428.5> 577 143<86 258 86 258 187.5 428.5> 617 103<204.5 223.5>
VStem: 26 212<245 266 266 330 161.5 341.5> 376 212<181 245 245 266 169 330 169 349.5>
LayerCount: 2
Fore
SplineSet
449 720 m 1xd6
 530 720 l 1xd6
 530 648 467 577 390 577 c 0
 358 577 328 587 300 596 c 2xe6
 258 610 l 2
 244 615 230 617 217 617 c 0xce
 192 617 174 600 167 577 c 1
 86 577 l 1
 86 649 149 720 226 720 c 0xd6
 290 720 346 680 399 680 c 0xe6
 424 680 442 697 449 720 c 1xd6
291 521 m 2
 323 521 l 2
 475 521 588 417 588 266 c 2
 588 245 l 2
 588 93 475 -10 323 -10 c 2
 291 -10 l 2
 139 -10 26 95 26 245 c 2
 26 266 l 2
 26 417 139 521 291 521 c 2
307 400 m 0
 268 400 238 369 238 330 c 2
 238 181 l 2
 238 142 268 111 307 111 c 0
 346 111 376 142 376 181 c 2
 376 330 l 2
 376 369 346 400 307 400 c 0
EndSplineSet
EndChar

StartChar: oe
Encoding: 339 339 167
Width: 944
GlyphClass: 2
Flags: MW
HStem: -10 121<287.5 291 291 323 637.5 650 650 665> 229 87<582 720 582 915 582 720> 400 121<291 323 323 326.5 643 668 668 670.5>
VStem: 26 212<245 266 266 330 161.5 341.5> 376 206<181 229 157.5 316 316 330 157.5 349.5> 720 195<229 330 229 349.5> 731 183<167.5 192>
LayerCount: 2
Fore
SplineSet
643 521 m 2xfc
 668 521 l 2
 825 521 915 424 915 291 c 2
 915 229 l 1
 582 229 l 1
 582 181 l 2
 582 134 616 111 659 111 c 0
 707 111 731 143 731 192 c 1xfc
 914 192 l 1xfa
 914 79 823 -10 665 -10 c 2
 650 -10 l 2
 583 -10 526 5 479 34 c 1
 436 6 383 -10 323 -10 c 2
 291 -10 l 2
 139 -10 26 95 26 245 c 2
 26 266 l 2
 26 417 139 521 291 521 c 2
 323 521 l 2
 382 521 433 507 477 478 c 1
 523 507 578 521 643 521 c 2xfc
307 400 m 0
 268 400 238 369 238 330 c 2
 238 181 l 2
 238 142 268 111 307 111 c 0
 346 111 376 142 376 181 c 2
 376 330 l 2
 376 369 346 400 307 400 c 0
651 400 m 0
 612 400 582 369 582 330 c 2
 582 316 l 1
 720 316 l 1
 720 330 l 2
 720 369 690 400 651 400 c 0
EndSplineSet
EndChar

StartChar: p
Encoding: 112 112 168
Width: 601
GlyphClass: 2
Flags: MW
HStem: -10 125<292.5 433.5> 400 121<324.5 327.5> 491 20G<50 208 208 208>
VStem: 50 198<-181 53 165.5 185 185 330> 372 201<185 250 250 261 162.5 330 162.5 349.5>
LayerCount: 2
Fore
SplineSet
355 521 m 0xd8
 476 521 573 436 573 261 c 2
 573 250 l 2
 573 75 487 -10 380 -10 c 0
 309 -10 269 18 248 53 c 1
 248 -181 l 1
 50 -181 l 1
 50 511 l 1
 208 511 l 1xb8
 226 452 l 1
 252 486 294 521 355 521 c 0xd8
310 400 m 0
 275 400 248 369 248 330 c 2
 248 185 l 2
 248 146 275 115 310 115 c 0
 345 115 372 146 372 185 c 2
 372 330 l 2
 372 369 345 400 310 400 c 0
EndSplineSet
EndChar

StartChar: thorn
Encoding: 254 254 169
Width: 601
GlyphClass: 2
Flags: MW
HStem: -10 125<292.5 433.5> 400 121<292.5 433.5> 700 20G<50 248 248 248>
VStem: 50 198<-181 53 165.5 185 185 330 458 720> 372 201<185 250 250 261 162.5 330 162.5 349.5>
LayerCount: 2
Fore
SplineSet
248 720 m 1
 248 458 l 1
 269 493 309 521 380 521 c 0
 487 521 573 436 573 261 c 2
 573 250 l 2
 573 75 487 -10 380 -10 c 0
 309 -10 269 18 248 53 c 1
 248 -181 l 1
 50 -181 l 1
 50 720 l 1
 248 720 l 1
310 400 m 0
 275 400 248 369 248 330 c 2
 248 185 l 2
 248 146 275 115 310 115 c 0
 345 115 372 146 372 185 c 2
 372 330 l 2
 372 369 345 400 310 400 c 0
EndSplineSet
EndChar

StartChar: q
Encoding: 113 113 170
Width: 600
GlyphClass: 2
Flags: MW
HStem: -180 691<480 550 480 550 352 550> -11 125<166.5 307.5> 399 121<272.5 280 183.5 307.5>
VStem: 27 201<249 260 260 329 164.5 347.5> 352 198<-180 52 52 52 184 329 329 348.5>
LayerCount: 2
Fore
SplineSet
244 520 m 0x78
 316 520 365 498 404 443 c 1x78
 480 511 l 1
 550 511 l 1
 550 -180 l 1
 352 -180 l 1x98
 352 52 l 1
 331 28 290 -11 220 -11 c 0
 113 -11 27 74 27 249 c 2
 27 260 l 2
 27 435 123 520 244 520 c 0x78
290 399 m 0
 255 399 228 368 228 329 c 2
 228 184 l 2
 228 145 255 114 290 114 c 0
 325 114 352 145 352 184 c 2
 352 329 l 2
 352 368 325 399 290 399 c 0
EndSplineSet
EndChar

StartChar: r
Encoding: 114 114 171
Width: 506
GlyphClass: 2
Flags: MW
HStem: 0 511<50 198 50 243 50 198> 304 217<328 399.5 313.5 490 328 328> 378 143<274 399.5>
VStem: 50 193<0 328 0 511 0 511> 328 166<304 367 328 367>
AnchorPoint: "Bottom" 147 0 basechar 0
LayerCount: 2
Fore
SplineSet
355 521 m 0x58
 444 521 494 468 494 384 c 2
 494 367 l 2
 494 359 493 344 492 329 c 2
 490 304 l 1
 328 304 l 1x58
 328 328 l 2
 328 356 309 378 286 378 c 0
 262 378 243 356 243 328 c 2x38
 243 0 l 1
 50 0 l 1
 50 511 l 1
 198 511 l 1x98
 220 437 l 1
 227 452 272 521 355 521 c 0x58
EndSplineSet
EndChar

StartChar: racute
Encoding: 341 341 172
Width: 506
GlyphClass: 2
Flags: MW
HStem: 0 511<50 198 50 243 50 198> 304 217<328 399.5 313.5 490 328 328> 378 143<274 399.5> 575 145<168 195 77 319>
VStem: 50 193<0 328 0 511 0 511> 328 166<304 367 328 367>
AnchorPoint: "Bottom" 147 0 basechar 0
LayerCount: 2
Fore
SplineSet
321 717 m 1x5c
 195 575 l 1
 77 575 l 1
 168 720 l 1
 319 720 l 1
 321 717 l 1x5c
355 521 m 0
 444 521 494 468 494 384 c 2
 494 367 l 2
 494 359 493 344 492 329 c 2
 490 304 l 1
 328 304 l 1x5c
 328 328 l 2
 328 356 309 378 286 378 c 0
 262 378 243 356 243 328 c 2x3c
 243 0 l 1
 50 0 l 1
 50 511 l 1
 198 511 l 1x9c
 220 437 l 1
 227 452 272 521 355 521 c 0
EndSplineSet
EndChar

StartChar: rcaron
Encoding: 345 345 173
Width: 506
GlyphClass: 2
Flags: MW
HStem: 0 511<50 198 50 243 50 198> 304 217<328 399.5 313.5 490 328 328> 378 143<274 399.5> 575 145<-54 213 -54 85>
VStem: 50 193<0 328 0 511 0 511> 328 166<304 367 328 367>
AnchorPoint: "Bottom" 147 0 basechar 0
LayerCount: 2
Fore
SplineSet
213 575 m 1x5c
 85 575 l 1
 -54 720 l 1
 76 720 l 1
 150 643 l 1
 224 720 l 1
 352 720 l 1
 213 575 l 1x5c
355 521 m 0
 444 521 494 468 494 384 c 2
 494 367 l 2
 494 359 493 344 492 329 c 2
 490 304 l 1
 328 304 l 1x5c
 328 328 l 2
 328 356 309 378 286 378 c 0
 262 378 243 356 243 328 c 2x3c
 243 0 l 1
 50 0 l 1
 50 511 l 1
 198 511 l 1x9c
 220 437 l 1
 227 452 272 521 355 521 c 0
EndSplineSet
EndChar

StartChar: rcommaaccent
Encoding: 343 343 174
Width: 506
GlyphClass: 2
Flags: MW
HStem: -171 151<51 136 51 242> 0 511<50 198 50 243 50 198> 304 217<328 399.5 313.5 490 328 328> 378 143<274 399.5>
VStem: 50 193<0 328 0 511 0 511> 328 166<304 367 328 367>
AnchorPoint: "Bottom" 147 0 basechar 0
LayerCount: 2
Fore
SplineSet
355 521 m 0xac
 444 521 494 468 494 384 c 2
 494 367 l 2
 494 359 493 344 492 329 c 2
 490 304 l 1
 328 304 l 1xac
 328 328 l 2
 328 356 309 378 286 378 c 0
 262 378 243 356 243 328 c 2x9c
 243 0 l 1
 50 0 l 1
 50 511 l 1
 198 511 l 1xcc
 220 437 l 1
 227 452 272 521 355 521 c 0xac
242 -139 m 1
 214 -250 l 1
 120 -250 l 1
 136 -171 l 1
 51 -171 l 1
 51 -20 l 1
 242 -20 l 1
 242 -139 l 1
EndSplineSet
EndChar

StartChar: s
Encoding: 115 115 175
Width: 559
GlyphClass: 2
Flags: MW
HStem: -10 121<189.5 280.5 253.5 280.5 253.5 295> 187.76 146.84 358 163<273 519 273 355> 403 118<275.5 299>
VStem: 22 163<149 158 158 159.5> 38 173<337.5 388.5 337.5 410.5> 355 166<358 431> 356 176<127 179.5>
AnchorPoint: "Bottom" 280 0 basechar 0
LayerCount: 2
Fore
SplineSet
273 521 m 2xd5
 304 521 l 2xd6
 392 521 521 478 521 384 c 0
 521 370 519 362 519 358 c 1
 355 358 l 1xe6
 355 394 313 403 285 403 c 0
 266 403 211 403 211 374 c 0xd5
 211 301 532 393 532 170 c 0
 532 34 412 -10 295 -10 c 2
 243 -10 l 2
 136 -10 22 40 22 149 c 2
 22 158 l 2
 22 161 22 164 23 167 c 2
 185 167 l 1
 185 163 l 2xd9
 185 120 236 111 271 111 c 0
 290 111 356 112 356 142 c 0
 356 217 38 134 38 349 c 0
 38 472 169 521 273 521 c 2xd5
EndSplineSet
EndChar

StartChar: sacute
Encoding: 347 347 176
Width: 559
GlyphClass: 2
Flags: MW
HStem: -10 121<189.5 280.5 253.5 280.5 253.5 295> 187.76 146.84 358 163<273 519 273 355> 403 118<275.5 299> 575 145<299 326 208 450>
VStem: 22 163<149 158 158 159.5> 38 173<337.5 388.5 337.5 410.5> 355 166<358 431> 356 176<127 179.5>
AnchorPoint: "Bottom" 280 0 basechar 0
LayerCount: 2
Fore
SplineSet
452 717 m 1xda80
 326 575 l 1
 208 575 l 1
 299 720 l 1
 450 720 l 1
 452 717 l 1xda80
273 521 m 2
 304 521 l 2xdb
 392 521 521 478 521 384 c 0
 521 370 519 362 519 358 c 1
 355 358 l 1xeb
 355 394 313 403 285 403 c 0
 266 403 211 403 211 374 c 0xda80
 211 301 532 393 532 170 c 0
 532 34 412 -10 295 -10 c 2
 243 -10 l 2
 136 -10 22 40 22 149 c 2
 22 158 l 2
 22 161 22 164 23 167 c 2
 185 167 l 1
 185 163 l 2xdc80
 185 120 236 111 271 111 c 0
 290 111 356 112 356 142 c 0
 356 217 38 134 38 349 c 0
 38 472 169 521 273 521 c 2
EndSplineSet
EndChar

StartChar: scaron
Encoding: 353 353 177
Width: 559
GlyphClass: 2
Flags: MW
HStem: -10 121<189.5 280.5 253.5 280.5 253.5 295> 187.76 146.84 358 163<273 519 273 355> 403 118<275.5 299> 575 145<79 346 79 218>
VStem: 22 163<149 158 158 159.5> 38 173<337.5 388.5 337.5 410.5> 355 166<358 431> 356 176<127 179.5>
LayerCount: 2
Fore
SplineSet
346 575 m 1xda80
 218 575 l 1
 79 720 l 1
 209 720 l 1
 283 643 l 1
 357 720 l 1
 485 720 l 1
 346 575 l 1xda80
273 521 m 2
 304 521 l 2xdb
 392 521 521 478 521 384 c 0
 521 370 519 362 519 358 c 1
 355 358 l 1xeb
 355 394 313 403 285 403 c 0
 266 403 211 403 211 374 c 0xda80
 211 301 532 393 532 170 c 0
 532 34 412 -10 295 -10 c 2
 243 -10 l 2
 136 -10 22 40 22 149 c 2
 22 158 l 2
 22 161 22 164 23 167 c 2
 185 167 l 1
 185 163 l 2xdc80
 185 120 236 111 271 111 c 0
 290 111 356 112 356 142 c 0
 356 217 38 134 38 349 c 0
 38 472 169 521 273 521 c 2
EndSplineSet
EndChar

StartChar: scedilla
Encoding: 351 351 178
Width: 559
GlyphClass: 2
Flags: MW
HStem: -197 58<260.5 287 253.5 306.5> -76 59<259 277 259 280> -10 121<189.5 280.5 253.5 280.5 253.5 295> 187.76 146.84 358 163<273 519 273 355> 403 118<275.5 299>
VStem: 22 163<149 158 158 159.5> 38 173<337.5 388.5 337.5 410.5> 315 87<-119.5 -98> 355 166<358 431> 356 176<127 179.5>
AnchorPoint: "Bottom" 280 0 basechar 0
LayerCount: 2
Fore
SplineSet
273 521 m 2xb520
 304 521 l 2xb540
 392 521 521 478 521 384 c 0
 521 370 519 362 519 358 c 1
 355 358 l 1xb940
 355 394 313 403 285 403 c 0
 266 403 211 403 211 374 c 0xb520
 211 301 532 393 532 170 c 0
 532 34 412 -10 295 -10 c 2
 243 -10 l 2
 136 -10 22 40 22 149 c 2
 22 158 l 2
 22 161 22 164 23 167 c 2
 185 167 l 1
 185 163 l 2xb620
 185 120 236 111 271 111 c 0
 290 111 356 112 356 142 c 0
 356 217 38 134 38 349 c 0
 38 472 169 521 273 521 c 2xb520
259 -17 m 1xd580
 280 -17 l 2
 339 -17 402 -34 402 -108 c 0
 402 -181 329 -197 284 -197 c 0
 237 -197 187 -185 158 -161 c 1
 190 -107 l 1
 206 -121 232 -139 275 -139 c 0
 299 -139 315 -131 315 -108 c 0
 315 -88 306 -76 277 -76 c 2
 259 -76 l 1
 259 -17 l 1xd580
EndSplineSet
EndChar

StartChar: scommaaccent
Encoding: 537 537 179
Width: 559
GlyphClass: 2
Flags: MW
HStem: -171 151<184 269 184 375> -10 121<189.5 280.5 253.5 280.5 253.5 295> 187.76 146.84 358 163<273 519 273 355> 403 118<275.5 299>
VStem: 22 163<149 158 158 159.5> 38 173<337.5 388.5 337.5 410.5> 184 191<-139 -139 -139 -20 -139 -20> 355 166<358 431> 356 176<127 179.5>
AnchorPoint: "Bottom" 280 0 basechar 0
LayerCount: 2
Fore
SplineSet
273 521 m 2xa9
 304 521 l 2xa880
 392 521 521 478 521 384 c 0
 521 370 519 362 519 358 c 1
 355 358 l 1xb080
 355 394 313 403 285 403 c 0
 266 403 211 403 211 374 c 0xaa40
 211 301 532 393 532 170 c 0
 532 34 412 -10 295 -10 c 2
 243 -10 l 2
 136 -10 22 40 22 149 c 2
 22 158 l 2
 22 161 22 164 23 167 c 2
 185 167 l 1
 185 163 l 2xec40
 185 120 236 111 271 111 c 0
 290 111 356 112 356 142 c 0
 356 217 38 134 38 349 c 0xea40
 38 472 169 521 273 521 c 2xa9
375 -139 m 1xa9
 347 -250 l 1
 253 -250 l 1
 269 -171 l 1
 184 -171 l 1
 184 -20 l 1
 375 -20 l 1
 375 -139 l 1xa9
EndSplineSet
EndChar

StartChar: germandbls
Encoding: 223 223 180
Width: 652
GlyphClass: 2
Flags: MW
HStem: 0 148<321 349 349 371 321 384 321 349> 321 122<321 348 348 349 321 348> 369 142<25 87 25 87> 579 149<331 366.5>
VStem: 87 198<-66 369 369 369 -66 511> 321 186<390 395 390 443 390 443> 412 189<509 530.5> 430 197<210.5 257 145 258>
LayerCount: 2
Fore
SplineSet
349 728 m 0xba
 466 728 601 681 601 541 c 0xba
 601 477 566 419 507 395 c 1
 507 390 l 1xbc
 579 365 627 295 627 219 c 0
 627 71 524 0 384 0 c 2
 321 0 l 1
 321 148 l 1
 349 148 l 2
 393 148 430 187 430 234 c 0
 430 282 394 321 349 321 c 2
 321 321 l 1
 321 443 l 1xd9
 348 443 l 2xda
 384 443 412 472 412 511 c 0
 412 550 384 579 349 579 c 0
 313 579 285 550 285 511 c 2
 285 -66 l 1
 87 -66 l 1
 87 369 l 1
 25 369 l 1
 25 511 l 1
 87 511 l 1
 95 650 221 728 349 728 c 0xba
EndSplineSet
EndChar

StartChar: t
Encoding: 116 116 181
Width: 419
GlyphClass: 2
Flags: MW
HStem: -11 122<208 341.5> 369 142<23 79 23 87 277 397>
VStem: 79 198<150.5 180 180 369 150.5 369>
AnchorPoint: "Bottom" 210 0 basechar 0
LayerCount: 2
Fore
SplineSet
277 511 m 1
 397 511 l 1
 397 369 l 1
 277 369 l 1
 277 180 l 2
 277 121 306 111 334 111 c 0
 349 111 380 116 396 123 c 1
 396 11 l 1
 363 -3 296 -11 262 -11 c 0
 154 -11 79 22 79 130 c 2
 79 369 l 1
 23 369 l 1
 23 511 l 1
 87 511 l 1
 156 674 l 1
 277 674 l 1
 277 511 l 1
EndSplineSet
EndChar

StartChar: tcaron
Encoding: 357 357 182
Width: 419
GlyphClass: 2
Flags: MW
HStem: -11 122<208 341.5> 338 348<479 573 479 479> 369 142<23 79 23 87 277 397> 503 183<432 516 432 623>
VStem: 79 198<150.5 180 180 369 150.5 369> 432 191<525 525 525 686 525 686>
AnchorPoint: "Bottom" 210 0 basechar 0
LayerCount: 2
Fore
SplineSet
623 525 m 1x2c
 573 338 l 1
 479 338 l 1x4c
 516 503 l 1
 432 503 l 1
 432 686 l 1
 623 686 l 1x1c
 623 525 l 1x2c
277 511 m 1xac
 397 511 l 1
 397 369 l 1
 277 369 l 1
 277 180 l 2
 277 121 306 111 334 111 c 0
 349 111 380 116 396 123 c 1
 396 11 l 1
 363 -3 296 -11 262 -11 c 0
 154 -11 79 22 79 130 c 2
 79 369 l 1
 23 369 l 1
 23 511 l 1
 87 511 l 1
 156 674 l 1
 277 674 l 1
 277 511 l 1xac
EndSplineSet
EndChar

StartChar: tcedilla
Encoding: 355 355 183
Width: 419
GlyphClass: 2
Flags: MW
HStem: -197 58<190.5 217 183.5 236.5> -76 59<189 207 189 210> -11 122<208 341.5> 369 142<23 79 23 87 277 397>
VStem: 79 198<150.5 180 180 369 150.5 369> 189 207<-76 123 -17 123> 245 87<-119.5 -98>
AnchorPoint: "Bottom" 210 0 basechar 0
LayerCount: 2
Fore
SplineSet
277 511 m 1xd8
 397 511 l 1
 397 369 l 1
 277 369 l 1
 277 180 l 2
 277 121 306 111 334 111 c 0xb8
 349 111 380 116 396 123 c 1
 396 11 l 1xb4
 363 -3 296 -11 262 -11 c 0xb8
 154 -11 79 22 79 130 c 2
 79 369 l 1
 23 369 l 1
 23 511 l 1
 87 511 l 1
 156 674 l 1
 277 674 l 1
 277 511 l 1xd8
189 -17 m 1xd2
 210 -17 l 2
 269 -17 332 -34 332 -108 c 0
 332 -181 259 -197 214 -197 c 0
 167 -197 117 -185 88 -161 c 1
 120 -107 l 1
 136 -121 162 -139 205 -139 c 0
 229 -139 245 -131 245 -108 c 0
 245 -88 236 -76 207 -76 c 2
 189 -76 l 1
 189 -17 l 1xd2
EndSplineSet
EndChar

StartChar: tcommaaccent
Encoding: 539 539 184
Width: 419
GlyphClass: 2
Flags: MW
HStem: -171 151<114 199 114 305> -11 122<208 341.5> 369 142<23 79 23 87 277 397>
VStem: 79 198<150.5 180 180 369> 114 191<-139 -139 -139 -20 -139 -20>
AnchorPoint: "Bottom" 210 0 basechar 0
LayerCount: 2
Fore
SplineSet
277 511 m 1xb0
 397 511 l 1
 397 369 l 1
 277 369 l 1
 277 180 l 2
 277 121 306 111 334 111 c 0
 349 111 380 116 396 123 c 1
 396 11 l 1
 363 -3 296 -11 262 -11 c 0xf0
 154 -11 79 22 79 130 c 2
 79 369 l 1
 23 369 l 1
 23 511 l 1
 87 511 l 1
 156 674 l 1
 277 674 l 1
 277 511 l 1xb0
305 -139 m 1xa8
 277 -250 l 1
 183 -250 l 1
 199 -171 l 1xb0
 114 -171 l 1
 114 -20 l 1
 305 -20 l 1
 305 -139 l 1xa8
EndSplineSet
EndChar

StartChar: u
Encoding: 117 117 185
Width: 628
GlyphClass: 2
Flags: MW
HStem: -10 121<468.5 585> -10 141<154.5 311.5 196 311.5> -10 521<154.5 196 196 224 468.5 539>
VStem: 46 198<174.5 191 191 511> 350 198<191 511>
LayerCount: 2
Fore
SplineSet
548 511 m 1x38
 548 148 l 2
 548 121 564 111 579 111 c 0
 591 111 603 114 614 120 c 1x98
 614 13 l 1
 596 0 565 -10 513 -10 c 0
 424 -10 385 20 366 71 c 1
 351 48 295 -10 224 -10 c 2
 196 -10 l 2
 113 -10 46 57 46 140 c 2
 46 511 l 1
 244 511 l 1x38
 244 191 l 2
 244 158 268 131 297 131 c 0
 326 131 350 158 350 191 c 2x58
 350 511 l 1
 548 511 l 1x38
EndSplineSet
EndChar

StartChar: uacute
Encoding: 250 250 186
Width: 628
GlyphClass: 2
Flags: MW
HStem: -10 121<468.5 585> -10 141<154.5 311.5 196 311.5> -10 521<154.5 196 196 224 468.5 539> 575 145<321 348 230 472>
VStem: 46 198<174.5 191 191 511> 350 198<191 511>
LayerCount: 2
Fore
SplineSet
474 717 m 1x3c
 348 575 l 1
 230 575 l 1
 321 720 l 1
 472 720 l 1
 474 717 l 1x3c
548 511 m 1
 548 148 l 2
 548 121 564 111 579 111 c 0
 591 111 603 114 614 120 c 1x9c
 614 13 l 1
 596 0 565 -10 513 -10 c 0
 424 -10 385 20 366 71 c 1
 351 48 295 -10 224 -10 c 2
 196 -10 l 2
 113 -10 46 57 46 140 c 2
 46 511 l 1
 244 511 l 1x3c
 244 191 l 2
 244 158 268 131 297 131 c 0
 326 131 350 158 350 191 c 2x5c
 350 511 l 1
 548 511 l 1
EndSplineSet
EndChar

StartChar: ucircumflex
Encoding: 251 251 187
Width: 628
GlyphClass: 2
Flags: MW
HStem: -10 121<468.5 585> -10 141<154.5 311.5 196 311.5> -10 521<154.5 196 196 224 468.5 539> 575 145<94 361 94 361 233 500 233 370> 652 68<296 296>
VStem: 46 198<174.5 191 191 511> 350 198<191 511>
LayerCount: 2
Fore
SplineSet
500 575 m 1x36
 370 575 l 1x36
 296 652 l 1x2e
 222 575 l 1
 94 575 l 1
 233 720 l 1
 361 720 l 1
 500 575 l 1x36
548 511 m 1
 548 148 l 2
 548 121 564 111 579 111 c 0
 591 111 603 114 614 120 c 1x96
 614 13 l 1
 596 0 565 -10 513 -10 c 0
 424 -10 385 20 366 71 c 1
 351 48 295 -10 224 -10 c 2
 196 -10 l 2
 113 -10 46 57 46 140 c 2
 46 511 l 1
 244 511 l 1x36
 244 191 l 2
 244 158 268 131 297 131 c 0
 326 131 350 158 350 191 c 2x56
 350 511 l 1
 548 511 l 1
EndSplineSet
EndChar

StartChar: udieresis
Encoding: 252 252 188
Width: 628
GlyphClass: 2
Flags: MW
HStem: -10 121<468.5 585> -10 141<154.5 311.5 196 311.5> -10 521<154.5 196 196 224 468.5 539> 573 147<111 263 111 263 111 331 331 483>
VStem: 46 198<174.5 191 191 511> 111 152<573 720 573 720> 331 152<573 720 573 720> 350 198<191 511>
LayerCount: 2
Fore
SplineSet
263 573 m 1x36
 111 573 l 1
 111 720 l 1
 263 720 l 1
 263 573 l 1x36
483 573 m 1
 331 573 l 1
 331 720 l 1
 483 720 l 1
 483 573 l 1
548 511 m 1x39
 548 148 l 2
 548 121 564 111 579 111 c 0
 591 111 603 114 614 120 c 1x99
 614 13 l 1
 596 0 565 -10 513 -10 c 0
 424 -10 385 20 366 71 c 1
 351 48 295 -10 224 -10 c 2
 196 -10 l 2
 113 -10 46 57 46 140 c 2
 46 511 l 1
 244 511 l 1x39
 244 191 l 2
 244 158 268 131 297 131 c 0
 326 131 350 158 350 191 c 2x59
 350 511 l 1
 548 511 l 1x39
EndSplineSet
EndChar

StartChar: ugrave
Encoding: 249 249 189
Width: 628
GlyphClass: 2
Flags: MW
HStem: -10 121<468.5 585> -10 141<154.5 311.5 196 311.5> -10 521<154.5 196 196 224 468.5 539> 575 145<240 267 116 358 240 240>
VStem: 46 198<174.5 191 191 511> 350 198<191 511>
LayerCount: 2
Fore
SplineSet
358 575 m 1x3c
 240 575 l 1
 114 717 l 1
 116 720 l 1
 267 720 l 1
 358 575 l 1x3c
548 511 m 1
 548 148 l 2
 548 121 564 111 579 111 c 0
 591 111 603 114 614 120 c 1x9c
 614 13 l 1
 596 0 565 -10 513 -10 c 0
 424 -10 385 20 366 71 c 1
 351 48 295 -10 224 -10 c 2
 196 -10 l 2
 113 -10 46 57 46 140 c 2
 46 511 l 1
 244 511 l 1x3c
 244 191 l 2
 244 158 268 131 297 131 c 0
 326 131 350 158 350 191 c 2x5c
 350 511 l 1
 548 511 l 1
EndSplineSet
EndChar

StartChar: uhungarumlaut
Encoding: 369 369 190
Width: 628
GlyphClass: 2
Flags: MW
HStem: -10 121<468.5 585> -10 141<154.5 311.5 196 311.5> -10 521<154.5 196 196 224 468.5 539> 575 145<199 226 108 350 335 335 335 350 426 453>
VStem: 46 198<174.5 191 191 511> 350 198<191 511>
LayerCount: 2
Fore
SplineSet
352 717 m 1x3c
 226 575 l 1
 108 575 l 1
 199 720 l 1
 350 720 l 1
 352 717 l 1x3c
579 717 m 1
 453 575 l 1
 335 575 l 1
 426 720 l 1
 577 720 l 1
 579 717 l 1
548 511 m 1
 548 148 l 2
 548 121 564 111 579 111 c 0
 591 111 603 114 614 120 c 1x9c
 614 13 l 1
 596 0 565 -10 513 -10 c 0
 424 -10 385 20 366 71 c 1
 351 48 295 -10 224 -10 c 2
 196 -10 l 2
 113 -10 46 57 46 140 c 2
 46 511 l 1
 244 511 l 1x3c
 244 191 l 2
 244 158 268 131 297 131 c 0
 326 131 350 158 350 191 c 2x5c
 350 511 l 1
 548 511 l 1
EndSplineSet
EndChar

StartChar: umacron
Encoding: 363 363 191
Width: 628
GlyphClass: 2
Flags: MW
HStem: -10 121<468.5 585> -10 141<154.5 311.5 196 311.5> -10 521<154.5 196 196 224 468.5 539> 662 74<155 473 155 473>
VStem: 46 198<174.5 191 191 511> 350 198<191 511>
LayerCount: 2
Fore
SplineSet
473 662 m 1x3c
 155 662 l 1
 155 736 l 1
 473 736 l 1
 473 662 l 1x3c
548 511 m 1
 548 148 l 2
 548 121 564 111 579 111 c 0
 591 111 603 114 614 120 c 1x9c
 614 13 l 1
 596 0 565 -10 513 -10 c 0
 424 -10 385 20 366 71 c 1
 351 48 295 -10 224 -10 c 2
 196 -10 l 2
 113 -10 46 57 46 140 c 2
 46 511 l 1
 244 511 l 1x3c
 244 191 l 2
 244 158 268 131 297 131 c 0
 326 131 350 158 350 191 c 2x5c
 350 511 l 1
 548 511 l 1
EndSplineSet
EndChar

StartChar: uogonek
Encoding: 371 371 192
Width: 628
GlyphClass: 2
Flags: MW
HStem: -143 53<552.5 557.5> -10 141<154.5 311.5 196 311.5> -10 521<154.5 196 196 224>
VStem: 46 198<174.5 191 191 511> 350 198<191 511> 442 77<-69.5 -57.5>
LayerCount: 2
Fore
SplineSet
630 -76 m 1xb8
 643 -119 l 1
 611 -135 576 -143 539 -143 c 0
 493 -143 442 -126 442 -71 c 0
 442 -44 463 -24 483 -9 c 1
 415 -3 383 26 366 71 c 1
 351 48 295 -10 224 -10 c 2
 196 -10 l 2
 113 -10 46 57 46 140 c 2
 46 511 l 1
 244 511 l 1xb4
 244 191 l 2
 244 158 268 131 297 131 c 0
 326 131 350 158 350 191 c 2xd8
 350 511 l 1
 548 511 l 1
 548 148 l 2
 548 121 564 111 579 111 c 0
 591 111 603 114 614 120 c 1
 614 13 l 1xb8
 601 4 582 -4 554 -7 c 1
 537 -19 519 -34 519 -56 c 0
 519 -83 542 -90 563 -90 c 0xb4
 586 -90 609 -84 630 -76 c 1xb8
EndSplineSet
EndChar

StartChar: uring
Encoding: 367 367 193
Width: 628
GlyphClass: 2
Flags: MW
HStem: -10 121<468.5 585> -10 141<154.5 311.5 196 311.5> -10 521<154.5 196 196 224 468.5 539> 545 65<304.5 324 304.5 342> 680 66<304 323.5>
VStem: 46 198<174.5 191 191 511> 213 66<634.5 654 634.5 673> 349 66<636 655.5> 350 198<191 511>
LayerCount: 2
Fore
SplineSet
314 746 m 0x3b
 369 746 415 701 415 645 c 0
 415 590 370 545 314 545 c 0
 259 545 213 588 213 645 c 0
 213 701 258 746 314 746 c 0x3b
314 680 m 0
 294 680 279 664 279 644 c 0
 279 625 295 610 314 610 c 0
 334 610 349 626 349 646 c 0
 349 665 333 680 314 680 c 0
548 511 m 1x3c80
 548 148 l 2
 548 121 564 111 579 111 c 0
 591 111 603 114 614 120 c 1x9c80
 614 13 l 1
 596 0 565 -10 513 -10 c 0
 424 -10 385 20 366 71 c 1
 351 48 295 -10 224 -10 c 2
 196 -10 l 2
 113 -10 46 57 46 140 c 2
 46 511 l 1
 244 511 l 1x3c80
 244 191 l 2
 244 158 268 131 297 131 c 0
 326 131 350 158 350 191 c 2x5c80
 350 511 l 1
 548 511 l 1x3c80
EndSplineSet
EndChar

StartChar: v
Encoding: 118 118 194
Width: 559
GlyphClass: 2
Flags: MW
HStem: 0 219<285 292 285 393 164 292> 0 511<164 210 367 393 164 164>
VStem: -1 561<511 511>
LayerCount: 2
Fore
SplineSet
393 0 m 1x60
 164 0 l 1
 -1 511 l 1
 210 511 l 1x60
 285 219 l 1
 292 219 l 1xa0
 367 511 l 1
 560 511 l 1
 393 0 l 1x60
EndSplineSet
EndChar

StartChar: w
Encoding: 119 119 195
Width: 855
GlyphClass: 2
Flags: MW
HStem: 0 253<267 274 267 377 149 274 595 603 267 482> 0 511<149 210 335 377 149 149 482 535 660 706 482 482> 213 298<425 433 425 425>
VStem: 4 848<511 511>
LayerCount: 2
Fore
SplineSet
706 0 m 1x50
 482 0 l 1x50
 433 213 l 1
 425 213 l 1x30
 377 0 l 1
 149 0 l 1
 4 511 l 1
 210 511 l 1x50
 267 253 l 1
 274 253 l 1x90
 335 511 l 1
 535 511 l 1x50
 595 253 l 1
 603 253 l 1x90
 660 511 l 1
 852 511 l 1
 706 0 l 1x50
EndSplineSet
EndChar

StartChar: x
Encoding: 120 120 196
Width: 585
GlyphClass: 2
Flags: MW
HStem: 0 511<11 206 -7 238 366 579 11 590 11 363>
VStem: -7 597<0 0>
LayerCount: 2
Fore
SplineSet
423 265 m 1
 590 0 l 1
 363 0 l 1
 287 143 l 1
 283 143 l 1
 206 0 l 1
 -7 0 l 1
 163 270 l 1
 11 511 l 1
 238 511 l 1
 300 393 l 1
 304 393 l 1
 366 511 l 1
 579 511 l 1
 423 265 l 1
EndSplineSet
EndChar

StartChar: y
Encoding: 121 121 197
Width: 553
GlyphClass: 2
Flags: MW
HStem: -187 130<108.5 137 92 192.5> 491 20G<-4 207 207 207 361 556 556 556>
VStem: -4 560<511 511>
LayerCount: 2
Fore
SplineSet
556 511 m 1
 384 36 l 2
 338 -91 255 -187 130 -187 c 0
 87 -187 54 -183 31 -172 c 1
 31 -43 l 1
 46 -50 78 -57 106 -57 c 0
 168 -57 178 -10 184 15 c 1
 -4 511 l 1
 207 511 l 1
 286 246 l 1
 294 246 l 1
 361 511 l 1
 556 511 l 1
EndSplineSet
EndChar

StartChar: yacute
Encoding: 253 253 198
Width: 553
GlyphClass: 2
Flags: MW
HStem: -187 130<108.5 137 92 192.5> 491 20G<-4 207 207 207 361 556 556 556> 575 145<313 340 222 464>
VStem: -4 560<511 511>
LayerCount: 2
Fore
SplineSet
466 717 m 1
 340 575 l 1
 222 575 l 1
 313 720 l 1
 464 720 l 1
 466 717 l 1
556 511 m 1
 384 36 l 2
 338 -91 255 -187 130 -187 c 0
 87 -187 54 -183 31 -172 c 1
 31 -43 l 1
 46 -50 78 -57 106 -57 c 0
 168 -57 178 -10 184 15 c 1
 -4 511 l 1
 207 511 l 1
 286 246 l 1
 294 246 l 1
 361 511 l 1
 556 511 l 1
EndSplineSet
EndChar

StartChar: ydieresis
Encoding: 255 255 199
Width: 553
GlyphClass: 2
Flags: MW
HStem: -187 130<108.5 137 92 192.5> 491 20G<-4 207 207 207 361 556 556 556> 573 147<96 248 96 248 96 316 316 468>
VStem: 96 152<573 720 573 720> 316 152<573 720 573 720>
LayerCount: 2
Fore
SplineSet
248 573 m 1
 96 573 l 1
 96 720 l 1
 248 720 l 1
 248 573 l 1
468 573 m 1
 316 573 l 1
 316 720 l 1
 468 720 l 1
 468 573 l 1
556 511 m 1
 384 36 l 2
 338 -91 255 -187 130 -187 c 0
 87 -187 54 -183 31 -172 c 1
 31 -43 l 1
 46 -50 78 -57 106 -57 c 0
 168 -57 178 -10 184 15 c 1
 -4 511 l 1
 207 511 l 1
 286 246 l 1
 294 246 l 1
 361 511 l 1
 556 511 l 1
EndSplineSet
EndChar

StartChar: z
Encoding: 122 122 200
Width: 498
GlyphClass: 2
Flags: MW
HStem: 0 124<277 474 277 474> 387 124<33 210 33 466>
VStem: 22 452<0 63 63 63>
LayerCount: 2
Fore
SplineSet
466 451 m 1
 277 124 l 1
 474 124 l 1
 474 0 l 1
 22 0 l 1
 22 63 l 1
 210 387 l 1
 33 387 l 1
 33 511 l 1
 466 511 l 1
 466 451 l 1
EndSplineSet
EndChar

StartChar: zacute
Encoding: 378 378 201
Width: 498
GlyphClass: 2
Flags: MW
HStem: 0 124<277 474 277 474> 387 124<33 210 33 466> 575 145<268 295 177 419>
VStem: 22 452<0 63 63 63>
LayerCount: 2
Fore
SplineSet
421 717 m 1
 295 575 l 1
 177 575 l 1
 268 720 l 1
 419 720 l 1
 421 717 l 1
466 451 m 1
 277 124 l 1
 474 124 l 1
 474 0 l 1
 22 0 l 1
 22 63 l 1
 210 387 l 1
 33 387 l 1
 33 511 l 1
 466 511 l 1
 466 451 l 1
EndSplineSet
EndChar

StartChar: zcaron
Encoding: 382 382 202
Width: 498
GlyphClass: 2
Flags: MW
HStem: 0 124<277 474 277 474> 387 124<33 210 33 466> 575 145<45 312 45 184>
VStem: 22 452<0 63 63 63>
LayerCount: 2
Fore
SplineSet
312 575 m 1
 184 575 l 1
 45 720 l 1
 175 720 l 1
 249 643 l 1
 323 720 l 1
 451 720 l 1
 312 575 l 1
466 451 m 1
 277 124 l 1
 474 124 l 1
 474 0 l 1
 22 0 l 1
 22 63 l 1
 210 387 l 1
 33 387 l 1
 33 511 l 1
 466 511 l 1
 466 451 l 1
EndSplineSet
EndChar

StartChar: zdotaccent
Encoding: 380 380 203
Width: 498
GlyphClass: 2
Flags: MW
HStem: 0 124<277 474 277 474> 387 124<33 210 33 466> 604 132<230.5 266.5>
VStem: 183 132<652 688 650.5 688.5>
LayerCount: 2
Fore
SplineSet
249 736 m 0
 286 736 315 706 315 670 c 0
 315 631 285 604 248 604 c 0
 213 604 183 634 183 670 c 0
 183 707 212 736 249 736 c 0
466 451 m 1
 277 124 l 1
 474 124 l 1
 474 0 l 1
 22 0 l 1
 22 63 l 1
 210 387 l 1
 33 387 l 1
 33 511 l 1
 466 511 l 1
 466 451 l 1
EndSplineSet
EndChar

StartChar: fi
Encoding: 64257 64257 204
Width: 701
GlyphClass: 3
Flags: MW
HStem: 0 510<89 652 89 652 455 652 455 652> 369 141<287 652> 369 142<25 89 25 89 287 407> 577 143<455 652 455 652> 606 122<218 351.5>
VStem: 89 198<0 369 0 369 511 548 0 577> 455 197<0 510 577 720>
LayerCount: 2
Fore
SplineSet
272 728 m 0x2e
 306 728 373 720 406 706 c 1
 406 596 l 1
 391 601 359 606 344 606 c 0
 319 606 287 603 287 548 c 2
 287 511 l 1
 407 511 l 1
 407 369 l 1
 287 369 l 1x2e
 287 0 l 1
 89 0 l 1x96
 89 369 l 1
 25 369 l 1
 25 511 l 1
 89 511 l 1
 89 577 l 2
 89 685 164 728 272 728 c 0x2e
652 577 m 1x96
 455 577 l 1
 455 720 l 1
 652 720 l 1
 652 577 l 1x96
652 0 m 1
 455 0 l 1x96
 455 510 l 1
 652 510 l 1x56
 652 0 l 1
EndSplineSet
Ligature2: "'liga' Standard Ligatures lookup 4 subtable" f i
EndChar

StartChar: fl
Encoding: 64258 64258 205
Width: 703
GlyphClass: 3
Flags: MW
HStem: 369 142<25 89 25 89 287 407> 606 114<331.5 653> 606 122<218 351.5>
VStem: 89 198<0 369 0 369 511 548 0 577> 455 198<0 720>
LayerCount: 2
Fore
SplineSet
272 728 m 0xb8
 306 728 373 720 406 706 c 1
 406 596 l 1
 391 601 359 606 344 606 c 0
 319 606 287 603 287 548 c 2
 287 511 l 1
 407 511 l 1
 407 369 l 1
 287 369 l 1
 287 0 l 1
 89 0 l 1
 89 369 l 1
 25 369 l 1
 25 511 l 1
 89 511 l 1
 89 577 l 2
 89 685 164 728 272 728 c 0xb8
653 0 m 1
 455 0 l 1
 455 720 l 1
 653 720 l 1xd8
 653 0 l 1
EndSplineSet
Ligature2: "'liga' Standard Ligatures lookup 4 subtable" f l
EndChar

StartChar: ordfeminine
Encoding: 170 170 206
Width: 420
GlyphClass: 2
Flags: MW
HStem: 376 73<117.5 205.5> 517 55<207.5 235> 594 101<44 207> 625 70<188 207 207 207.5>
VStem: 34 124<465.5 488.5 465.5 510> 235 115<491 517 517 517 572 589 589 597>
LayerCount: 2
Fore
SplineSet
187 695 m 2xac
 207 695 l 2
 304 695 350 653 350 597 c 2xac
 350 471 l 2
 350 455 361 449 369 449 c 0
 372 449 377 450 382 451 c 2
 390 454 l 1
 390 390 l 1
 377 382 358 376 329 376 c 0
 276 376 248 396 241 425 c 1
 220 401 191 376 142 376 c 0
 93 376 34 386 34 468 c 0
 34 552 111 572 235 572 c 1
 235 589 l 2
 235 612 219 625 196 625 c 0xdc
 180 625 158 615 158 594 c 1
 44 594 l 1
 43 603 l 1
 43 655 99 695 187 695 c 2xac
235 491 m 2
 235 517 l 1xec
 180 517 158 500 158 477 c 0
 158 454 175 449 194 449 c 0
 217 449 235 464 235 491 c 2
EndSplineSet
EndChar

StartChar: ordmasculine
Encoding: 186 186 207
Width: 397
GlyphClass: 2
Flags: MW
HStem: 378 73<187.5 189 189 208> 624 73<189 208 208 210.5>
VStem: 30 127<531 544 544 582 481 589> 240 127<493 531 531 544 485.5 582 485.5 593.5>
LayerCount: 2
Fore
SplineSet
189 697 m 2
 208 697 l 2
 299 697 367 634 367 544 c 2
 367 531 l 2
 367 440 299 378 208 378 c 2
 189 378 l 2
 98 378 30 440 30 531 c 2
 30 544 l 2
 30 634 98 697 189 697 c 2
199 624 m 0
 176 624 157 605 157 582 c 2
 157 493 l 2
 157 469 176 451 199 451 c 0
 222 451 240 469 240 493 c 2
 240 582 l 2
 240 605 222 624 199 624 c 0
EndSplineSet
EndChar

StartChar: Delta
Encoding: 916 916 208
Width: 634
GlyphClass: 2
Flags: MW
HStem: 0 109<169 465 169 609> 666 20G<247 386 386 386>
VStem: 25 584<0 93 0 93>
LayerCount: 2
Fore
SplineSet
609 93 m 1
 609 0 l 1
 25 0 l 1
 25 93 l 1
 247 686 l 1
 386 686 l 1
 609 93 l 1
169 109 m 1
 465 109 l 1
 318 525 l 1
 169 109 l 1
EndSplineSet
EndChar

StartChar: Omega
Encoding: 937 937 209
Width: 766
GlyphClass: 2
Flags: MW
HStem: 0 162<37 48 37 342 37 48 718 729> 540 154<355 381 381 386>
VStem: 55 226<350 394 394 440> 486 225<310 350 350 394 310 440 310 468>
LayerCount: 2
Fore
SplineSet
355 694 m 2
 411 694 l 2
 577 694 711 560 711 394 c 2
 711 350 l 2
 711 270 670 202 605 142 c 1
 718 162 l 1
 729 162 l 1
 729 0 l 1
 424 0 l 1
 424 85 l 1
 460 100 486 134 486 177 c 2
 486 440 l 2
 486 496 442 540 386 540 c 2
 381 540 l 2
 325 540 281 496 281 440 c 2
 281 177 l 2
 281 136 306 100 342 85 c 1
 342 0 l 1
 37 0 l 1
 37 162 l 1
 48 162 l 1
 160 142 l 1
 95 202 55 270 55 350 c 2
 55 394 l 2
 55 560 189 694 355 694 c 2
EndSplineSet
EndChar

StartChar: mu
Encoding: 956 956 210
Width: 649
GlyphClass: 2
Flags: MW
HStem: -161 292<56 321.5 56 321.5> -161 672<56 254 56 254> -22 20G<246 246> -10 121<478.5 595> -10 521<478.5 549>
VStem: 56 198<-161 -83 174.5 191 191 511> 360 198<191 511>
LayerCount: 2
Fore
SplineSet
558 511 m 1x46
 558 148 l 2
 558 121 574 111 589 111 c 0
 601 111 613 114 624 120 c 1x16
 624 13 l 1
 606 0 575 -10 523 -10 c 0
 434 -10 395 20 376 71 c 1x0e
 361 50 307 6 246 -2 c 1
 250 -26 l 2
 252 -41 254 -60 254 -83 c 2x26
 254 -161 l 1
 56 -161 l 1
 56 511 l 1
 254 511 l 1x46
 254 191 l 2
 254 158 278 131 307 131 c 0
 336 131 360 158 360 191 c 2x86
 360 511 l 1
 558 511 l 1x46
EndSplineSet
EndChar

StartChar: pi
Encoding: 960 960 211
Width: 717
GlyphClass: 2
Flags: MW
HStem: 0 511<219 260 72 710 445 632 445 445> 386 125<114 710 327 425 327 327 618 696 618 618>
VStem: 138 189<331.5 386> 425 193<153 165 165 386>
LayerCount: 2
Fore
SplineSet
696 386 m 1x70
 618 386 l 1x70
 618 165 l 2
 618 89 625 33 632 0 c 1
 445 0 l 1xb0
 430 19 425 82 425 153 c 2
 425 386 l 1
 327 386 l 1x70
 322 268 295 81 260 0 c 1
 72 0 l 1xb0
 107 104 138 277 138 386 c 1
 90 386 52 383 25 376 c 1
 9 475 l 1
 36 498 103 511 219 511 c 2
 710 511 l 1
 696 386 l 1x70
EndSplineSet
EndChar

StartChar: zero
Encoding: 48 48 212
Width: 615
Flags: MW
HStem: -10 145<215.5 328.5 286.5 328.5 286.5 330> 552 144<286.5 328.5>
VStem: 35 198<240 446 446 472> 382 198<215 240 240 446>
LayerCount: 2
Fore
SplineSet
285 696 m 2
 330 696 l 2
 469 696 580 585 580 446 c 2
 580 240 l 2
 580 101 469 -10 330 -10 c 2
 285 -10 l 2
 146 -10 35 101 35 240 c 2
 35 446 l 2
 35 585 146 696 285 696 c 2
308 552 m 0
 265 552 233 516 233 472 c 2
 233 215 l 2
 233 171 266 135 307 135 c 0
 350 135 382 171 382 215 c 2
 382 472 l 2
 382 516 349 552 308 552 c 0
EndSplineSet
EndChar

StartChar: one
Encoding: 49 49 213
Width: 615
Flags: MW
HStem: 0 153<73 225 421 567 73 225> 473 115<73 225 73 73> 676 20G<354 421 421 421>
VStem: 225 196<153 473 473 473>
LayerCount: 2
Fore
SplineSet
421 153 m 1
 567 153 l 1
 567 0 l 1
 73 0 l 1
 73 153 l 1
 225 153 l 1
 225 473 l 1
 73 473 l 1
 73 588 l 1
 162 593 280 646 354 696 c 1
 421 696 l 1
 421 153 l 1
EndSplineSet
Substitution2: "'sups' Superscript lookup 1 subtable" onesuperior
Substitution2: "'aalt' Access All Alternates lookup 0 subtable" onesuperior
EndChar

StartChar: two
Encoding: 50 50 214
Width: 615
Flags: MW
HStem: 0 168<307 570 307 570> 442 254<38 324> 540 156<264.5 324 293 297>
VStem: 38 176<442 461 461 470 442 526.5> 367 202<451.5 489.5>
LayerCount: 2
Fore
SplineSet
293 696 m 2xb8
 324 696 l 2
 472 696 569 604 569 474 c 0
 569 372 514 312 416 244 c 2
 307 168 l 1
 570 168 l 1
 570 0 l 1
 35 0 l 1
 35 36 l 2
 35 112 55 162 115 209 c 2
 313 365 l 2
 352 396 367 433 367 470 c 0
 367 509 336 540 297 540 c 2
 284 540 l 2
 245 540 214 510 214 470 c 2xb8
 214 442 l 1
 38 442 l 1xd8
 38 461 l 2
 38 592 130 696 293 696 c 2xb8
EndSplineSet
Substitution2: "'sups' Superscript lookup 1 subtable" twosuperior
Substitution2: "'aalt' Access All Alternates lookup 0 subtable" twosuperior
EndChar

StartChar: three
Encoding: 51 51 215
Width: 615
Flags: MW
HStem: -10 149<278 282 282 305 305 324> 289 123<211 299 299 315 211 299> 484 212<44 324> 547 149<261.5 324 294 299>
VStem: 22 176<189.5 209 189.5 209 189.5 209> 44 167<484 501.5 289 509 289 561> 369 195<475.5 501.5> 385 199<193.5 231.5 134 241.5>
LayerCount: 2
Fore
SplineSet
294 696 m 2xd5
 324 696 l 2
 467 696 564 612 564 510 c 0xd6
 564 441 528 383 469 359 c 1
 542 334 584 274 584 189 c 0
 584 79 492 -10 324 -10 c 2
 282 -10 l 2
 114 -10 22 79 22 188 c 2
 22 209 l 1
 198 209 l 1
 198 170 222 139 278 139 c 2
 305 139 l 2
 358 139 385 170 385 217 c 0
 385 266 354 289 315 289 c 2xd9
 211 289 l 1
 211 412 l 1
 299 412 l 2
 338 412 369 435 369 484 c 0
 369 519 338 547 299 547 c 2
 281 547 l 2xd6
 242 547 211 519 211 484 c 1
 44 484 l 1xe5
 44 509 l 2
 44 613 143 696 294 696 c 2xd5
EndSplineSet
Substitution2: "'sups' Superscript lookup 1 subtable" threesuperior
Substitution2: "'aalt' Access All Alternates lookup 0 subtable" threesuperior
EndChar

StartChar: four
Encoding: 52 52 216
Width: 615
Flags: MW
HStem: 151 147<152 302 152 302 22 302 490 588> 151 545<178 302 22 355 178 588 178 490>
VStem: 302 188<0 151 0 151 298 400 400 400>
LayerCount: 2
Fore
SplineSet
178 696 m 1x60
 355 696 l 1x60
 339 592 223 380 152 298 c 1
 302 298 l 1
 302 400 l 1
 337 448 394 574 407 630 c 1
 490 630 l 1
 490 298 l 1
 588 298 l 1xa0
 588 151 l 1
 490 151 l 1
 490 0 l 1
 302 0 l 1
 302 151 l 1
 22 151 l 1
 22 300 l 1
 38 329 61 371 81 420 c 2
 111 494 l 2
 142 571 168 648 178 696 c 1x60
EndSplineSet
EndChar

StartChar: five
Encoding: 53 53 217
Width: 615
Flags: MW
HStem: -10 154<286 290 290 303 303 320> 315 144<267.5 423.5 289 423.5> 516 170<238 529 238 238>
VStem: 30 176<202 224 202 224> 383 197<224 235 235 257>
LayerCount: 2
Fore
SplineSet
529 516 m 1
 238 516 l 1
 230 414 l 1
 250 432 293 459 357 459 c 0
 490 459 580 372 580 225 c 0
 580 94 473 -10 320 -10 c 2
 290 -10 l 2
 128 -10 30 94 30 224 c 1
 206 224 l 1
 206 180 242 144 286 144 c 2
 303 144 l 2
 347 144 383 180 383 224 c 2
 383 235 l 2
 383 279 347 315 303 315 c 2
 289 315 l 2
 246 315 230 290 218 281 c 1
 60 303 l 1
 89 686 l 1
 529 686 l 1
 529 516 l 1
EndSplineSet
EndChar

StartChar: six
Encoding: 54 54 218
Width: 615
Flags: MW
HStem: -10 140<227 317 311 317 317 327> 321 116<290.5 423 311 423> 466 230<390 391.5 299 568 390 390> 546 150<299 313 313 319>
VStem: 39 197<240 246 385 446 446 471> 390 178<466 471 471 491.5> 392 193<205 246 246 266.5>
LayerCount: 2
Fore
SplineSet
299 696 m 2xda
 327 696 l 2xdc
 456 696 568 618 568 466 c 1xec
 390 466 l 1
 390 471 l 2xdc
 390 512 360 546 319 546 c 2
 313 546 l 2
 272 546 236 512 236 471 c 2
 236 385 l 1
 271 422 324 437 361 437 c 0
 485 437 585 367 585 230 c 0
 585 85 471 -10 327 -10 c 2
 299 -10 l 2
 155 -10 39 96 39 240 c 2
 39 446 l 2
 39 590 155 696 299 696 c 2xda
317 321 m 2xda
 311 321 l 2
 270 321 236 287 236 246 c 2
 236 205 l 2
 236 164 270 130 311 130 c 2
 317 130 l 2
 358 130 392 164 392 205 c 2
 392 246 l 2
 392 287 358 321 317 321 c 2xda
EndSplineSet
EndChar

StartChar: seven
Encoding: 55 55 219
Width: 615
Flags: MW
HStem: 514 172<61 353 61 570>
VStem: 129 222<0 59 0 95.5>
LayerCount: 2
Fore
SplineSet
570 686 m 1
 570 595 l 1
 456 438 351 261 351 59 c 2
 351 0 l 1
 129 0 l 1
 129 191 240 367 353 514 c 1
 61 514 l 1
 61 686 l 1
 570 686 l 1
EndSplineSet
EndChar

StartChar: eight
Encoding: 56 56 220
Width: 615
Flags: MW
HStem: -10 132<288 327.5 288 388.5> 295 108<288 327> 566 130<287.5 327>
VStem: 38 199<172.5 192 192 225 172.5 230> 61 176<456 473 473 496> 378 176<473 496 496 515.5> 378 199<192 225 225 230 124 244.5>
LayerCount: 2
Fore
SplineSet
307 696 m 0xec
 443 696 554 626 554 495 c 0xec
 554 416 519 386 476 351 c 1
 476 347 l 1
 537 310 577 271 577 189 c 0
 577 59 470 -10 307 -10 c 0
 150 -10 38 59 38 189 c 0xf2
 38 271 78 310 139 347 c 1
 139 351 l 1
 95 385 61 417 61 495 c 0
 61 626 171 696 307 696 c 0xec
307 566 m 0
 268 566 237 535 237 496 c 2
 237 473 l 2
 237 434 268 403 308 403 c 0
 347 403 378 434 378 473 c 2
 378 496 l 2
 378 535 347 566 307 566 c 0
307 295 m 0xf2
 268 295 237 264 237 225 c 2
 237 192 l 2
 237 153 268 122 308 122 c 0
 347 122 378 153 378 192 c 2
 378 225 l 2
 378 264 347 295 307 295 c 0xf2
EndSplineSet
EndChar

StartChar: nine
Encoding: 57 57 221
Width: 615
Flags: MW
HStem: -10 150<223.5 302 296 302 302 316> 249 116<192 304> 556 140<288 298 298 304>
VStem: 30 193<419.5 440 440 481 419.5 527.5> 47 178<194.5 215 215 220> 379 197<215 240 240 301 301 301 440 446>
LayerCount: 2
Fore
SplineSet
288 696 m 2xf4
 316 696 l 2
 460 696 576 590 576 446 c 2
 576 240 l 2
 576 96 460 -10 316 -10 c 2
 288 -10 l 2
 159 -10 47 68 47 220 c 1
 225 220 l 1
 225 215 l 2xec
 225 174 255 140 296 140 c 2
 302 140 l 2
 343 140 379 174 379 215 c 2
 379 301 l 1
 344 264 291 249 254 249 c 0
 130 249 30 319 30 456 c 0
 30 599 144 696 288 696 c 2xf4
304 556 m 2
 298 556 l 2
 257 556 223 522 223 481 c 2
 223 440 l 2xf4
 223 399 257 365 298 365 c 2
 304 365 l 2
 345 365 379 399 379 440 c 2
 379 481 l 2
 379 522 345 556 304 556 c 2
EndSplineSet
EndChar

StartChar: fraction
Encoding: 8260 8260 222
Width: 480
Flags: MW
HStem: 666 20G<409 495 495 495>
VStem: -11 506
LayerCount: 2
Fore
SplineSet
78 0 m 1
 -11 0 l 1
 409 686 l 1
 495 686 l 1
 78 0 l 1
EndSplineSet
EndChar

StartChar: onehalf
Encoding: 189 189 223
Width: 765
Flags: MW
HStem: 0 90<595 736 595 736> 0 686<185 221 185 231 142 221 185 449 562 648 185 736> 298 84<572.5 604 587 590> 312 82<34 116 221 299 34 116> 566 62<34 116 34 34> 666 20G<185 221 221 221 562 648 648 648>
VStem: 116 105<394 566 566 566> 449 287<0 19 19 39.5> 450 95<246 256 256 261 246 290.5> 627 109<250.5 271.5>
LayerCount: 2
Fore
SplineSet
221 394 m 1x9e
 299 394 l 1
 299 312 l 1
 34 312 l 1
 34 394 l 1
 116 394 l 1
 116 566 l 1
 34 566 l 1
 34 628 l 1
 82 631 145 660 185 686 c 1
 221 686 l 1
 221 394 l 1x9e
231 0 m 1x42
 142 0 l 1
 562 686 l 1
 648 686 l 1
 231 0 l 1x42
587 382 m 2xaec0
 604 382 l 2
 684 382 736 334 736 263 c 0
 736 205 706 170 654 134 c 2xae40
 595 90 l 1
 736 90 l 1
 736 0 l 1
 449 0 l 1
 449 19 l 2
 449 60 461 85 492 112 c 2x9f
 598 204 l 2
 617 221 627 240 627 261 c 0
 627 282 611 298 590 298 c 2
 583 298 l 2
 562 298 545 282 545 261 c 2
 545 246 l 1
 450 246 l 1
 450 256 l 2
 450 325 499 382 587 382 c 2xaec0
EndSplineSet
Ligature2: "'frac' Diagonal Fractions lookup 2 subtable" one slash two
EndChar

StartChar: onequarter
Encoding: 188 188 224
Width: 766
Flags: MW
HStem: 81 80<504 585 504 585 434 585 686 739> 311 82<37 119 224 302 37 119> 565 62<37 119 37 37> 665 20G<188 224 224 224> 666 20G<565 651 651 651>
VStem: 119 105<393 565 565 565> 585 101<0 81 0 81 161 216 216 216>
LayerCount: 2
Fore
SplineSet
234 0 m 1xee
 145 0 l 1
 565 686 l 1
 651 686 l 1
 234 0 l 1xee
224 393 m 1
 302 393 l 1
 302 311 l 1
 37 311 l 1
 37 393 l 1
 119 393 l 1
 119 565 l 1
 37 565 l 1
 37 627 l 1
 85 630 148 659 188 685 c 1
 224 685 l 1xf6
 224 393 l 1
518 375 m 1
 613 375 l 1
 605 318 542 207 504 161 c 1
 585 161 l 1
 585 216 l 1
 603 242 633 309 641 339 c 1
 686 339 l 1
 686 161 l 1
 739 161 l 1
 739 81 l 1
 686 81 l 1
 686 0 l 1
 585 0 l 1
 585 81 l 1
 434 81 l 1
 434 162 l 1
 461 210 507 322 518 375 c 1
EndSplineSet
Ligature2: "'frac' Diagonal Fractions lookup 2 subtable" one slash four
EndChar

StartChar: threequarters
Encoding: 190 190 225
Width: 757
Flags: MW
HStem: 81 80<495 576 495 576 425 576 677 730> 305 80<165 167 167 179 179 189> 470 66<129 176 176 184 129 176> 579 114<39 189> 613 80<155.5 189 173 176> 666 20G<556 642 642 642>
VStem: 27 95<412.5 423 412.5 423 412.5 423> 39 90<579 588.5 470 592 470 620> 213 105<573.5 586.5> 222 107<416.5 436 382 444.5> 576 101<0 81 0 81 161 216 216 216>
LayerCount: 2
Fore
SplineSet
173 693 m 2xe920
 189 693 l 2
 268 693 318 649 318 593 c 0xe9a0
 318 554 298 521 267 508 c 1
 306 493 329 460 329 412 c 0
 329 352 281 305 189 305 c 2
 167 305 l 2
 75 305 27 352 27 412 c 2
 27 423 l 1
 122 423 l 1
 122 402 134 385 165 385 c 2
 179 385 l 2
 208 385 222 404 222 429 c 0
 222 460 205 470 184 470 c 2xea60
 129 470 l 1
 129 536 l 1
 176 536 l 2
 197 536 213 546 213 577 c 0
 213 596 197 613 176 613 c 2
 166 613 l 2xe9a0
 145 613 129 598 129 579 c 1
 39 579 l 1xf120
 39 592 l 2
 39 648 92 693 173 693 c 2xe920
225 0 m 1
 136 0 l 1
 556 686 l 1
 642 686 l 1xe520
 225 0 l 1
509 375 m 1
 604 375 l 1
 596 318 533 207 495 161 c 1
 576 161 l 1
 576 216 l 1
 594 242 624 309 632 339 c 1
 677 339 l 1
 677 161 l 1
 730 161 l 1
 730 81 l 1
 677 81 l 1
 677 0 l 1
 576 0 l 1
 576 81 l 1
 425 81 l 1
 425 162 l 1
 452 210 498 322 509 375 c 1
EndSplineSet
Ligature2: "'frac' Diagonal Fractions lookup 2 subtable" three slash four
EndChar

StartChar: onesuperior
Encoding: 185 185 226
Width: 339
Flags: MW
HStem: 422 82<41 123 228 306 41 123> 676 62<41 123 41 41>
VStem: 123 105<504 676 676 676>
LayerCount: 2
Fore
SplineSet
228 504 m 1
 306 504 l 1
 306 422 l 1
 41 422 l 1
 41 504 l 1
 123 504 l 1
 123 676 l 1
 41 676 l 1
 41 738 l 1
 89 741 152 770 192 796 c 1
 228 796 l 1
 228 504 l 1
EndSplineSet
EndChar

StartChar: twosuperior
Encoding: 178 178 227
Width: 370
Flags: MW
HStem: 422 90<185 326 185 326> 720 84<162.5 194 177 180>
VStem: 39 287<422 441 441 461.5> 40 95<668 678 678 683 668 712.5> 217 109<672.5 693.5>
LayerCount: 2
Fore
SplineSet
177 804 m 2xd8
 194 804 l 2
 274 804 326 756 326 685 c 0
 326 627 296 592 244 556 c 2xd8
 185 512 l 1
 326 512 l 1
 326 422 l 1
 39 422 l 1
 39 441 l 2
 39 482 51 507 82 534 c 2xe0
 188 626 l 2
 207 643 217 662 217 683 c 0
 217 704 201 720 180 720 c 2
 173 720 l 2
 152 720 135 704 135 683 c 2
 135 668 l 1
 40 668 l 1
 40 678 l 2
 40 747 89 804 177 804 c 2xd8
EndSplineSet
EndChar

StartChar: threesuperior
Encoding: 179 179 228
Width: 355
Flags: MW
HStem: 413 80<160 162 162 174 174 184> 578 66<124 171 171 179 124 171> 721 80<150.5 184 168 171>
VStem: 22 95<520.5 531 520.5 531 520.5 531> 34 90<687 696.5 578 700 578 728> 208 105<681.5 694.5> 217 107<524.5 544 490 552.5>
LayerCount: 2
Fore
SplineSet
168 801 m 2xea
 184 801 l 2
 263 801 313 757 313 701 c 0xec
 313 662 293 629 262 616 c 1
 301 601 324 568 324 520 c 0
 324 460 276 413 184 413 c 2
 162 413 l 2
 70 413 22 460 22 520 c 2
 22 531 l 1
 117 531 l 1
 117 510 129 493 160 493 c 2
 174 493 l 2
 203 493 217 512 217 537 c 0
 217 568 200 578 179 578 c 2xf2
 124 578 l 1
 124 644 l 1
 171 644 l 2
 192 644 208 654 208 685 c 0xec
 208 704 192 721 171 721 c 2
 161 721 l 2
 140 721 124 706 124 687 c 1
 34 687 l 1
 34 700 l 2
 34 756 87 801 168 801 c 2xea
EndSplineSet
EndChar

StartChar: asterisk
Encoding: 42 42 229
Width: 506
Flags: MW
HStem: 666 20G<192 312 312 312>
VStem: 198.5 106
LayerCount: 2
Fore
SplineSet
297 533 m 1
 445 593 l 1
 480 483 l 1
 330 448 l 1
 430 335 l 1
 330 265 l 1
 251 396 l 1
 173 265 l 1
 73 335 l 1
 173 448 l 1
 26 483 l 1
 65 593 l 1
 205 533 l 1
 192 686 l 1
 312 686 l 1
 297 533 l 1
EndSplineSet
EndChar

StartChar: backslash
Encoding: 92 92 230
Width: 652
Flags: MW
HStem: 666 20G<15 146 146 146>
VStem: 15 621
LayerCount: 2
Fore
SplineSet
636 -171 m 1
 504 -171 l 1
 15 686 l 1
 146 686 l 1
 636 -171 l 1
EndSplineSet
EndChar

StartChar: periodcentered
Encoding: 183 183 231
Width: 289
Flags: MW
HStem: 197 183<49 240 49 240>
VStem: 49 191<197 380 197 380>
LayerCount: 2
Fore
SplineSet
240 197 m 1
 49 197 l 1
 49 380 l 1
 240 380 l 1
 240 197 l 1
EndSplineSet
EndChar

StartChar: bullet
Encoding: 8226 8226 232
Width: 600
Flags: MW
HStem: 171 343<251.5 346.5>
VStem: 128 343<295.5 390.5>
LayerCount: 2
Fore
SplineSet
299 514 m 0
 394 514 471 438 471 343 c 0
 471 248 394 171 299 171 c 0
 204 171 128 248 128 343 c 0
 128 438 204 514 299 514 c 0
EndSplineSet
EndChar

StartChar: colon
Encoding: 58 58 233
Width: 309
Flags: MW
HStem: 0 183<59 250 59 250> 328 183<59 250 59 250>
VStem: 59 191<0 183 0 183 328 511>
LayerCount: 2
Fore
SplineSet
250 328 m 1
 59 328 l 1
 59 511 l 1
 250 511 l 1
 250 328 l 1
250 0 m 1
 59 0 l 1
 59 183 l 1
 250 183 l 1
 250 0 l 1
EndSplineSet
EndChar

StartChar: comma
Encoding: 44 44 234
Width: 287
Flags: MW
HStem: 0 183<48 132 48 239>
VStem: 48 191<22 22 22 183 22 183>
LayerCount: 2
Fore
SplineSet
239 22 m 1
 189 -165 l 1
 95 -165 l 1
 132 0 l 1
 48 0 l 1
 48 183 l 1
 239 183 l 1
 239 22 l 1
EndSplineSet
EndChar

StartChar: ellipsis
Encoding: 8230 8230 235
Width: 953
Flags: MW
HStem: 0 183<48 239 48 239 48 381 381 572 714 905>
VStem: 48 191<0 183 0 183> 381 191<0 183 0 183> 714 191<0 183 0 183>
LayerCount: 2
Fore
SplineSet
239 0 m 1
 48 0 l 1
 48 183 l 1
 239 183 l 1
 239 0 l 1
572 0 m 1
 381 0 l 1
 381 183 l 1
 572 183 l 1
 572 0 l 1
905 0 m 1
 714 0 l 1
 714 183 l 1
 905 183 l 1
 905 0 l 1
EndSplineSet
EndChar

StartChar: exclam
Encoding: 33 33 236
Width: 311
Flags: MW
HStem: 0 183<61 252 61 252> 231 455<91 218 91 91>
VStem: 61 191<0 183 0 183>
LayerCount: 2
Fore
SplineSet
218 231 m 1
 91 231 l 1
 37 686 l 1
 275 686 l 1
 218 231 l 1
252 0 m 1
 61 0 l 1
 61 183 l 1
 252 183 l 1
 252 0 l 1
EndSplineSet
EndChar

StartChar: exclamdown
Encoding: 161 161 237
Width: 297
Flags: MW
HStem: -177 455<86 213 86 267 29 213> 328 183<53 244 53 244>
VStem: 53 191<328 511 328 511>
LayerCount: 2
Fore
SplineSet
244 328 m 1
 53 328 l 1
 53 511 l 1
 244 511 l 1
 244 328 l 1
267 -177 m 1
 29 -177 l 1
 86 278 l 1
 213 278 l 1
 267 -177 l 1
EndSplineSet
EndChar

StartChar: numbersign
Encoding: 35 35 238
Width: 662
Flags: MW
HStem: 0 272<90 379 90 379 318 379 266 434 318 318> 166 107<27 125 27 150 27 354 27 242 497 601> 394 108<72 178 72 199 542 633> 394 302<72 361 72 361 523 587 242 633 523 523>
VStem: 27 606<166 502 273 502>
LayerCount: 2
Fore
SplineSet
542 502 m 1x68
 633 502 l 1x68
 633 394 l 1
 523 394 l 1
 497 273 l 1
 601 273 l 1
 601 166 l 1
 470 166 l 1x58
 434 0 l 1
 318 0 l 1x98
 354 166 l 1
 242 166 l 1x58
 207 0 l 1
 90 0 l 1x98
 125 166 l 1
 27 166 l 1
 27 273 l 1
 150 273 l 1
 178 394 l 1
 72 394 l 1x58
 72 502 l 1
 199 502 l 1x68
 242 696 l 1
 361 696 l 1x58
 317 502 l 1
 427 502 l 1x68
 470 696 l 1
 587 696 l 1x58
 542 502 l 1x68
293 393 m 1
 266 272 l 1
 379 272 l 1
 407 393 l 1
 293 393 l 1
EndSplineSet
EndChar

StartChar: period
Encoding: 46 46 239
Width: 287
Flags: MW
HStem: 0 183<48 239 48 239>
VStem: 48 191<0 183 0 183>
LayerCount: 2
Fore
SplineSet
239 0 m 1
 48 0 l 1
 48 183 l 1
 239 183 l 1
 239 0 l 1
EndSplineSet
EndChar

StartChar: question
Encoding: 63 63 240
Width: 581
Flags: MW
HStem: 0 183<206 397 206 397> 218 478<275 313 313 375 275 382 211 313> 447 249<27 313 27 313> 558 138<275 294.5>
VStem: 24 186<458 550.5> 206 191<0 183 0 183> 211 171<218 240 218 277 218 317> 341 212<443.5 506.5>
LayerCount: 2
Fore
SplineSet
275 696 m 2x99
 313 696 l 2x99
 437 696 553 610 553 480 c 0
 553 401 511 354 467 322 c 2xc9
 426 292 l 2
 401 273 382 259 382 240 c 2
 382 218 l 1xc2
 211 218 l 1
 211 277 l 2xc4
 211 357 341 399 341 488 c 0
 341 525 314 558 275 558 c 0
 221 558 210 517 210 474 c 2
 210 460 l 2x99
 210 456 210 452 211 447 c 1
 27 447 l 1xa9
 26 460 24 472 24 485 c 0
 24 616 156 696 275 696 c 2x99
397 0 m 1x94
 206 0 l 1
 206 183 l 1
 397 183 l 1
 397 0 l 1x94
EndSplineSet
EndChar

StartChar: questiondown
Encoding: 191 191 241
Width: 577
Flags: MW
HStem: -186 138<204 330 284.5 304> 328 183<185 376 185 376>
VStem: 26 212<3.5 66.5 3.5 68.5> 185 191<328 511 328 511> 197 171<270 292> 371 184<12 31.5 -40.5 37.5>
LayerCount: 2
Fore
SplineSet
376 328 m 1xd0
 185 328 l 1
 185 511 l 1
 376 511 l 1
 376 328 l 1xd0
368 292 m 1
 368 233 l 2xd0
 368 153 238 111 238 22 c 0
 238 -15 265 -48 304 -48 c 0
 356 -48 371 -8 371 32 c 0
 371 43 370 53 368 63 c 1
 552 63 l 1
 553 50 555 38 555 25 c 0
 555 -106 423 -186 304 -186 c 2
 266 -186 l 2
 142 -186 26 -100 26 30 c 0
 26 107 68 157 111 188 c 2xe4
 153 218 l 2
 178 236 196 251 197 270 c 2
 197 292 l 1xc8
 368 292 l 1
EndSplineSet
EndChar

StartChar: quotedbl
Encoding: 34 34 242
Width: 434
Flags: MW
HStem: 396 290<85 146 85 85 288 288 288 348>
VStem: 38 155<539 686 539 686> 241 155<539 686 539 686>
LayerCount: 2
Fore
SplineSet
193 539 m 1
 146 396 l 1
 85 396 l 1
 38 539 l 1
 38 686 l 1
 193 686 l 1
 193 539 l 1
396 539 m 1
 348 396 l 1
 288 396 l 1
 241 539 l 1
 241 686 l 1
 396 686 l 1
 396 539 l 1
EndSplineSet
EndChar

StartChar: quotesingle
Encoding: 39 39 243
Width: 231
Flags: MW
HStem: 396 290<85 146 85 85>
VStem: 38 155<539 686 539 686>
LayerCount: 2
Fore
SplineSet
193 539 m 1
 146 396 l 1
 85 396 l 1
 38 539 l 1
 38 686 l 1
 193 686 l 1
 193 539 l 1
EndSplineSet
EndChar

StartChar: semicolon
Encoding: 59 59 244
Width: 308
Flags: MW
HStem: 0 183<59 143 59 250> 328 183<59 250 59 250>
VStem: 59 191<22 22 22 183 22 183 328 511>
LayerCount: 2
Fore
SplineSet
250 328 m 1
 59 328 l 1
 59 511 l 1
 250 511 l 1
 250 328 l 1
250 22 m 1
 200 -165 l 1
 106 -165 l 1
 143 0 l 1
 59 0 l 1
 59 183 l 1
 250 183 l 1
 250 22 l 1
EndSplineSet
EndChar

StartChar: slash
Encoding: 47 47 245
Width: 652
Flags: MW
HStem: 666 20G<506 637 637 637>
VStem: 16 621
LayerCount: 2
Fore
SplineSet
148 -171 m 1
 16 -171 l 1
 506 686 l 1
 637 686 l 1
 148 -171 l 1
EndSplineSet
EndChar

StartChar: underscore
Encoding: 95 95 246
Width: 668
Flags: MW
HStem: -127 62<84 584 84 584>
VStem: 84 500<-127 -65 -127 -65>
LayerCount: 2
Fore
SplineSet
584 -127 m 1
 84 -127 l 1
 84 -65 l 1
 584 -65 l 1
 584 -127 l 1
EndSplineSet
EndChar

StartChar: braceleft
Encoding: 123 123 247
Width: 343
Flags: MW
HStem: -159 68<205 320 305.5 320 305.5 320> 224 79<21 38.5 21 41> 618 68<306 320>
VStem: 21 112<259 268 259 303 259 303> 98 141<-159 169>
LayerCount: 2
Fore
SplineSet
320 686 m 1xe8
 320 618 l 1
 292 618 247 614 244 577 c 2
 234 371 l 2xe8
 231 306 201 268 133 268 c 1
 133 259 l 1xf0
 201 259 231 221 234 156 c 2
 244 -49 l 2
 247 -87 291 -91 320 -91 c 1
 320 -159 l 1
 239 -159 l 2
 171 -159 98 -124 98 -47 c 2
 98 169 l 2xe8
 98 209 61 224 21 224 c 1xf0
 21 303 l 1
 56 303 98 320 98 360 c 2
 98 574 l 2
 98 651 171 686 239 686 c 2
 320 686 l 1xe8
EndSplineSet
EndChar

StartChar: braceright
Encoding: 125 125 248
Width: 343
Flags: MW
HStem: -159 68<23 37.5 23 104 23 37.5> 224 79<303.5 321> 618 68<23 37>
VStem: 104 141<-159 -47> 210 111<259 268 268 268>
LayerCount: 2
Fore
SplineSet
23 686 m 1xb0
 104 686 l 2
 172 686 245 651 245 574 c 2
 245 360 l 2xf0
 245 320 284 303 321 303 c 1xe8
 321 224 l 1
 286 224 245 209 245 169 c 2
 245 -47 l 2
 245 -124 172 -159 104 -159 c 2
 23 -159 l 1
 23 -91 l 1
 52 -91 96 -87 99 -49 c 2
 109 156 l 2xf0
 112 221 142 259 210 259 c 1
 210 268 l 1xa8
 142 268 112 306 109 371 c 2
 99 577 l 2
 96 614 51 618 23 618 c 1
 23 686 l 1xb0
EndSplineSet
EndChar

StartChar: bracketleft
Encoding: 91 91 249
Width: 318
Flags: MW
HStem: -161 83<206 294 206 294> 603 83<206 294 206 206>
VStem: 57 149<-78 603 -78 686 -78 686>
LayerCount: 2
Fore
SplineSet
294 603 m 1
 206 603 l 1
 206 -78 l 1
 294 -78 l 1
 294 -161 l 1
 57 -161 l 1
 57 686 l 1
 294 686 l 1
 294 603 l 1
EndSplineSet
EndChar

StartChar: bracketright
Encoding: 93 93 250
Width: 318
Flags: MW
HStem: -161 83<24 112 24 261 24 112> 603 83<24 112 24 261>
VStem: 112 149<-78 603 603 603>
LayerCount: 2
Fore
SplineSet
261 -161 m 1
 24 -161 l 1
 24 -78 l 1
 112 -78 l 1
 112 603 l 1
 24 603 l 1
 24 686 l 1
 261 686 l 1
 261 -161 l 1
EndSplineSet
EndChar

StartChar: parenleft
Encoding: 40 40 251
Width: 313
Flags: MW
HStem: 666 20G<189 297 297 297>
VStem: 30 156<198.5 332.5 198.5 342>
LayerCount: 2
Fore
SplineSet
189 686 m 1
 297 686 l 1
 231 569 186 400 186 265 c 0
 186 132 230 -43 297 -158 c 1
 189 -158 l 1
 86 -41 30 108 30 264 c 0
 30 420 86 569 189 686 c 1
EndSplineSet
EndChar

StartChar: parenright
Encoding: 41 41 252
Width: 313
Flags: MW
HStem: 666 20G<16 124 124 124>
VStem: 127 156<198.5 332.5>
LayerCount: 2
Fore
SplineSet
16 686 m 1
 124 686 l 1
 227 569 283 420 283 264 c 0
 283 108 227 -41 124 -158 c 1
 16 -158 l 1
 83 -43 127 132 127 265 c 0
 127 400 82 569 16 686 c 1
EndSplineSet
EndChar

StartChar: emdash
Encoding: 8212 8212 253
Width: 1008
Flags: MW
HStem: 196 158<49 959 49 959>
VStem: 49 910<196 354 196 354>
LayerCount: 2
Fore
SplineSet
959 196 m 1
 49 196 l 1
 49 354 l 1
 959 354 l 1
 959 196 l 1
EndSplineSet
EndChar

StartChar: endash
Encoding: 8211 8211 254
Width: 598
Flags: MW
HStem: 196 158<49 549 49 549>
VStem: 49 500<196 354 196 354>
LayerCount: 2
Fore
SplineSet
549 196 m 1
 49 196 l 1
 49 354 l 1
 549 354 l 1
 549 196 l 1
EndSplineSet
EndChar

StartChar: hyphen
Encoding: 45 45 255
Width: 352
Flags: MW
HStem: 196 158<49 303 49 303>
VStem: 49 254<196 354 196 354>
LayerCount: 2
Fore
SplineSet
303 196 m 1
 49 196 l 1
 49 354 l 1
 303 354 l 1
 303 196 l 1
EndSplineSet
EndChar

StartChar: softhyphen
Encoding: 173 173 256
Width: 352
Flags: MW
HStem: 196 158<49 303 49 303>
VStem: 49 254<196 354 196 354>
LayerCount: 2
Fore
SplineSet
303 196 m 1
 49 196 l 1
 49 354 l 1
 303 354 l 1
 303 196 l 1
EndSplineSet
EndChar

StartChar: guillemetleft
Encoding: 171 171 257
Width: 442
Flags: MW
HStem: 163 348<150 224 150 224 150 331 331 405>
VStem: 30 375<163 337>
LayerCount: 2
Fore
SplineSet
139 337 m 1
 224 163 l 1
 150 163 l 1
 30 337 l 1
 150 511 l 1
 224 511 l 1
 139 337 l 1
320 337 m 1
 405 163 l 1
 331 163 l 1
 211 337 l 1
 331 511 l 1
 405 511 l 1
 320 337 l 1
EndSplineSet
EndChar

StartChar: guillemetright
Encoding: 187 187 258
Width: 442
Flags: MW
HStem: 163 348<37 111 37 111 37 218 218 292>
VStem: 37 375<163 337 337 511>
LayerCount: 2
Fore
SplineSet
231 337 m 1
 111 163 l 1
 37 163 l 1
 122 337 l 1
 37 511 l 1
 111 511 l 1
 231 337 l 1
412 337 m 1
 292 163 l 1
 218 163 l 1
 303 337 l 1
 218 511 l 1
 292 511 l 1
 412 337 l 1
EndSplineSet
EndChar

StartChar: guilsinglleft
Encoding: 8249 8249 259
Width: 261
Flags: MW
HStem: 163 348<150 224 150 224>
VStem: 30 194<163 337>
LayerCount: 2
Fore
SplineSet
139 337 m 1
 224 163 l 1
 150 163 l 1
 30 337 l 1
 150 511 l 1
 224 511 l 1
 139 337 l 1
EndSplineSet
EndChar

StartChar: guilsinglright
Encoding: 8250 8250 260
Width: 261
Flags: MW
HStem: 163 348<37 111 37 111>
VStem: 37 194<163 337 337 511>
LayerCount: 2
Fore
SplineSet
231 337 m 1
 111 163 l 1
 37 163 l 1
 122 337 l 1
 37 511 l 1
 111 511 l 1
 231 337 l 1
EndSplineSet
EndChar

StartChar: quotedblbase
Encoding: 8222 8222 261
Width: 535
Flags: MW
HStem: 0 183<48 132 48 239 48 296 296 380>
VStem: 48 191<22 22 22 183 22 183> 296 191<22 22 22 183 22 183>
LayerCount: 2
Fore
SplineSet
239 22 m 1
 189 -165 l 1
 95 -165 l 1
 132 0 l 1
 48 0 l 1
 48 183 l 1
 239 183 l 1
 239 22 l 1
487 22 m 1
 437 -165 l 1
 343 -165 l 1
 380 0 l 1
 296 0 l 1
 296 183 l 1
 487 183 l 1
 487 22 l 1
EndSplineSet
EndChar

StartChar: quotedblleft
Encoding: 8220 8220 262
Width: 514
Flags: MW
HStem: 338 348<88 182 88 88 336 336 336 430> 503 183<145 229 145 145 393 393 393 477>
VStem: 38 191<525 686 503 686> 286 191<525 686 503 686>
LayerCount: 2
Fore
SplineSet
229 503 m 1x70
 145 503 l 1x70
 182 338 l 1
 88 338 l 1xb0
 38 525 l 1
 38 686 l 1
 229 686 l 1
 229 503 l 1x70
477 503 m 1
 393 503 l 1x70
 430 338 l 1
 336 338 l 1xb0
 286 525 l 1
 286 686 l 1
 477 686 l 1
 477 503 l 1
EndSplineSet
EndChar

StartChar: quotedblright
Encoding: 8221 8221 263
Width: 514
Flags: MW
HStem: 338 348<84 178 84 84 332 332 332 426> 503 183<37 121 37 228 37 285 285 369>
VStem: 37 191<525 525 525 686 525 686> 285 191<525 525 525 686 525 686>
LayerCount: 2
Fore
SplineSet
228 525 m 1x70
 178 338 l 1
 84 338 l 1xb0
 121 503 l 1
 37 503 l 1
 37 686 l 1
 228 686 l 1
 228 525 l 1x70
476 525 m 1
 426 338 l 1
 332 338 l 1xb0
 369 503 l 1
 285 503 l 1
 285 686 l 1
 476 686 l 1x70
 476 525 l 1
EndSplineSet
EndChar

StartChar: quoteleft
Encoding: 8216 8216 264
Width: 273
Flags: MW
HStem: 338 183<149 233 149 233 42 233> 338 348<92 186 92 233 42 186>
VStem: 42 191<338 499 499 499>
LayerCount: 2
Fore
SplineSet
149 521 m 1xa0
 233 521 l 1
 233 338 l 1
 42 338 l 1xa0
 42 499 l 1
 92 686 l 1
 186 686 l 1x60
 149 521 l 1xa0
EndSplineSet
EndChar

StartChar: quoteright
Encoding: 8217 8217 265
Width: 266
Flags: MW
HStem: 338 348<84 178 84 84> 503 183<37 121 37 228>
VStem: 37 191<525 525 525 686 525 686>
LayerCount: 2
Fore
SplineSet
228 525 m 1x60
 178 338 l 1
 84 338 l 1xa0
 121 503 l 1
 37 503 l 1
 37 686 l 1
 228 686 l 1
 228 525 l 1x60
EndSplineSet
EndChar

StartChar: quotesinglbase
Encoding: 8218 8218 266
Width: 287
Flags: MW
HStem: 0 183<48 132 48 239>
VStem: 48 191<22 22 22 183 22 183>
LayerCount: 2
Fore
SplineSet
239 22 m 1
 189 -165 l 1
 95 -165 l 1
 132 0 l 1
 48 0 l 1
 48 183 l 1
 239 183 l 1
 239 22 l 1
EndSplineSet
EndChar

StartChar: cent
Encoding: 162 162 269
Width: 579
Flags: MW
HStem: -10 207<314 326 326 345.5 314 364 233 326> 390 304<233 551 233 382> 486 208<293.5 332.5> 605 89<250 250 349 349>
VStem: 32 212<321 362 362 416 247.5 424> 393 158<267 293 229 293>
LayerCount: 2
Fore
SplineSet
362 694 m 1xcc
 349 605 l 1x9c
 480 590 551 505 551 390 c 1
 382 390 l 1xcc
 382 416 l 2
 382 455 352 486 313 486 c 0
 274 486 244 455 244 416 c 2xac
 244 267 l 2
 244 228 275 197 314 197 c 2
 326 197 l 2
 365 197 393 228 393 267 c 2
 393 293 l 1
 551 293 l 1
 551 165 474 90 349 78 c 1
 364 -10 l 1
 233 -10 l 1
 250 78 l 1
 130 94 32 198 32 321 c 2
 32 362 l 2
 32 486 129 589 250 605 c 1x9c
 233 694 l 1
 362 694 l 1xcc
EndSplineSet
EndChar

StartChar: currency
Encoding: 164 164 270
Width: 607
Flags: MW
HStem: 91 110<275 331.5> 477 110<276.5 331 276.5 341.5>
VStem: 55 120<311 366.5> 431 120<311.5 367 311.5 376.5>
LayerCount: 2
Fore
SplineSet
565 535 m 1
 509 479 l 1
 536 451 551 395 551 339 c 0
 551 284 535 232 507 197 c 1
 563 141 l 1
 503 81 l 1
 445 139 l 1
 414 108 360 91 303 91 c 0
 247 91 193 108 161 137 c 1
 104 80 l 1
 43 141 l 1
 101 199 l 1
 72 232 55 283 55 339 c 0
 55 394 70 448 101 479 c 1
 43 537 l 1
 106 600 l 1
 163 543 l 1
 194 570 250 587 303 587 c 0
 359 587 412 569 439 545 c 1
 497 603 l 1
 565 535 l 1
303 477 m 0
 228 477 175 415 175 339 c 0
 175 262 230 201 303 201 c 0
 380 201 431 264 431 339 c 0
 431 414 380 477 303 477 c 0
EndSplineSet
EndChar

StartChar: dollar
Encoding: 36 36 271
Width: 600
Flags: MW
HStem: -66 235<254 323.5 254 355 227 323.5> 469 288<227 556 227 383>
VStem: 28 175<224 234 234 235 218.5 236> 42 191<479 506.5 479 529> 373 195<198 223> 383 173<469 473 473 480 469 488.5>
LayerCount: 2
Fore
SplineSet
355 757 m 1xd8
 340 674 l 1
 461 663 556 603 556 480 c 2
 556 469 l 1
 383 469 l 1
 383 473 l 2
 383 504 363 534 308 534 c 0
 257 534 233 518 233 495 c 0
 233 463 271 452 320 440 c 2xd4
 400 420 l 2
 484 401 568 355 568 241 c 0
 568 100 479 32 340 21 c 1
 355 -66 l 1
 227 -66 l 1
 242 22 l 1
 125 35 28 99 28 224 c 2
 28 234 l 2
 28 238 28 242 29 246 c 1
 204 246 l 1
 203 235 l 2xe8
 203 202 221 169 287 169 c 0
 360 169 373 188 373 208 c 0
 373 238 336 251 287 262 c 2
 208 280 l 2
 125 301 42 350 42 472 c 0
 42 586 127 655 242 671 c 1
 227 757 l 1
 355 757 l 1xd8
EndSplineSet
EndChar

StartChar: euro
Encoding: 8364 8364 272
Width: 596
Flags: MW
HStem: -10 166<441.5 443.5> 225 92<28 106 28 118 28 106 329 462 329 329> 365 92<28 106 28 118 325 462> 532 160<430 448 361 473>
VStem: 28 434<225 317 225 317 365 457 225 457> 106 197<327 329 329 354 327 365 327 365>
LayerCount: 2
Fore
SplineSet
420 692 m 0xf4
 476 692 522 683 553 674 c 1
 553 514 l 1
 533 522 495 532 451 532 c 0
 409 532 357 518 325 457 c 1
 462 457 l 1
 462 365 l 1xf8
 304 365 l 2
 303 362 303 358 303 354 c 2
 303 329 l 2
 303 325 303 321 304 317 c 1xf4
 462 317 l 1
 462 225 l 1xf8
 329 225 l 1
 361 169 420 156 463 156 c 0
 495 156 528 167 553 182 c 1
 553 15 l 1
 517 2 470 -10 417 -10 c 0
 307 -10 161 43 118 225 c 1
 28 225 l 1
 28 317 l 1
 106 317 l 1
 106 365 l 1
 28 365 l 1
 28 457 l 1
 118 457 l 1
 160 637 302 692 420 692 c 0xf4
EndSplineSet
EndChar

StartChar: florin
Encoding: 402 402 273
Width: 426
Flags: MW
HStem: -184 122<-37.5 79.5> 369 142<44 88 24 108 306 406> 606 122<266.5 383> 708 20G<266.5 339>
VStem: -106 558
LayerCount: 2
Fore
SplineSet
321 728 m 0xe8
 357 728 420 719 452 706 c 1xd8
 437 596 l 1
 424 601 390 606 376 606 c 0
 351 606 318 603 311 548 c 2
 306 511 l 1
 426 511 l 1
 406 369 l 1
 286 369 l 1
 229 -33 l 2
 214 -141 134 -184 25 -184 c 0
 -11 -184 -74 -175 -106 -162 c 1
 -91 -52 l 1
 -76 -57 -45 -62 -30 -62 c 0
 -5 -62 27 -59 35 -4 c 2
 88 369 l 1
 24 369 l 1
 44 511 l 1
 108 511 l 1
 117 577 l 2
 132 685 212 728 321 728 c 0xe8
EndSplineSet
EndChar

StartChar: sterling
Encoding: 163 163 274
Width: 667
Flags: MW
HStem: 0 147<63 127 304 586 63 127> 266 147<33 127 33 127 325 421> 466 234<441 454 312.5 640 441 441>
VStem: 127 198<147 494 266 494 413 493 493 494 413 551> 441 199<466 494 466 510>
LayerCount: 2
Fore
SplineSet
383 700 m 0
 525 700 640 609 640 494 c 2
 640 466 l 1
 441 466 l 1
 441 494 l 2
 441 526 415 552 383 552 c 0
 351 552 325 526 325 494 c 2
 325 413 l 1
 421 413 l 1
 421 266 l 1
 324 266 l 1
 304 147 l 1
 586 147 l 1
 586 0 l 1
 63 0 l 1
 63 147 l 1
 127 147 l 1
 127 266 l 1
 33 266 l 1
 33 413 l 1
 127 413 l 1
 127 493 l 2
 127 609 242 700 383 700 c 0
EndSplineSet
EndChar

StartChar: yen
Encoding: 165 165 275
Width: 710
Flags: MW
HStem: 224 93<68 221 68 250 68 221 488 647> 364 93<68 145 68 195 68 145 563 647> 364 322<68 195 68 68 514 647 514 514>
VStem: 250 209<0 224 0 224>
LayerCount: 2
Fore
SplineSet
563 457 m 1xd0
 647 457 l 1xd0
 647 364 l 1
 514 364 l 1
 488 317 l 1
 647 317 l 1
 647 224 l 1
 459 224 l 1
 459 0 l 1
 250 0 l 1
 250 224 l 1
 68 224 l 1
 68 317 l 1
 221 317 l 1
 195 364 l 1
 68 364 l 1xb0
 68 457 l 1
 145 457 l 1xd0
 22 686 l 1
 258 686 l 1
 361 461 l 1
 366 461 l 1
 471 686 l 1
 686 686 l 1xb0
 563 457 l 1xd0
EndSplineSet
EndChar

StartChar: Ohm
Encoding: 8486 8486 276
Width: 766
Flags: MW
HStem: 0 162<37 48 37 342 37 48 718 729> 540 154<355 381 381 386>
VStem: 55 226<350 394 394 440> 486 225<310 350 350 394 310 440 310 468>
LayerCount: 2
Fore
SplineSet
355 694 m 2
 411 694 l 2
 577 694 711 560 711 394 c 2
 711 350 l 2
 711 270 670 202 605 142 c 1
 718 162 l 1
 729 162 l 1
 729 0 l 1
 424 0 l 1
 424 85 l 1
 460 100 486 134 486 177 c 2
 486 440 l 2
 486 496 442 540 386 540 c 2
 381 540 l 2
 325 540 281 496 281 440 c 2
 281 177 l 2
 281 136 306 100 342 85 c 1
 342 0 l 1
 37 0 l 1
 37 162 l 1
 48 162 l 1
 160 142 l 1
 95 202 55 270 55 350 c 2
 55 394 l 2
 55 560 189 694 355 694 c 2
EndSplineSet
EndChar

StartChar: approxequal
Encoding: 8776 8776 277
Width: 615
Flags: MW
HStem: 57 126<384.5 464.5> 123 126<150.5 231.5 150.5 233> 278 126<384.5 464.5> 344 126<150.5 231.5 150.5 233>
VStem: 26 564<135 171 171 171 356 392 392 392>
LayerCount: 2
Fore
SplineSet
590 482 m 1x68
 590 356 l 1
 561 322 502 278 427 278 c 0xa8
 342 278 277 344 189 344 c 0
 112 344 55 297 26 266 c 1
 26 392 l 1
 55 423 112 470 189 470 c 0x58
 274 470 339 404 427 404 c 0
 502 404 561 448 590 482 c 1x68
590 261 m 1
 590 135 l 1
 561 101 502 57 427 57 c 0x98
 342 57 277 123 189 123 c 0
 112 123 55 76 26 45 c 1
 26 171 l 1
 55 202 112 249 189 249 c 0x58
 274 249 339 183 427 183 c 0
 502 183 561 227 590 261 c 1
EndSplineSet
EndChar

StartChar: asciitilde
Encoding: 126 126 278
Width: 648
Flags: MW
HStem: 202 126<401.5 481.5> 268 126<167.5 248.5 167.5 250>
VStem: 43 564<280 316 316 316>
LayerCount: 2
Fore
SplineSet
607 406 m 1xa0
 607 280 l 1
 578 246 519 202 444 202 c 0xa0
 359 202 294 268 206 268 c 0
 129 268 72 221 43 190 c 1
 43 316 l 1
 72 347 129 394 206 394 c 0x60
 291 394 356 328 444 328 c 0
 519 328 578 372 607 406 c 1xa0
EndSplineSet
EndChar

StartChar: bulletoperator
Encoding: 8729 8729 279
Width: 289
Flags: MW
HStem: 197 183<49 240 49 240>
VStem: 49 191<197 380 197 380>
LayerCount: 2
Fore
SplineSet
240 197 m 1
 49 197 l 1
 49 380 l 1
 240 380 l 1
 240 197 l 1
EndSplineSet
EndChar

StartChar: divide
Encoding: 247 247 280
Width: 615
Flags: MW
HStem: 17 127<245 372 245 372> 193 128<51 563 51 563> 369 127<245 372 245 372>
VStem: 245 127<17 144 369 496>
LayerCount: 2
Fore
SplineSet
372 369 m 1
 245 369 l 1
 245 496 l 1
 372 496 l 1
 372 369 l 1
563 193 m 1
 51 193 l 1
 51 321 l 1
 563 321 l 1
 563 193 l 1
372 17 m 1
 245 17 l 1
 245 144 l 1
 372 144 l 1
 372 17 l 1
EndSplineSet
EndChar

StartChar: divisionslash
Encoding: 8725 8725 281
Width: 480
Flags: MW
HStem: 666 20G<409 495 495 495>
VStem: -11 506
LayerCount: 2
Fore
SplineSet
78 0 m 1
 -11 0 l 1
 409 686 l 1
 495 686 l 1
 78 0 l 1
EndSplineSet
EndChar

StartChar: equal
Encoding: 61 61 282
Width: 615
Flags: MW
HStem: 81 128<51 563 51 563> 301 128<51 563 51 563>
VStem: 51 512<81 209 81 209 301 429 81 429>
LayerCount: 2
Fore
SplineSet
563 301 m 1
 51 301 l 1
 51 429 l 1
 563 429 l 1
 563 301 l 1
563 81 m 1
 51 81 l 1
 51 209 l 1
 563 209 l 1
 563 81 l 1
EndSplineSet
EndChar

StartChar: greater
Encoding: 62 62 283
Width: 615
Flags: MW
HStem: 501 20G<61 61>
VStem: 61 509<-11 324 127 324 185 521 185 521>
LayerCount: 2
Fore
SplineSet
570 324 m 1
 570 185 l 1
 61 -11 l 1
 61 127 l 1
 409 254 l 1
 61 382 l 1
 61 521 l 1
 570 324 l 1
EndSplineSet
EndChar

StartChar: greaterequal
Encoding: 8805 8805 284
Width: 615
Flags: MW
HStem: 0 128<53 564 53 564> 500 20G<53 53>
VStem: 53 511<0 128 0 128 0 286 0 286 0 520>
LayerCount: 2
Fore
SplineSet
562 403 m 1
 562 264 l 1
 53 148 l 1
 53 286 l 1
 401 333 l 1
 53 381 l 1
 53 520 l 1
 562 403 l 1
564 0 m 1
 53 0 l 1
 53 128 l 1
 564 128 l 1
 564 0 l 1
EndSplineSet
EndChar

StartChar: increment
Encoding: 8710 8710 285
Width: 634
Flags: MW
HStem: 0 109<169 465 169 609> 666 20G<247 386 386 386>
VStem: 25 584<0 93 0 93>
LayerCount: 2
Fore
SplineSet
609 93 m 1
 609 0 l 1
 25 0 l 1
 25 93 l 1
 247 686 l 1
 386 686 l 1
 609 93 l 1
169 109 m 1
 465 109 l 1
 318 525 l 1
 169 109 l 1
EndSplineSet
EndChar

StartChar: infinity
Encoding: 8734 8734 286
Width: 823
Flags: MW
HStem: 91 99<205 248 205 260 579.5 627> 378 98<203.5 249 575.5 621.5>
VStem: 39 102<257.5 314 257.5 339.5> 681 103<261 309>
LayerCount: 2
Fore
SplineSet
601 476 m 0
 699 476 784 405 784 290 c 0
 784 162 694 91 601 91 c 0
 551 91 478 104 409 204 c 1
 356 136 302 91 218 91 c 0
 125 91 39 164 39 281 c 0
 39 398 121 476 229 476 c 0
 310 476 367 440 419 368 c 1
 448 401 l 2
 481 438 530 476 601 476 c 0
227 378 m 0
 180 378 141 346 141 282 c 0
 141 233 181 190 229 190 c 0
 267 190 305 217 330 246 c 2
 356 277 l 1
 324 322 l 2
 300 356 271 378 227 378 c 0
595 378 m 0
 556 378 524 351 498 320 c 2
 469 285 l 1
 528 205 558 190 601 190 c 0
 653 190 681 241 681 281 c 0
 681 337 648 378 595 378 c 0
EndSplineSet
EndChar

StartChar: integral
Encoding: 8747 8747 287
Width: 320
Flags: MW
HStem: -250 68<20 34 20 101 20 34> 683 68<287 301>
VStem: 79 137<642 662 642 677.5> 105 137<-160.5 -141>
LayerCount: 2
Fore
SplineSet
301 751 m 1xe0
 301 683 l 1
 273 683 216 682 216 642 c 2xe0
 229 311 l 2
 234 136 242 -60 242 -138 c 0
 242 -215 169 -250 101 -250 c 2
 20 -250 l 1
 20 -182 l 1xd0
 48 -182 105 -180 105 -141 c 0
 92 164 79 491 79 639 c 0
 79 716 152 751 220 751 c 2
 301 751 l 1xe0
EndSplineSet
EndChar

StartChar: less
Encoding: 60 60 288
Width: 615
Flags: MW
HStem: 501 20G<553 553>
VStem: 44 509<-11 324 -11 324>
LayerCount: 2
Fore
SplineSet
553 382 m 1
 205 254 l 1
 553 127 l 1
 553 -11 l 1
 44 185 l 1
 44 324 l 1
 553 521 l 1
 553 382 l 1
EndSplineSet
EndChar

StartChar: lessequal
Encoding: 8804 8804 289
Width: 615
Flags: MW
HStem: 0 128<50 561 50 561> 500 20G<561 561>
VStem: 50 511<0 128 0 128>
LayerCount: 2
Fore
SplineSet
561 381 m 1
 213 333 l 1
 561 286 l 1
 561 148 l 1
 52 264 l 1
 52 403 l 1
 561 520 l 1
 561 381 l 1
561 0 m 1
 50 0 l 1
 50 128 l 1
 561 128 l 1
 561 0 l 1
EndSplineSet
EndChar

StartChar: logicalnot
Encoding: 172 172 290
Width: 623
Flags: MW
HStem: 334 150<33 421 33 571>
VStem: 421 150<158 334 334 334>
LayerCount: 2
Fore
SplineSet
571 158 m 1
 421 158 l 1
 421 334 l 1
 33 334 l 1
 33 484 l 1
 571 484 l 1
 571 158 l 1
EndSplineSet
EndChar

StartChar: micro
Encoding: 181 181 291
Width: 649
Flags: MW
HStem: -161 292<56 321.5 56 321.5> -161 672<56 254 56 254> -22 20G<246 246> -10 121<478.5 595> -10 521<478.5 549>
VStem: 56 198<-161 -83 174.5 191 191 511> 360 198<191 511>
LayerCount: 2
Fore
SplineSet
558 511 m 1x46
 558 148 l 2
 558 121 574 111 589 111 c 0
 601 111 613 114 624 120 c 1x16
 624 13 l 1
 606 0 575 -10 523 -10 c 0
 434 -10 395 20 376 71 c 1x0e
 361 50 307 6 246 -2 c 1
 250 -26 l 2
 252 -41 254 -60 254 -83 c 2x26
 254 -161 l 1
 56 -161 l 1
 56 511 l 1
 254 511 l 1x46
 254 191 l 2
 254 158 278 131 307 131 c 0
 336 131 360 158 360 191 c 2x86
 360 511 l 1
 558 511 l 1x46
EndSplineSet
EndChar

StartChar: minus
Encoding: 8722 8722 292
Width: 615
Flags: MW
HStem: 213 150<51 563 51 563>
VStem: 51 512<213 363 213 363>
LayerCount: 2
Fore
SplineSet
563 213 m 1
 51 213 l 1
 51 363 l 1
 563 363 l 1
 563 213 l 1
EndSplineSet
EndChar

StartChar: multiply
Encoding: 215 215 293
Width: 615
Flags: MW
HStem: 30 452<171 171 171 443>
VStem: 81 452<120 120 120 392>
LayerCount: 2
Fore
SplineSet
533 392 m 1
 398 256 l 1
 533 120 l 1
 443 30 l 1
 307 165 l 1
 171 30 l 1
 81 120 l 1
 216 256 l 1
 81 392 l 1
 171 482 l 1
 307 347 l 1
 443 482 l 1
 533 392 l 1
EndSplineSet
EndChar

StartChar: notequal
Encoding: 8800 8800 294
Width: 615
Flags: MW
HStem: 81 128<51 134 51 222 331 563 51 245> 301 128<51 285 51 372 480 563 51 394> 301 210<51 536 428 536 428 563 394 536>
VStem: 51 512<81 209 81 209 301 429 81 429>
LayerCount: 2
Fore
SplineSet
480 429 m 1xd0
 563 429 l 1xd0
 563 301 l 1
 394 301 l 1
 331 209 l 1
 563 209 l 1
 563 81 l 1
 245 81 l 1
 190 0 l 1
 79 0 l 1
 134 81 l 1
 51 81 l 1
 51 209 l 1
 222 209 l 1
 285 301 l 1
 51 301 l 1xb0
 51 429 l 1
 372 429 l 1xd0
 428 511 l 1
 536 511 l 1xb0
 480 429 l 1xd0
EndSplineSet
EndChar

StartChar: partialdiff
Encoding: 8706 8706 295
Width: 618
Flags: MW
HStem: -10 140<212 300 294 300 300 312> 321 116<188 294 188 300> 546 150<156 298 156 312>
VStem: 26 193<184.5 205 205 246 184.5 298.5> 375 197<205 240 240 246 246 266.5 385 446>
LayerCount: 2
Fore
SplineSet
156 696 m 1
 312 696 l 2
 456 696 572 590 572 446 c 2
 572 240 l 2
 572 96 456 -10 312 -10 c 2
 284 -10 l 2
 140 -10 26 85 26 230 c 0
 26 367 126 437 250 437 c 0
 287 437 340 422 375 385 c 1
 375 471 l 2
 375 512 339 546 298 546 c 2
 156 546 l 1
 156 696 l 1
300 321 m 2
 294 321 l 2
 253 321 219 287 219 246 c 2
 219 205 l 2
 219 164 253 130 294 130 c 2
 300 130 l 2
 341 130 375 164 375 205 c 2
 375 246 l 2
 375 287 341 321 300 321 c 2
EndSplineSet
EndChar

StartChar: percent
Encoding: 37 37 296
Width: 713
Flags: MW
HStem: -1 72<506 561.5 541 561.5 541 562> 277 71<541 561.5> 337 72<116 171.5 151 171.5 151 172> 614 71<151 171.5>
VStem: 27 97<460 562 562 575> 198 98<448 460 460 562> 417 97<123 225 225 237> 588 98<110 123 123 225>
LayerCount: 2
Fore
SplineSet
195 0 m 1xdf
 100 0 l 1
 519 686 l 1
 612 686 l 1
 195 0 l 1xdf
150 685 m 2
 172 685 l 2
 240 685 296 630 296 562 c 2
 296 460 l 2
 296 392 240 337 172 337 c 2
 150 337 l 2xbf
 82 337 27 392 27 460 c 2
 27 562 l 2
 27 630 82 685 150 685 c 2
161 614 m 0
 141 614 124 598 124 575 c 2
 124 448 l 2
 124 425 141 409 161 409 c 0
 182 409 198 425 198 448 c 2
 198 575 l 2
 198 598 182 614 161 614 c 0
540 348 m 2xdf
 562 348 l 2
 630 348 686 293 686 225 c 2
 686 123 l 2
 686 55 630 -1 562 -1 c 2
 540 -1 l 2
 472 -1 417 55 417 123 c 2
 417 225 l 2
 417 293 472 348 540 348 c 2xdf
551 277 m 0
 531 277 514 260 514 237 c 2
 514 110 l 2
 514 89 531 71 551 71 c 0
 572 71 588 89 588 110 c 2
 588 237 l 2
 588 260 572 277 551 277 c 0
EndSplineSet
EndChar

StartChar: perthousand
Encoding: 8240 8240 297
Width: 1055
Flags: MW
HStem: -1 72<508 563.5 543 563.5 543 564 884 904.5> 277 71<543 563.5 884 904.5> 337 72<118 173.5 153 173.5 153 174> 614 71<153 173.5>
VStem: 29 97<460 562 562 575> 200 98<448 460 460 562> 419 97<123 225 225 237> 590 98<110 123 123 225> 760 97<123 225 225 237> 931 98<110 123 123 225>
LayerCount: 2
Fore
SplineSet
197 0 m 1xdfc0
 102 0 l 1
 521 686 l 1
 614 686 l 1
 197 0 l 1xdfc0
152 685 m 2
 174 685 l 2
 242 685 298 630 298 562 c 2
 298 460 l 2
 298 392 242 337 174 337 c 2
 152 337 l 2x3c
 84 337 29 392 29 460 c 2
 29 562 l 2
 29 630 84 685 152 685 c 2
163 614 m 0
 143 614 126 598 126 575 c 2
 126 448 l 2
 126 425 143 409 163 409 c 0
 184 409 200 425 200 448 c 2
 200 575 l 2
 200 598 184 614 163 614 c 0
542 348 m 2xc3c0
 564 348 l 2
 632 348 688 293 688 225 c 2
 688 123 l 2
 688 55 632 -1 564 -1 c 2
 542 -1 l 2
 474 -1 419 55 419 123 c 2
 419 225 l 2
 419 293 474 348 542 348 c 2xc3c0
883 348 m 2
 905 348 l 2
 973 348 1029 293 1029 225 c 2
 1029 123 l 2
 1029 55 973 -1 905 -1 c 2
 883 -1 l 2
 815 -1 760 55 760 123 c 2
 760 225 l 2
 760 293 815 348 883 348 c 2
553 277 m 0
 533 277 516 260 516 237 c 2
 516 110 l 2
 516 89 533 71 553 71 c 0
 574 71 590 89 590 110 c 2
 590 237 l 2
 590 260 574 277 553 277 c 0
894 277 m 0
 874 277 857 260 857 237 c 2
 857 110 l 2
 857 89 874 71 894 71 c 0
 915 71 931 89 931 110 c 2
 931 237 l 2
 931 260 915 277 894 277 c 0
EndSplineSet
EndChar

StartChar: plus
Encoding: 43 43 298
Width: 615
Flags: MW
HStem: 192 128<51 243 51 243 371 563> 192 320<51 371 51 371 243 563 243 371>
VStem: 243 128<0 192 0 192 320 512>
LayerCount: 2
Fore
SplineSet
371 320 m 1xa0
 563 320 l 1xa0
 563 192 l 1
 371 192 l 1
 371 0 l 1
 243 0 l 1
 243 192 l 1
 51 192 l 1x60
 51 320 l 1
 243 320 l 1xa0
 243 512 l 1
 371 512 l 1x60
 371 320 l 1xa0
EndSplineSet
EndChar

StartChar: plusminus
Encoding: 177 177 299
Width: 615
Flags: MW
HStem: 0 128<51 563 51 563> 272 128<51 243 51 243 371 563> 272 240<51 371 51 371 243 563 243 371>
VStem: 243 128<160 272 160 272 400 512>
LayerCount: 2
Fore
SplineSet
371 400 m 1xd0
 563 400 l 1xd0
 563 272 l 1
 371 272 l 1xb0
 371 160 l 1
 243 160 l 1xd0
 243 272 l 1
 51 272 l 1xb0
 51 400 l 1
 243 400 l 1xd0
 243 512 l 1
 371 512 l 1xb0
 371 400 l 1xd0
563 0 m 1
 51 0 l 1
 51 128 l 1
 563 128 l 1
 563 0 l 1
EndSplineSet
EndChar

StartChar: product
Encoding: 8719 8719 300
Width: 896
Flags: MW
HStem: 551 180<25 142 25 871 356 539 356 356 754 871 754 754>
VStem: 142 214<-101 551 -101 551> 539 215<-101 551 -101 551>
LayerCount: 2
Fore
SplineSet
871 551 m 1
 754 551 l 1
 754 -101 l 1
 539 -101 l 1
 539 551 l 1
 356 551 l 1
 356 -101 l 1
 142 -101 l 1
 142 551 l 1
 25 551 l 1
 25 731 l 1
 871 731 l 1
 871 551 l 1
EndSplineSet
EndChar

StartChar: radical
Encoding: 8730 8730 301
Width: 737
Flags: MW
HStem: -153 982<297 750 297 750>
VStem: -11 761<328 829>
LayerCount: 2
Fore
SplineSet
457 -153 m 1
 297 -153 l 1
 108 271 l 1
 23 236 l 1
 -11 328 l 1
 228 427 l 1
 382 32 l 1
 387 57 393 89 404 124 c 2
 601 829 l 1
 750 829 l 1
 457 -153 l 1
EndSplineSet
EndChar

StartChar: summation
Encoding: 8721 8721 302
Width: 713
Flags: MW
HStem: -101 181<315 683 315 683> 556 175<340 657 340 340>
VStem: 28 655<-101 17 17 17>
LayerCount: 2
Fore
SplineSet
657 556 m 1
 340 556 l 1
 340 552 l 1
 532 337 l 1
 315 85 l 1
 315 80 l 1
 683 80 l 1
 683 -101 l 1
 28 -101 l 1
 28 17 l 1
 285 312 l 1
 41 593 l 1
 41 731 l 1
 657 731 l 1
 657 556 l 1
EndSplineSet
EndChar

StartChar: lozenge
Encoding: 9674 9674 303
Width: 535
Flags: MW
HStem: 0 686<198 337 198 337> 565 121<269 269> 666 20G<198 337 337 337>
VStem: 26 483<343 343>
LayerCount: 2
Fore
SplineSet
509 343 m 1x30
 337 0 l 1
 198 0 l 1x90
 26 343 l 1
 198 686 l 1
 337 686 l 1
 509 343 l 1x30
162 343 m 1
 269 121 l 1
 375 343 l 1
 269 565 l 1x50
 162 343 l 1
EndSplineSet
EndChar

StartChar: bar
Encoding: 124 124 304
Width: 232
Flags: MW
HStem: 700 20G<56 176 176 176>
VStem: 56 120<-199 720>
LayerCount: 2
Fore
SplineSet
176 -199 m 1
 56 -199 l 1
 56 720 l 1
 176 720 l 1
 176 -199 l 1
EndSplineSet
EndChar

StartChar: brokenbar
Encoding: 166 166 305
Width: 272
Flags: MW
HStem: 0 274<61 211 61 211> 412 274<61 211 61 211>
VStem: 61 150<0 274 412 686>
LayerCount: 2
Fore
SplineSet
211 412 m 1
 61 412 l 1
 61 686 l 1
 211 686 l 1
 211 412 l 1
211 0 m 1
 61 0 l 1
 61 274 l 1
 211 274 l 1
 211 0 l 1
EndSplineSet
EndChar

StartChar: at
Encoding: 64 64 306
Width: 906
Flags: MW
HStem: -153 61<322 455.5> 23 113<337.5 474.5> 243 86<478.5 521> 364 157<222 477> 412 109<446.5 477 477 477.5> 636 61<357 567.5>
VStem: 34 73<143 387.5 143 420.5> 207 194<163 199 163 233> 221 179<364 418> 521 180<202 243 243 243 329 356 356 369> 806 73<236.5 432.5>
LayerCount: 2
Fore
SplineSet
469 697 m 0xf760
 704 697 879 588 879 320 c 0
 879 89 761 22 660 22 c 0
 581 22 550 59 531 99 c 1
 498 61 453 23 376 23 c 0
 299 23 207 39 207 166 c 0xf760
 207 300 327 329 521 329 c 1
 521 356 l 2
 521 393 495 412 460 412 c 0xeee0
 433 412 400 395 400 368 c 2
 400 364 l 1
 222 364 l 2
 221 367 221 372 221 378 c 0xf6e0
 221 458 307 521 446 521 c 2
 477 521 l 2
 628 521 701 455 701 369 c 2
 701 171 l 2
 701 147 721 136 734 136 c 0
 754 136 806 152 806 321 c 0
 806 544 667 636 468 636 c 0
 246 636 107 514 107 261 c 0
 107 25 210 -92 434 -92 c 0
 480 -92 563 -78 599 -60 c 1
 599 -126 l 1
 557 -142 477 -153 434 -153 c 0
 187 -153 34 -27 34 262 c 0
 34 579 234 697 469 697 c 0xf760
521 202 m 2
 521 243 l 1
 436 243 401 217 401 181 c 0
 401 145 429 136 457 136 c 0
 492 136 521 163 521 202 c 2
EndSplineSet
EndChar

StartChar: ampersand
Encoding: 38 38 307
Width: 729
Flags: MW
HStem: 0 138<230 421 312 421 312 619> 279 142<275 428 307 421 619 699> 548 148<296.5 303.5 235 320.5> 673 20G<345 345>
VStem: 28 199<185.5 221.5 185.5 239.5> 49 194<472.5 504.5 472.5 570.5> 421 198<138 279 0 279>
LayerCount: 2
Fore
SplineSet
295 696 m 0xe6
 312 696 329 695 345 693 c 1xd6
 345 543 l 1
 335 546 325 548 316 548 c 0
 277 548 243 525 243 484 c 0
 243 461 260 421 307 421 c 2xe6
 428 421 l 1
 482 540 l 1
 619 540 l 1
 619 421 l 1
 699 421 l 1
 699 279 l 1
 619 279 l 1
 619 0 l 1
 300 0 l 2
 160 0 28 42 28 197 c 0xda
 28 282 71 334 151 358 c 1
 84 379 49 438 49 506 c 0
 49 635 175 696 295 696 c 0xe6
421 279 m 1xda
 307 279 l 2
 243 279 227 233 227 210 c 0
 227 161 268 138 312 138 c 2
 421 138 l 1
 421 279 l 1xda
EndSplineSet
EndChar

StartChar: paragraph
Encoding: 182 182 308
Width: 582
Flags: MW
HStem: 607 79<318 394 318 318 482 548 482 482>
VStem: 230 88<-161 253 253 253> 394 88<-161 607 -161 607>
LayerCount: 2
Fore
SplineSet
548 607 m 1
 482 607 l 1
 482 -161 l 1
 394 -161 l 1
 394 607 l 1
 318 607 l 1
 318 -161 l 1
 230 -161 l 1
 230 253 l 1
 114 256 23 353 23 469 c 0
 23 589 119 686 239 686 c 2
 548 686 l 1
 548 607 l 1
EndSplineSet
EndChar

StartChar: copyright
Encoding: 169 169 309
Width: 770
Flags: MW
HStem: -10 65<299.5 469 299.5 482.5> 131 94<329.5 396 387 396 396 399> 461 94<378 394 394 405> 632 64<299.5 469>
VStem: 31 76<256 431 256 441.5> 192 135<311 375 375 401 268.5 429> 456 112<285 305 251 305> 663 76<256 431>
LayerCount: 2
Fore
SplineSet
385 696 m 0
 580 696 739 539 739 344 c 0
 739 147 580 -10 385 -10 c 0
 188 -10 31 147 31 344 c 0
 31 539 188 696 385 696 c 0
385 632 m 0
 214 632 107 518 107 344 c 0
 107 168 214 55 385 55 c 0
 553 55 663 168 663 344 c 0
 663 518 553 632 385 632 c 0
378 555 m 2
 394 555 l 2
 492 555 568 497 568 380 c 1
 450 380 l 1
 450 401 l 2
 450 438 423 461 387 461 c 0
 354 461 327 434 327 401 c 2
 327 285 l 2
 327 252 354 225 387 225 c 2
 396 225 l 2
 429 225 456 246 456 285 c 2
 456 305 l 1
 568 305 l 1
 568 197 495 131 399 131 c 2
 382 131 l 2
 277 131 192 196 192 311 c 2
 192 375 l 2
 192 483 278 555 378 555 c 2
EndSplineSet
EndChar

StartChar: registered
Encoding: 174 174 310
Width: 770
Flags: MW
HStem: -10 65<299.5 469 299.5 482.5> 303 86<343 377 343 406> 459 88<343 343 343 406> 632 64<299.5 469>
VStem: 31 76<256 431 256 441.5> 220 123<135 303 135 389 389 459> 431 126<177.5 264.5> 436 129<423 429 429 437.5> 663 76<256 431>
LayerCount: 2
Fore
SplineSet
385 696 m 0xfe80
 580 696 739 539 739 344 c 0
 739 147 580 -10 385 -10 c 0
 188 -10 31 147 31 344 c 0
 31 539 188 696 385 696 c 0xfe80
385 632 m 0
 214 632 107 518 107 344 c 0
 107 168 214 55 385 55 c 0
 553 55 663 168 663 344 c 0
 663 518 553 632 385 632 c 0
220 547 m 1
 451 547 l 2
 510 547 565 507 565 445 c 0xfd80
 565 401 534 362 491 354 c 1
 490 351 l 1
 537 336 557 290 557 239 c 0
 557 214 558 173 587 165 c 1
 587 141 l 1
 566 132 538 129 515 129 c 0
 462 129 431 148 431 207 c 0
 431 245 429 303 377 303 c 2
 343 303 l 1
 343 135 l 1
 220 135 l 1
 220 547 l 1
343 459 m 1
 343 389 l 1
 406 389 l 2
 423 389 436 402 436 419 c 2
 436 429 l 2
 436 446 423 459 406 459 c 2
 343 459 l 1
EndSplineSet
EndChar

